<svg width="335" height="94" viewBox="0 0 335 94" fill="none" xmlns="http://www.w3.org/2000/svg">
<path d="M177.673 46.6364C176.945 45.6182 175.927 44.8182 174.836 44.2364C176.145 43.2909 177.018 41.7636 177.018 40.0909C177.018 37.2545 174.764 35 171.927 35H170.182V46.6364H177.673Z" fill="#756C66"/>
<path d="M162.182 47.3636H169.455V59H162.182V47.3636Z" fill="#756C66"/>
<path d="M171.636 59H170.182V47.4363H178.109C178.764 48.5273 179.055 49.9091 179.055 51.2909C179.055 55.3636 176 58.7818 171.636 59Z" fill="#756C66"/>
<path d="M162.182 35H169.455V46.6364H162.182V35Z" fill="#756C66"/>
<path d="M189.818 59H191.273C195.636 58.7818 198.691 55.3636 198.691 51.2909C198.691 49.9091 198.4 48.5273 197.745 47.4363H189.818V59Z" fill="#756C66"/>
<path d="M181.818 47.3636H189.091V59H181.818V47.3636Z" fill="#756C66"/>
<path d="M197.309 46.6364C196.582 45.6182 195.564 44.8182 194.473 44.2364C195.782 43.2909 196.655 41.7636 196.655 40.0909C196.655 37.2545 194.4 35 191.564 35H189.818V46.6364H197.309Z" fill="#756C66"/>
<path d="M181.818 35H189.091V46.6364H181.818V35Z" fill="#756C66"/>
<path d="M140.145 47.3636L136 59H142.036L143.782 53.9091H147.636V47.3636H140.145Z" fill="#756C66"/>
<path d="M144.509 35H147.636V46.6364H140.364L144.509 35Z" fill="#756C66"/>
<path d="M148.364 53.9091H152.218L153.964 59H160L155.855 47.3636H148.364V53.9091Z" fill="#756C66"/>
<path d="M151.491 35L155.636 46.6364H148.364V35H151.491Z" fill="#756C66"/>
</svg>
