<svg width="335" height="94" viewBox="0 0 335 94" fill="none" xmlns="http://www.w3.org/2000/svg">
<path d="M173.873 49.3819H173.872C173.847 54.374 169.868 58.4275 164.983 58.4275C160.098 58.4275 156.121 54.374 156.095 49.3819V41.669C156.095 41.669 160.32 42.7206 160.365 47.2336V49.3336C160.365 52.0582 162.439 54.275 164.983 54.275C167.529 54.275 169.597 52.0585 169.599 49.3361V44.8952V44.8714V44.9538C169.777 41.1933 172.964 39.9865 173.782 39.5961H173.873V44.8714V49.3819ZM151.007 40.3801C152.183 40.3801 153.3 40.5991 154.333 40.9837V45.7466C153.442 44.9911 152.282 44.5319 151.007 44.5319C148.206 44.5319 145.936 46.7414 145.936 49.4647V58.4275H141.664V49.627V49.4647V42.0597C141.664 42.0597 143.413 42.1431 144.547 42.9145C146.227 41.3482 148.498 40.3801 151.007 40.3801ZM130.622 54.3926C127.784 54.3926 125.478 52.1529 125.478 49.3929C125.478 46.632 127.784 44.3914 130.622 44.3914C133.461 44.3914 135.767 46.632 135.767 49.3929C135.767 52.1529 133.461 54.3926 130.622 54.3926ZM130.622 40.3801C125.498 40.3801 121.343 44.421 121.343 49.4036C121.343 54.3886 125.498 58.4262 130.622 58.4262C132.741 58.4262 134.69 57.7312 136.253 56.5654C137.215 58.1284 139.904 58.4262 139.904 58.4262V56.9711V49.8001V49.4036C139.904 44.421 135.75 40.3801 130.622 40.3801ZM204.635 54.3926C201.794 54.3926 199.489 52.1529 199.489 49.3929C199.489 46.632 201.794 44.3914 204.635 44.3914C207.473 44.3914 209.775 46.632 209.775 49.3929C209.775 52.1529 207.473 54.3926 204.635 54.3926ZM204.635 40.3801C199.506 40.3801 195.351 44.421 195.351 49.4036C195.351 54.3886 199.506 58.4262 204.635 58.4262C206.753 58.4262 208.7 57.7312 210.263 56.5654C211.224 58.1284 213.914 58.4262 213.914 58.4262V56.9711V49.8001V49.4036C213.914 44.421 209.758 40.3801 204.635 40.3801ZM185.013 54.3926C182.172 54.3926 179.869 52.1529 179.869 49.3929C179.869 46.632 182.172 44.3914 185.013 44.3914C187.852 44.3914 190.155 46.632 190.155 49.3929C190.155 52.1529 187.852 54.3926 185.013 54.3926ZM185.013 40.3801C183.124 40.3801 181.372 40.9324 179.902 41.8752V40.4632C179.727 36.7017 176.639 35.4934 175.822 35.1045H175.729V49.4036V49.9713V56.9711V58.4825C175.729 58.4825 178.506 58.1913 179.546 56.679C181.08 57.7734 182.965 58.4262 185.013 58.4262C190.138 58.4262 194.294 54.3886 194.294 49.4036C194.294 44.421 190.138 40.3801 185.013 40.3801Z" fill="#756C66"/>
</svg>
