<?xml version="1.0" encoding="utf-8"?>
<!-- Generator: Adobe Illustrator 24.1.0, SVG Export Plug-In . SVG Version: 6.00 Build 0)  -->
<svg width="335" height="94" version="1.1" id="Layer_1" xmlns="http://www.w3.org/2000/svg" xmlns:xlink="http://www.w3.org/1999/xlink" x="0px" y="0px"
	 viewBox="0 0 335 95" style="enable-background:new 0 0 335 95;" xml:space="preserve">
<style type="text/css">
	.st0{fill:#756C66;}
	.st1{fill:none;stroke:#606060;stroke-miterlimit:10;}
</style>
<g>
	<path class="st0" d="M149.81,38.79c0.09,0,0.15-0.01,0.22-0.01c2.36,0,4.73,0,7.09,0c0.81,0,1.59,0.15,2.33,0.49
		c1.36,0.62,2.04,1.71,2.12,3.17c0.08,1.45-0.59,2.47-1.88,3.1c-0.05,0.02-0.09,0.05-0.17,0.09c0.13,0.05,0.23,0.09,0.33,0.13
		c0.81,0.31,1.49,0.8,1.93,1.57c0.75,1.3,0.7,3.22-0.84,4.54c-0.83,0.71-1.81,1.1-2.9,1.2c-0.32,0.03-0.64,0.04-0.95,0.04
		c-2.31,0-4.62,0-6.93,0c-0.11,0-0.21,0-0.34,0C149.81,48.33,149.81,43.57,149.81,38.79z M153.51,50.07
		c0.06,0.01,0.08,0.03,0.11,0.03c1.04-0.01,2.09-0.01,3.13-0.02c0.28,0,0.55-0.09,0.8-0.23c0.3-0.16,0.51-0.41,0.6-0.74
		c0.2-0.73-0.07-1.33-0.73-1.62c-0.37-0.17-0.77-0.21-1.17-0.21c-0.84,0-1.67,0-2.51,0c-0.08,0-0.15,0.01-0.24,0.02
		C153.51,48.23,153.51,49.14,153.51,50.07z M153.46,41.73c0,0.9,0,1.78,0,2.65c0.05,0.01,0.07,0.02,0.1,0.02c0.91,0,1.82,0,2.72,0
		c0.28,0,0.54-0.09,0.77-0.24c0.48-0.32,0.68-0.76,0.6-1.33c-0.07-0.52-0.44-0.92-0.97-1.05c-0.14-0.03-0.29-0.05-0.43-0.05
		c-0.85-0.01-1.71,0-2.56,0C153.62,41.72,153.55,41.73,153.46,41.73z"/>
	<path class="st0" d="M205.97,38.76c1.32,0,2.62,0,3.94,0c0,1.76,0,3.5,0,5.26c1.54,0,3.05,0,4.59,0c0-1.75,0-3.49,0-5.22
		c0.22-0.06,3.48-0.08,3.94-0.03c0.06,0.19,0.08,13.78,0.03,14.27c-0.19,0.05-3.46,0.07-3.95,0.02c0-0.36,0-0.73-0.01-1.1
		c0-0.37,0-0.75,0-1.12c0-0.38,0-0.76,0-1.15c0-0.37,0-0.75,0-1.12c0-0.37,0-0.74,0-1.11c-0.21-0.07-4.22-0.08-4.6-0.02
		c-0.01,0.62,0,1.24,0,1.86c0,0.62,0,1.24,0,1.85c0,0.63,0,1.25,0,1.9c-1.32,0-2.61,0-3.91,0c0,0-0.01-0.01-0.02-0.02
		c-0.01-0.01-0.02-0.01-0.02-0.02c0-4.68-0.01-9.36-0.01-14.04C205.96,38.91,205.96,38.85,205.97,38.76z"/>
	<path class="st0" d="M170.4,53.45c-1.28-0.03-2.49-0.3-3.6-0.96c-1.39-0.83-2.32-2.05-2.84-3.57c-0.72-2.12-0.71-4.26,0.12-6.34
		c0.88-2.2,2.5-3.57,4.84-4.03c1.34-0.26,2.68-0.19,3.98,0.27c1.91,0.68,3.17,2.02,3.89,3.9c0.49,1.3,0.61,2.64,0.5,4.02
		c-0.1,1.2-0.4,2.34-1,3.4c-1,1.74-2.49,2.8-4.47,3.16C171.36,53.37,170.88,53.39,170.4,53.45z M173.65,45.85
		c0.01-0.56-0.08-1.2-0.29-1.82c-0.56-1.61-1.88-2.42-3.55-2.15c-1.04,0.17-1.76,0.79-2.16,1.73c-0.66,1.51-0.66,3.06-0.02,4.58
		c0.43,1.03,1.22,1.65,2.35,1.8c1.19,0.15,2.39-0.3,3.06-1.49C173.49,47.7,173.66,46.84,173.65,45.85z"/>
	<path class="st0" d="M178.09,50.72c0.8-0.74,1.59-1.47,2.39-2.21c0.06,0.06,0.12,0.12,0.17,0.17c0.77,0.86,1.71,1.4,2.85,1.58
		c0.6,0.1,1.19,0.11,1.78-0.08c0.27-0.09,0.51-0.23,0.72-0.42c0.47-0.44,0.58-1.42-0.26-1.84c-0.48-0.24-0.99-0.36-1.5-0.48
		c-0.65-0.15-1.3-0.27-1.94-0.44c-0.84-0.23-1.62-0.6-2.27-1.19c-0.96-0.87-1.34-1.97-1.24-3.24c0.14-1.81,1.17-2.98,2.79-3.68
		c1.02-0.44,2.1-0.57,3.2-0.52c1.02,0.04,2,0.25,2.93,0.67c0.75,0.34,1.42,0.81,2,1.4c0.04,0.04,0.08,0.09,0.14,0.16
		c-0.77,0.73-1.53,1.45-2.3,2.18c-0.12-0.1-0.23-0.19-0.33-0.27c-0.89-0.72-1.9-1.1-3.05-1.02c-0.37,0.03-0.72,0.12-1.03,0.32
		c-0.28,0.18-0.46,0.43-0.53,0.76c-0.08,0.39,0.03,0.72,0.33,0.98c0.23,0.2,0.5,0.33,0.79,0.41c0.61,0.16,1.22,0.3,1.83,0.43
		c0.74,0.16,1.47,0.32,2.17,0.61c0.43,0.18,0.84,0.4,1.2,0.7c0.65,0.54,1.04,1.23,1.2,2.05c0.22,1.17,0.09,2.28-0.57,3.3
		c-0.5,0.76-1.19,1.29-2,1.68c-0.87,0.41-1.8,0.63-2.76,0.67c-1.19,0.05-2.36-0.06-3.49-0.44C180.03,52.53,179,51.75,178.09,50.72z"
		/>
	<path class="st0" d="M201.38,48.39c1.02,0.65,2.03,1.3,3.05,1.96c-0.04,0.06-0.06,0.12-0.1,0.16c-0.36,0.48-0.75,0.94-1.19,1.35
		c-0.87,0.82-1.9,1.3-3.07,1.48c-0.79,0.12-1.59,0.16-2.39,0.07c-2.01-0.22-3.61-1.15-4.78-2.8c-0.69-0.97-1.1-2.07-1.29-3.24
		c-0.25-1.52-0.16-3.01,0.36-4.46c0.83-2.33,2.45-3.8,4.89-4.31c1.24-0.26,2.5-0.24,3.73,0.1c1.33,0.36,2.38,1.13,3.25,2.19
		c0.14,0.18,0.28,0.36,0.41,0.54c0.02,0.03,0.03,0.06,0.06,0.11c-1,0.63-2,1.26-3.02,1.9c-0.11-0.15-0.21-0.28-0.32-0.42
		c-0.41-0.52-0.92-0.9-1.57-1.07c-1.58-0.41-3.1,0.34-3.79,1.86c-0.27,0.6-0.39,1.23-0.41,1.88c-0.02,0.74,0.07,1.47,0.36,2.16
		c0.45,1.09,1.22,1.85,2.4,2.1c1.28,0.27,2.36-0.07,3.14-1.16C201.19,48.65,201.28,48.52,201.38,48.39z"/>
	<path class="st0" d="M126.55,35.12c5.74-0.07,10.84,4.62,10.84,10.82c0,5.95-4.76,10.86-10.85,10.85
		c-6.28-0.01-10.93-5.15-10.84-11C115.78,39.78,120.75,35.05,126.55,35.12z M126.53,55.85c5.57-0.03,9.93-4.54,9.9-9.94
		c-0.03-5.4-4.4-9.84-9.88-9.84c-5.6,0-9.91,4.58-9.9,9.9C116.65,51.28,120.95,55.81,126.53,55.85z"/>
	<path class="st0" d="M122.81,49.02c0,1.21,0,2.43,0,3.68c-0.39,0.03-0.72,0.06-1.05-0.19c-1.71-1.31-2.85-2.99-3.19-5.13
		c-0.53-3.33,0.61-6.03,3.31-8.07c0.13-0.1,0.26-0.15,0.43-0.14c0.14,0.01,0.27,0,0.41,0.01c0.02,0,0.03,0.01,0.08,0.04
		c0.01,0.09,0.02,0.19,0.02,0.3c0,1.02,0,2.04,0,3.05c0,0.11,0.01,0.21,0.02,0.34c2.5,0,4.98,0,7.5,0c0-0.32,0.01-0.62,0.01-0.93
		c0-0.31,0-0.62,0-0.93c0-0.3,0-0.6,0-0.9c0-0.31,0-0.62,0-0.95c0.34-0.02,0.65-0.09,0.95,0.14c1.82,1.37,3,3.15,3.3,5.41
		c0.43,3.24-0.71,5.86-3.34,7.83c-0.14,0.1-0.28,0.15-0.45,0.14c-0.13-0.01-0.27,0-0.44,0c-0.01-0.11-0.02-0.21-0.02-0.3
		c0-1.03,0-2.05,0-3.08c0-0.11,0-0.21,0-0.31C130.08,48.95,123.08,48.95,122.81,49.02z M130.31,43.92c-0.42-0.06-7.3-0.04-7.49,0.02
		c-0.05,0.46-0.03,3.85,0.03,4.06c0.03,0,0.07,0.02,0.1,0.02c2.4,0,4.8,0,7.2,0c0.04,0,0.07-0.01,0.11-0.02
		c0.01,0,0.01-0.01,0.02-0.02c0.01-0.01,0.01-0.01,0.03-0.03C130.31,46.62,130.31,45.28,130.31,43.92z M131.3,51.25
		c0.06-0.02,0.08-0.02,0.09-0.03c0.07-0.07,0.15-0.13,0.22-0.2c1.87-1.97,2.52-4.28,1.85-6.93c-0.32-1.27-0.99-2.35-1.94-3.26
		c-0.06-0.06-0.11-0.16-0.23-0.11C131.3,44.22,131.3,47.72,131.3,51.25z M121.77,40.68c-1.15,0.82-2.52,3.04-2.39,5.59
		c0.07,1.33,0.46,2.55,1.2,3.65c0.33,0.49,0.71,0.95,1.19,1.35C121.83,50.98,121.83,40.89,121.77,40.68z"/>
</g>
</svg>
