<?xml version="1.0" encoding="utf-8"?>
<!-- Generator: Adobe Illustrator 24.1.0, SVG Export Plug-In . SVG Version: 6.00 Build 0)  -->
<svg  width="335" height="94" version="1.1" id="Layer_1" xmlns="http://www.w3.org/2000/svg" xmlns:xlink="http://www.w3.org/1999/xlink" x="0px" y="0px"
	 viewBox="0 0 335 95" style="enable-background:new 0 0 335 95;" xml:space="preserve">
<style type="text/css">
	.st0{fill:#756C66;}
	.st1{fill:none;stroke:#606060;stroke-miterlimit:10;}
</style>
<g>
	<path class="st0" d="M101.09,50.27c-1.05-3.1-0.27-7.34,3.19-9.94c3.31-2.49,7.91-2.41,11.15,0.21c3.35,2.71,3.9,6.9,2.93,9.7
		c-0.42-0.14-0.83-0.32-1.26-0.42c-0.77-0.18-1.49,0.01-2.16,0.39c-0.31,0.18-0.61,0.38-0.92,0.55c-0.21,0.12-0.43,0.23-0.66,0.3
		c-0.6,0.18-1.02-0.06-1.17-0.66c-0.14-0.57-0.25-1.14-0.37-1.71c-0.35-1.7-0.7-3.41-1.05-5.11c-0.04-0.2-0.11-0.4-0.2-0.59
		c-0.16-0.35-0.43-0.56-0.84-0.56c-0.42,0-0.72,0.2-0.85,0.57c-0.16,0.46-0.27,0.93-0.37,1.41c-0.41,1.96-0.81,3.92-1.22,5.88
		c-0.16,0.76-0.67,1.03-1.38,0.72c-0.39-0.17-0.73-0.44-1.12-0.62c-0.44-0.21-0.9-0.43-1.37-0.56c-0.6-0.17-1.19-0.03-1.76,0.21
		C101.48,50.1,101.29,50.18,101.09,50.27z"/>
	<path class="st0" d="M229.67,53.51c-0.86,0-1.7,0-2.57,0c0-2.62,0-5.23,0-7.84c-0.02-0.01-0.03-0.01-0.05-0.02
		c-0.05,0.06-0.1,0.13-0.14,0.19c-0.84,1.28-1.69,2.56-2.53,3.84c-0.44,0.66-1.08,0.66-1.52-0.01c-0.83-1.27-1.67-2.53-2.5-3.8
		c-0.05-0.08-0.11-0.15-0.2-0.28c0,2.67,0,5.28,0,7.91c-0.88,0-1.73,0-2.6,0c0-4.04,0-8.08,0-12.17c0.09,0,0.18,0,0.27,0
		c0.78,0,1.55,0.01,2.33,0c0.19,0,0.3,0.06,0.39,0.22c0.96,1.57,1.93,3.13,2.9,4.69c0.05,0.08,0.1,0.16,0.17,0.26
		c0.5-0.8,0.97-1.57,1.45-2.34c0.55-0.88,1.09-1.76,1.63-2.65c0.08-0.14,0.17-0.19,0.33-0.18c0.87,0.01,1.74,0,2.64,0
		C229.67,45.4,229.67,49.44,229.67,53.51z"/>
	<path class="st0" d="M123.52,41.35c0.08,0,0.13-0.01,0.18-0.01c2.12,0,4.24-0.01,6.36,0c0.9,0.01,1.72,0.25,2.41,0.86
		c1.5,1.32,1.23,3.94-0.49,4.82c-0.16,0.08-0.33,0.14-0.54,0.22c0.09,0.03,0.15,0.05,0.21,0.07c1.23,0.38,2.09,1.65,2.03,3.01
		c-0.08,1.87-1.32,3.15-3.2,3.19c-2.29,0.04-4.57,0.02-6.86,0.02c-0.03,0-0.07-0.01-0.12-0.02
		C123.52,49.46,123.52,45.42,123.52,41.35z M126.13,48.45c0,0.95,0,1.88,0,2.81c1.23,0,2.44,0.03,3.65-0.01
		c0.64-0.02,1.08-0.43,1.21-0.98c0.23-0.96-0.37-1.78-1.38-1.81C128.46,48.43,127.31,48.45,126.13,48.45z M126.13,46.2
		c1.17,0,2.31,0.02,3.46-0.01c0.68-0.02,1.16-0.51,1.21-1.15c0.06-0.73-0.32-1.27-1.01-1.43c-0.15-0.04-0.31-0.04-0.47-0.05
		c-0.99,0-1.99,0-2.98,0c-0.07,0-0.13,0.01-0.2,0.02C126.13,44.47,126.13,45.33,126.13,46.2z"/>
	<path class="st0" d="M176.1,53.53c0-4.08,0-8.12,0-12.16c0.03-0.01,0.03-0.02,0.04-0.02c2.02,0.03,4.05-0.15,6.07,0.1
		c3.03,0.37,5.13,2.76,5.18,5.81c0.03,1.74-0.45,3.29-1.72,4.53c-1.03,1.01-2.31,1.51-3.72,1.68c-0.42,0.05-0.85,0.06-1.28,0.06
		c-1.41,0.01-2.83,0-4.24,0C176.32,53.53,176.21,53.53,176.1,53.53z M178.7,51.23c0.06,0.01,0.1,0.02,0.14,0.02
		c0.73,0,1.47,0.01,2.2-0.01c1.17-0.03,2.17-0.44,2.9-1.37c0.68-0.87,0.89-1.88,0.76-2.96c-0.17-1.49-0.9-2.59-2.38-3.06
		c-0.4-0.13-0.84-0.19-1.26-0.2c-0.78-0.03-1.57-0.01-2.36-0.01C178.7,46.17,178.7,48.69,178.7,51.23z"/>
	<path class="st0" d="M209.24,53.89c-3.56-0.01-6.45-2.89-6.44-6.44c0.01-3.53,2.9-6.41,6.44-6.42c3.57,0,6.46,2.9,6.44,6.46
		C215.67,51.04,212.79,53.9,209.24,53.89z M209.24,43.56c-2.16,0-3.91,1.75-3.92,3.9c0,2.15,1.75,3.91,3.91,3.91
		c2.17,0,3.93-1.76,3.93-3.92C213.16,45.31,211.41,43.56,209.24,43.56z"/>
	<path class="st0" d="M154.05,53.89c-3.56-0.01-6.45-2.9-6.43-6.44c0.01-3.54,2.91-6.41,6.45-6.41c3.57,0,6.46,2.9,6.44,6.47
		C160.48,51.04,157.6,53.9,154.05,53.89z M154.05,51.38c2.16,0,3.92-1.74,3.93-3.89c0.01-2.16-1.75-3.92-3.92-3.92
		c-2.16,0-3.91,1.75-3.92,3.9C150.14,49.61,151.89,51.37,154.05,51.38z"/>
	<path class="st0" d="M143.15,48.91c0.9,1.52,1.8,3.04,2.72,4.59c-0.09,0.01-0.16,0.02-0.22,0.02c-0.85,0-1.69,0-2.54,0
		c-0.16,0-0.25-0.06-0.32-0.2c-0.72-1.31-1.44-2.61-2.16-3.91c-0.09-0.16-0.19-0.24-0.38-0.23c-0.54,0.01-1.08,0-1.65,0
		c0,1.45,0,2.87,0,4.31c-0.88,0-1.73,0-2.6,0c0-4.05,0-8.1,0-12.17c0.1,0,0.18,0,0.27,0c1.83,0,3.65,0,5.48,0
		c0.64,0,1.27,0.11,1.86,0.37c1.48,0.65,2.33,2.15,2.2,3.82c-0.11,1.38-0.68,2.45-1.94,3.1C143.64,48.74,143.4,48.81,143.15,48.91z
		 M138.6,46.92c0.58,0,1.14,0,1.7,0c0.47-0.01,0.94,0.01,1.41-0.04c0.71-0.08,1.25-0.56,1.39-1.2c0.24-1.08-0.46-2-1.59-2.04
		c-0.85-0.03-1.71-0.01-2.57-0.01c-0.11,0-0.22,0-0.35,0C138.6,44.73,138.6,45.81,138.6,46.92z"/>
	<path class="st0" d="M173.82,53.53c-0.96,0-1.89,0-2.81-0.01c-0.07,0-0.17-0.1-0.2-0.18c-0.21-0.56-0.42-1.12-0.62-1.69
		c-0.05-0.16-0.14-0.18-0.29-0.18c-1.6,0-3.2,0.01-4.79,0c-0.18,0-0.26,0.05-0.32,0.22c-0.19,0.56-0.4,1.11-0.62,1.66
		c-0.03,0.08-0.13,0.17-0.2,0.17c-0.92,0.01-1.85,0.01-2.81,0.01c0.04-0.11,0.06-0.2,0.09-0.28c1.5-3.88,3.01-7.75,4.5-11.63
		c0.08-0.21,0.17-0.29,0.41-0.28c0.92,0.02,1.83,0.01,2.75,0c0.14,0,0.23,0.02,0.29,0.18c1.52,3.95,3.05,7.9,4.57,11.85
		C173.79,53.41,173.8,53.45,173.82,53.53z M169.4,49.17c-0.64-1.75-1.26-3.46-1.9-5.24c-0.65,1.78-1.27,3.5-1.9,5.24
		C166.88,49.17,168.12,49.17,169.4,49.17z"/>
	<path class="st0" d="M200.89,43.7c-0.61,0.61-1.21,1.21-1.8,1.8c-1.36-2.31-4.43-2.52-6.15-0.84c-1.63,1.6-1.57,4.22,0.16,5.74
		c1.77,1.56,4.67,1.25,5.99-0.99c0.59,0.59,1.19,1.19,1.79,1.79c-0.99,1.58-3.48,3.15-6.48,2.57c-2.73-0.53-4.89-2.95-5.14-5.63
		c-0.28-3,1.49-5.74,4.25-6.72C196.22,40.45,199.3,41.41,200.89,43.7z"/>
	<path class="st0" d="M117.81,51.61c-1.27,2.64-4.35,5.15-8.49,4.98c-3.67-0.15-6.51-2.49-7.67-4.98c0.71-0.41,1.43-0.53,2.18-0.09
		c0.38,0.23,0.76,0.47,1.15,0.68c0.67,0.37,1.37,0.51,2.12,0.3c0.92-0.26,1.43-0.92,1.63-1.81c0.34-1.48,0.63-2.98,0.95-4.47
		c0.01-0.06,0.03-0.11,0.07-0.22c0.31,1.49,0.61,2.92,0.91,4.34c0.03,0.14,0.06,0.27,0.09,0.41c0.4,1.5,1.75,2.21,3.22,1.67
		c0.3-0.11,0.58-0.27,0.87-0.43c0.25-0.14,0.49-0.3,0.74-0.45C116.33,51.08,117.07,51.18,117.81,51.61z"/>
	<path class="st0" d="M231.82,42.37c0-0.75,0.59-1.35,1.34-1.35c0.73,0,1.33,0.59,1.34,1.32c0.01,0.74-0.6,1.35-1.34,1.35
		C232.42,43.69,231.83,43.1,231.82,42.37z M233.16,41.28c-0.6,0-1.08,0.48-1.07,1.08c0,0.58,0.48,1.06,1.06,1.07
		c0.59,0.01,1.09-0.48,1.09-1.07C234.24,41.77,233.75,41.28,233.16,41.28z"/>
	<path class="st0" d="M232.72,41.74c0.14-0.01,0.28-0.01,0.42-0.02c0.23-0.01,0.45,0,0.55,0.26c0.1,0.25-0.03,0.41-0.23,0.54
		c0.09,0.15,0.16,0.28,0.25,0.42c-0.2,0.1-0.31,0.02-0.4-0.15c-0.06-0.12-0.09-0.31-0.32-0.22c-0.01,0.13-0.01,0.27-0.02,0.42
		c-0.08,0-0.15,0.01-0.25,0.01C232.72,42.58,232.72,42.18,232.72,41.74z M232.97,42.32c0.15-0.04,0.29-0.07,0.43-0.12
		c0.02-0.01,0.02-0.15,0-0.16c-0.13-0.05-0.27-0.08-0.43-0.11C232.97,42.09,232.97,42.17,232.97,42.32z"/>
</g>
</svg>
