<svg width="335" height="94" viewBox="0 0 335 94" fill="none" xmlns="http://www.w3.org/2000/svg">
<path d="M155.367 54.8002C159.217 58.6835 166.817 58.6502 170.3 54.5835C170.017 54.4058 169.738 54.23 169.462 54.056C168.599 53.5119 167.763 52.9846 166.917 52.4668C166.783 52.4002 166.467 52.4835 166.317 52.6002C164.333 54.1335 162.2 54.1168 160.067 53.0668C157.733 51.9002 156.6 49.2168 157.083 46.4002C157.467 44.1335 158.683 42.4668 160.883 41.7335C163.067 41.0002 165.117 41.3335 166.767 43.1168C166.867 43.2168 167.15 43.3168 167.233 43.2668C168 42.7891 168.752 42.2965 169.504 41.8039C169.879 41.5576 170.255 41.3113 170.633 41.0668C167.883 37.1502 160.4 36.0835 156.05 39.7335C151.65 43.4168 151.3 50.7002 155.367 54.8002Z" fill="#756C66"/>
<path d="M203.553 44.0566C203.467 43.9222 203.366 43.7662 203.233 43.5668C203.639 43.5668 204.031 43.5657 204.414 43.5647C205.526 43.5616 206.558 43.5587 207.6 43.5835C207.817 43.5835 208.1 43.8168 208.217 44.0168C208.62 44.6802 208.993 45.3537 209.367 46.0294C209.472 46.2196 209.577 46.4099 209.683 46.6002C209.762 46.7354 209.849 46.8707 209.958 47.0421C210.011 47.1241 210.068 47.2143 210.133 47.3168C210.316 46.9921 210.495 46.6813 210.671 46.3782C211.071 45.6859 211.447 45.0341 211.783 44.3502C212.083 43.7335 212.467 43.5168 213.15 43.5502C213.994 43.5964 214.847 43.5865 215.74 43.5761C216.135 43.5715 216.537 43.5668 216.95 43.5668C216.899 43.6538 216.852 43.7345 216.809 43.8103C216.71 43.9816 216.626 44.1282 216.533 44.2668C216.076 44.9331 215.624 45.6019 215.172 46.2703C214.438 47.3573 213.703 48.4435 212.95 49.5168C212.65 49.9502 212.633 50.2502 212.95 50.7002C213.84 51.9636 214.705 53.2444 215.568 54.5238C215.901 55.0165 216.233 55.509 216.567 56.0002C216.639 56.1088 216.711 56.2225 216.797 56.357C216.869 56.4701 216.951 56.598 217.05 56.7502C216.648 56.7502 216.254 56.7512 215.867 56.7523C214.73 56.7554 213.648 56.7584 212.567 56.7335C212.4 56.7335 212.183 56.5002 212.083 56.3168C211.825 55.8668 211.571 55.4168 211.317 54.9668C211.062 54.5168 210.808 54.0668 210.55 53.6168C210.495 53.5222 210.436 53.4313 210.368 53.3264C210.292 53.2097 210.205 53.0758 210.1 52.9002C209.932 53.195 209.763 53.4789 209.597 53.7568C209.22 54.3899 208.861 54.9913 208.583 55.6168C208.183 56.5502 207.6 56.8835 206.583 56.7835C205.847 56.7155 205.11 56.7323 204.332 56.75C203.965 56.7583 203.589 56.7668 203.2 56.7668C203.273 56.6465 203.336 56.5396 203.394 56.4418C203.479 56.2957 203.553 56.1699 203.633 56.0502C203.712 55.9335 203.79 55.817 203.868 55.7005C204.988 54.0358 206.098 52.3857 207.267 50.7502C207.617 50.2502 207.583 49.9168 207.25 49.4502C206.274 48.0811 205.331 46.69 204.385 45.2948C204.168 44.9745 203.951 44.654 203.733 44.3335C203.676 44.2474 203.618 44.1582 203.553 44.0566Z" fill="#756C66"/>
<path d="M190.167 37.5168H193.317V56.7668C193.002 56.7668 192.691 56.7679 192.38 56.7689C191.455 56.7721 190.544 56.7751 189.633 56.7502C189.5 56.7502 189.333 56.5168 189.267 56.3668C189.231 56.2471 189.238 56.1016 189.245 55.9611C189.247 55.9061 189.25 55.8518 189.25 55.8002V38.4502C189.25 37.5168 189.25 37.5168 190.167 37.5168Z" fill="#756C66"/>
<path d="M197.133 43.6002H201.117V56.6835H197.133V43.6002Z" fill="#756C66"/>
<path d="M201.75 39.0835C201.75 40.6002 200.633 41.7002 199.1 41.7002C197.6 41.7002 196.433 40.5502 196.433 39.0835C196.417 37.6168 197.583 36.4835 199.1 36.4835C200.65 36.4835 201.75 37.5668 201.75 39.0835Z" fill="#756C66"/>
<path d="M117.159 52.8793C117.116 52.8193 117.073 52.7597 117.033 52.7002V52.4002C117.076 52.3642 117.12 52.329 117.162 52.294C117.318 52.1672 117.469 52.0439 117.6 51.9002C119.25 50.0502 121.183 48.5835 123.433 47.5168C123.617 47.4335 123.817 47.3502 124.05 47.2668C124.097 47.4903 124.136 47.7075 124.173 47.9192C124.243 48.3076 124.309 48.6775 124.417 49.0335C125.7 53.4335 130.85 55.4502 134.8 53.0668C135.233 52.8168 135.567 52.7835 136.017 53.0002C138.317 54.1002 140.117 55.7335 141.367 58.0002C139.4 59.7835 137.15 60.9502 134.6 61.5502C127.667 63.1668 120.533 59.7502 117.433 53.3168C117.363 53.1647 117.26 53.0208 117.159 52.8793Z" fill="#756C66"/>
<path d="M129.307 32.2054C129.516 32.1654 129.724 32.1253 129.933 32.0835H132.333C132.645 32.1481 132.957 32.2091 133.269 32.2701C133.922 32.398 134.573 32.5255 135.217 32.6835C137.417 33.2335 140.183 34.8002 141.333 36.1168C140.033 38.4502 138.15 40.1335 135.683 41.1835C135.5 41.2668 135.183 41.2002 134.983 41.0835C130.333 38.4168 125.1 40.8502 124.183 46.1335C124.162 46.263 124.133 46.3925 124.097 46.5537C124.078 46.6414 124.057 46.7385 124.033 46.8502C123.828 46.7446 123.624 46.6428 123.423 46.5421C123.02 46.3409 122.628 46.1446 122.25 45.9335C120.467 44.9335 118.917 43.6502 117.567 42.1168C117.477 42.0168 117.369 41.9348 117.261 41.8528C117.189 41.7982 117.117 41.7435 117.05 41.6835V41.4002C117.09 41.3326 117.139 41.2678 117.188 41.2024C117.261 41.1064 117.334 41.0092 117.383 40.9002C119.6 36.4502 123.083 33.6168 127.95 32.4835C128.396 32.3805 128.85 32.2932 129.307 32.2054Z" fill="#756C66"/>
<path fill-rule="evenodd" clip-rule="evenodd" d="M185.483 43.5668H182.833C181.5 43.5668 181.5 43.5668 181.417 44.8502C181.417 44.9348 181.399 45.0195 181.389 45.0659C181.386 45.0835 181.383 45.0956 181.383 45.1002C181.114 44.9276 180.854 44.7411 180.598 44.5565C180.061 44.1704 179.536 43.7923 178.95 43.5668C176.267 42.5168 173 43.9168 171.683 46.6002C170.55 48.9168 170.533 51.3002 171.633 53.6168C173.55 57.6835 179.083 58.1668 181.2 55.1835C181.21 55.1737 181.237 55.1754 181.285 55.1785C181.318 55.1807 181.362 55.1835 181.417 55.1835V56.7002H185.483V43.5668ZM181.417 50.2002C181.4 52.1335 180 53.6168 178.2 53.6168C176.367 53.6168 174.933 52.0668 174.95 50.1502C174.967 48.2168 176.417 46.7168 178.25 46.7335C180.033 46.7502 181.433 48.2835 181.417 50.2002Z" fill="#756C66"/>
<path d="M145.25 41.7334C146.65 45.3167 146.65 48.7667 145.316 52.2167C144.974 51.9095 144.641 51.5993 144.31 51.292C143.548 50.5822 142.802 49.8882 142 49.2834C141.214 48.7023 140.373 48.2069 139.515 47.7014C139.118 47.4674 138.717 47.2312 138.316 46.9834C140.966 45.8001 143.3 44.1001 145.25 41.7334Z" fill="#756C66"/>
</svg>
