<?xml version="1.0" standalone="no"?>
<!DOCTYPE svg PUBLIC "-//W3C//DTD SVG 20010904//EN"
 "http://www.w3.org/TR/2001/REC-SVG-20010904/DTD/svg10.dtd">
<svg version="1.0" xmlns="http://www.w3.org/2000/svg"
 width="512.000000pt" height="512.000000pt" viewBox="0 0 512.000000 512.000000"
 preserveAspectRatio="xMidYMid meet">

<g transform="translate(0.000000,512.000000) scale(0.100000,-0.100000)"
fill="#000000" stroke="none">
<path d="M64 4450 c-12 -4 -31 -21 -43 -36 -20 -26 -21 -35 -21 -353 0 -179 4
-353 10 -385 20 -126 106 -258 213 -329 48 -32 143 -69 210 -82 l27 -5 0 -303
c0 -320 12 -476 50 -649 121 -545 454 -1018 930 -1323 90 -58 279 -152 375
-188 763 -284 1611 -113 2189 443 312 299 515 658 606 1068 38 173 50 329 50
649 l0 303 28 5 c66 13 161 50 209 82 108 72 194 205 214 334 5 36 9 208 7
392 l-3 329 -33 29 -32 29 -2483 -1 c-1365 0 -2492 -4 -2503 -9z m4856 -390
l0 -200 -801 -2 -801 -3 -30 -34 c-25 -28 -29 -39 -24 -69 3 -20 17 -47 31
-61 l25 -26 790 -3 c435 -1 790 -6 790 -10 0 -21 -66 -104 -103 -132 -87 -64
66 -60 -2257 -58 l-2115 3 -46 21 c-60 28 -125 93 -153 153 -20 43 -21 64 -24
334 l-3 287 2360 0 2361 0 0 -200z m-463 -1157 c-4 -312 -7 -372 -26 -470 -90
-473 -338 -885 -704 -1171 l-67 -52 0 412 c0 323 -3 434 -15 508 -74 453 -414
810 -865 907 -116 24 -324 24 -440 0 -451 -97 -791 -454 -865 -907 -12 -74
-15 -185 -15 -508 l0 -412 -67 52 c-366 286 -614 698 -704 1171 -19 98 -22
158 -26 470 l-5 357 1902 0 1902 0 -5 -357z m-1672 -73 c308 -80 559 -331 647
-645 21 -77 22 -99 26 -591 l3 -511 -93 -42 c-519 -239 -1097 -239 -1616 0
l-93 42 3 511 c4 492 5 514 26 591 94 338 371 596 709 660 105 20 282 13 388
-15z"/>
<path d="M2924 3850 c-32 -13 -64 -59 -64 -91 0 -40 46 -88 91 -95 31 -5 42
-1 70 24 28 25 34 37 34 72 0 35 -6 47 -33 71 -33 29 -60 35 -98 19z"/>
<path d="M2415 2644 c-38 -8 -113 -36 -165 -61 -80 -38 -109 -59 -181 -132
-73 -72 -94 -101 -132 -181 -102 -211 -102 -409 0 -620 38 -80 59 -109 132
-181 72 -73 101 -94 181 -132 103 -50 213 -77 310 -77 97 0 207 27 310 77 80
38 109 59 181 132 73 72 94 101 132 181 102 211 102 409 0 620 -38 80 -59 109
-132 181 -72 73 -101 94 -181 132 -153 74 -300 93 -455 61z m258 -199 c269
-70 439 -342 372 -598 -70 -269 -342 -439 -598 -372 -269 70 -439 342 -372
598 70 269 342 439 598 372z"/>
<path d="M2465 2243 c-211 -76 -272 -336 -115 -493 61 -61 119 -85 210 -85 91
0 149 24 210 85 61 61 85 119 85 210 0 91 -24 149 -85 210 -80 80 -203 109
-305 73z m165 -218 c35 -36 34 -95 -3 -132 -60 -61 -162 -19 -162 66 0 89 101
130 165 66z"/>
</g>
</svg>
