<svg width="335" height="94" viewBox="0 0 335 94" fill="none" xmlns="http://www.w3.org/2000/svg">
<path d="M130.6 40.0304C129.103 41.8927 126.38 42.1852 124.523 40.6886C122.661 39.192 122.368 36.4744 123.864 34.6121C125.361 32.7555 128.079 32.4572 129.941 33.9538C131.803 35.4448 132.096 38.168 130.6 40.0304Z" fill="#756C66"/>
<path d="M132.299 51.9246V51.8965C132.304 49.1901 134.352 46.979 137.278 46.9846C139.073 46.9903 140.147 47.5923 141.03 48.4645L139.691 50.0005C138.96 49.3308 138.212 48.9201 137.261 48.9201C135.657 48.9145 134.493 50.248 134.493 51.8796V51.9077C134.487 53.5393 135.612 54.901 137.25 54.9067C138.336 54.9067 139.005 54.4734 139.754 53.7983L141.082 55.1486C140.097 56.1951 139.011 56.8421 137.171 56.8365C134.369 56.8308 132.293 54.6591 132.299 51.9246Z" fill="#756C66"/>
<path d="M142.769 47.1646L144.868 47.1702L144.857 50.9399L148.722 50.9511L148.733 47.1815L150.827 47.1871L150.804 56.7069L148.705 56.7013L148.717 52.881L144.851 52.8697L144.84 56.6957L142.747 56.69L142.769 47.1646Z" fill="#756C66"/>
<path d="M160.543 47.2096L153.363 47.1927L153.335 56.7182L160.588 56.7351L160.594 54.8727L155.423 54.856L155.428 52.8586L159.918 52.8698L159.924 51.0075L155.434 50.9962L155.44 49.0608L160.543 49.0776V47.2096Z" fill="#756C66"/>
<path d="M162.045 52.0033V51.9752C162.051 49.2689 164.099 47.0577 167.025 47.0634C168.82 47.069 169.894 47.671 170.778 48.5432L169.438 50.0792C168.707 49.4095 167.959 48.9988 167.008 48.9988C165.404 48.9932 164.245 50.3267 164.24 51.9583V51.9865C164.234 53.6181 165.359 54.9797 166.991 54.9854C168.077 54.9854 168.747 54.5521 169.5 53.877L170.828 55.2273C169.844 56.2738 168.758 56.9208 166.918 56.9152C164.11 56.9039 162.034 54.7378 162.045 52.0033Z" fill="#756C66"/>
<path d="M174.491 47.2491L172.392 47.2434L172.37 56.7633L174.462 56.7689L174.474 53.8601L175.577 52.7179L178.519 56.7802L181.034 56.7858L176.994 51.2944L180.882 47.266L178.35 47.2603L174.48 51.4125L174.491 47.2491Z" fill="#756C66"/>
<path fill-rule="evenodd" clip-rule="evenodd" d="M185.693 47.2772L189.581 47.2885C191.854 47.2941 193.221 48.6444 193.215 50.5911V50.6193C193.21 52.8249 191.494 53.9613 189.355 53.9558L187.764 53.9502L187.758 56.8083L185.665 56.8027L185.693 47.2772ZM189.435 52.0878C190.481 52.0935 191.094 51.4689 191.094 50.6531V50.6249C191.094 49.6853 190.447 49.1789 189.4 49.1789L187.78 49.1734L187.775 52.0822L189.435 52.0878Z" fill="#756C66"/>
<path fill-rule="evenodd" clip-rule="evenodd" d="M194.571 52.0597V52.0878C194.566 54.7998 196.67 56.9884 199.607 56.9997C202.544 57.0053 204.688 54.7942 204.693 52.0878V52.0597C204.699 49.3533 202.594 47.1535 199.658 47.1478C196.721 47.1422 194.577 49.3533 194.571 52.0597ZM202.504 52.0822V52.1104C202.499 53.742 201.329 55.0755 199.641 55.0642C197.953 55.0586 196.76 53.697 196.766 52.0653V52.0371C196.771 50.4055 197.942 49.072 199.63 49.0776C201.312 49.0833 202.51 50.4506 202.504 52.0822Z" fill="#756C66"/>
<path d="M206.75 47.3319L206.724 56.8574L208.817 56.863L208.843 47.3375L206.75 47.3319Z" fill="#756C66"/>
<path d="M213.403 47.3503L211.473 47.3447L211.445 56.8701L213.515 56.8758L213.532 50.8218L218.129 56.887L219.907 56.8927L219.935 47.3672L217.865 47.3616L217.848 53.2242L213.403 47.3503Z" fill="#756C66"/>
<path d="M224.678 49.3139L221.786 49.3026V47.3728L229.68 47.3897L229.674 49.3252L226.777 49.3195L226.76 56.9096L224.662 56.9039L224.678 49.3139Z" fill="#756C66"/>
<path d="M120.905 46.6245C122.131 47.3221 123.566 47.3334 124.764 46.782C124.857 47.1695 124.93 47.5627 124.983 47.9617C125.013 48.1838 125.036 48.4077 125.052 48.6336C125.072 48.9154 125.081 49.2003 125.08 49.4884C125.063 55.8631 119.881 61.0169 113.512 61C107.137 60.9831 101.983 55.8068 102 49.432C102.017 43.0574 107.193 37.9036 113.568 37.9205C115.965 37.9261 118.193 38.6632 120.033 39.9235C119.768 40.1823 119.532 40.4805 119.335 40.8181C118.339 42.5229 118.683 44.644 120.033 45.9662L116.663 50.4505C115.633 49.9216 114.395 50.0792 113.534 50.7994L110.766 48.7176L111.615 47.5867L108.482 45.2291L106.124 48.3631L109.258 50.7205L110.108 49.5896L112.842 51.649C112.763 51.7952 112.707 51.9415 112.657 52.0935L112.642 52.1425L112.623 52.2003C112.584 52.3466 112.55 52.4929 112.533 52.6448C112.53 52.6566 112.528 52.67 112.528 52.6841L112.527 52.7235C112.523 52.773 112.52 52.8224 112.519 52.8719C112.517 52.9518 112.518 53.0318 112.522 53.1117C112.522 53.1512 112.522 53.1906 112.527 53.2299C112.532 53.2925 112.539 53.3551 112.548 53.4178C112.561 53.4958 112.576 53.5738 112.595 53.6518C112.598 53.6793 112.608 53.7094 112.617 53.7385L112.628 53.7757C112.662 53.8882 112.702 54.0007 112.746 54.1076C112.763 54.147 112.775 54.1808 112.791 54.2145C112.83 54.298 112.872 54.3773 112.919 54.4547C112.948 54.5027 112.979 54.5499 113.011 54.5972C113.039 54.6365 113.073 54.6759 113.101 54.7153C113.168 54.8053 113.242 54.8898 113.32 54.9741C113.354 55.0135 113.394 55.0473 113.428 55.081C113.475 55.1262 113.523 55.1696 113.573 55.2111C113.62 55.2501 113.668 55.2876 113.719 55.3234C113.748 55.3444 113.779 55.3649 113.81 55.3848C115.126 56.2344 116.893 55.8575 117.743 54.5409C117.942 54.2289 118.074 53.892 118.141 53.549C118.185 53.329 118.202 53.1065 118.193 52.8867C118.165 52.2509 117.929 51.6321 117.507 51.1369L120.905 46.6245Z" fill="#756C66"/>
<path d="M231.667 48.712H231.43L231.436 47.6091H231.019V47.3954L232.089 47.401L232.083 47.6147L231.667 47.6091V48.712Z" fill="#756C66"/>
<path d="M233.084 48.3969H233.09L233.506 47.7723V48.7176H233.731L233.736 47.401H233.489L233.09 48.0256L232.69 47.401H232.442L232.437 48.7176H232.668L232.673 47.7779L233.084 48.3969Z" fill="#756C66"/>
</svg>
