<svg width="335" height="94" viewBox="0 0 335 94" fill="none" xmlns="http://www.w3.org/2000/svg">
<path d="M150.797 29.0234C151.615 29.0234 152.282 29.686 152.282 30.5029V46.2419C152.282 47.0635 151.615 47.7258 150.797 47.7258C149.98 47.7258 149.312 47.0635 149.312 46.2419V30.5029C149.312 29.686 149.98 29.0234 150.797 29.0234Z" fill="#756C66"/>
<path d="M183.413 29.0234C182.595 29.0234 181.928 29.686 181.928 30.5029V46.2419C181.928 47.0635 182.595 47.7258 183.413 47.7258C184.231 47.7258 184.898 47.0635 184.898 46.2419V30.5029C184.898 29.686 184.231 29.0234 183.413 29.0234Z" fill="#756C66"/>
<path d="M191.569 34.6098C190.752 34.6098 190.085 35.2732 190.085 36.0899V43.2851C190.085 44.1065 190.752 44.769 191.569 44.769C192.387 44.769 193.054 44.1065 193.054 43.2851V36.0899C193.054 35.2732 192.387 34.6098 191.569 34.6098Z" fill="#756C66"/>
<path d="M199.726 38.6945C198.908 38.6945 198.241 39.3567 198.241 40.1736V43.2851C198.241 44.1065 198.908 44.769 199.726 44.769C200.543 44.769 201.211 44.1065 201.211 43.2851V40.1736C201.211 39.3567 200.543 38.6945 199.726 38.6945Z" fill="#756C66"/>
<path d="M175.257 34.6097C176.075 34.6097 176.742 35.2732 176.742 36.0898V43.2851C176.742 44.1065 176.075 44.769 175.257 44.769C174.439 44.769 173.772 44.1065 173.772 43.2851V36.0898C173.772 35.2732 174.439 34.6097 175.257 34.6097Z" fill="#756C66"/>
<path d="M167.11 38.6945L167.105 38.6945L167.101 38.6945C166.284 38.6945 165.616 39.3567 165.616 40.1736V43.2851C165.616 44.1065 166.284 44.769 167.101 44.769L167.105 44.769L167.11 44.769C167.927 44.769 168.595 44.1065 168.595 43.2851V40.1736C168.595 39.3567 167.927 38.6945 167.11 38.6945Z" fill="#756C66"/>
<path d="M144.126 36.0899C144.126 35.2732 143.459 34.6098 142.641 34.6098C141.823 34.6098 141.156 35.2732 141.156 36.0899V43.2851C141.156 44.1065 141.823 44.769 142.641 44.769C143.459 44.769 144.126 44.1065 144.126 43.2851V36.0899Z" fill="#756C66"/>
<path d="M135.97 40.1736C135.97 39.3567 135.303 38.6945 134.485 38.6945C133.668 38.6945 133 39.3567 133 40.1736V43.2851C133 44.1065 133.668 44.769 134.485 44.769C135.303 44.769 135.97 44.1065 135.97 43.2851V40.1736Z" fill="#756C66"/>
<path d="M157.469 36.0898C157.469 35.2732 158.136 34.6097 158.954 34.6097C159.772 34.6097 160.439 35.2732 160.439 36.0898V43.2851C160.439 44.1065 159.772 44.769 158.954 44.769C158.136 44.769 157.469 44.1065 157.469 43.2851V36.0898Z" fill="#756C66"/>
<path d="M163.71 52.6975C165.166 52.6975 166.536 53.0509 166.625 53.0752V55.6053C166.581 55.5914 165.322 55.2437 164.287 55.2437C163.088 55.2437 162.437 55.6451 162.437 56.2151C162.437 56.9132 163.26 57.1715 163.759 57.3283L163.761 57.3288C163.777 57.3339 163.793 57.3388 163.808 57.3437L164.633 57.6065C166.574 58.2235 167.459 59.553 167.459 60.9971C167.459 63.9743 164.84 64.9745 162.552 64.9745C160.96 64.9745 159.471 64.682 159.324 64.6508V61.9233C159.349 61.9298 159.385 61.9393 159.429 61.951C159.833 62.0595 160.969 62.3638 162.148 62.3638C163.636 62.3638 164.32 61.929 164.32 61.2573C164.32 60.6567 163.728 60.3099 162.986 60.0766C162.894 60.046 162.778 60.0088 162.662 59.9716L162.661 59.9714C162.55 59.9358 162.439 59.9002 162.348 59.8703C160.682 59.3439 159.293 58.3653 159.293 56.403C159.293 54.1861 160.953 52.6975 163.71 52.6975Z" fill="#756C66"/>
<path fill-rule="evenodd" clip-rule="evenodd" d="M182.548 58.8361C182.548 55.4509 185.162 52.7013 188.808 52.7013C192.453 52.7013 195.071 55.4509 195.071 58.8361C195.071 62.2268 192.453 64.9745 188.808 64.9745C185.162 64.9745 182.548 62.2268 182.548 58.8361ZM188.808 61.9558C190.58 61.9558 191.901 60.5607 191.901 58.8361C191.901 57.1151 190.58 55.7193 188.808 55.7193C187.033 55.7193 185.716 57.1151 185.716 58.8361C185.716 60.5607 187.033 61.9558 188.808 61.9558Z" fill="#756C66"/>
<path d="M152.291 64.7635H155.282V52.9113H152.291V64.7635Z" fill="#756C66"/>
<path d="M148.122 53.1085C148.144 53.1152 148.163 53.1211 148.18 53.126V56.3076C148.177 56.3059 148.173 56.3039 148.169 56.3016C148.164 56.299 148.158 56.296 148.152 56.2926C147.951 56.1831 147.018 55.6748 145.667 55.6748C143.73 55.6748 142.389 57.021 142.389 58.8361C142.389 60.5976 143.675 62 145.667 62C147.051 62 148.019 61.4605 148.173 61.3749L148.18 61.371V64.5525C148.169 64.5556 148.158 64.5589 148.146 64.5623L148.11 64.5725C147.691 64.6931 146.713 64.9744 145.453 64.9744C142.091 64.9744 139.141 62.655 139.141 58.8361C139.141 55.2964 141.813 52.7013 145.453 52.7013C146.776 52.7013 147.774 53.0033 148.122 53.1085Z" fill="#756C66"/>
<path d="M179.36 53.1145L179.341 53.1085C178.993 53.0033 177.995 52.7013 176.672 52.7013C173.032 52.7013 170.36 55.2964 170.36 58.8361C170.36 62.655 173.31 64.9744 176.672 64.9744C177.931 64.9744 178.91 64.6931 179.329 64.5725C179.355 64.5653 179.378 64.5586 179.399 64.5525V61.371L179.392 61.3749C179.238 61.4606 178.27 62 176.886 62C174.894 62 173.608 60.5976 173.608 58.8361C173.608 57.021 174.949 55.6748 176.886 55.6748C178.237 55.6748 179.17 56.1831 179.371 56.2926C179.377 56.2957 179.382 56.2986 179.387 56.3011C179.392 56.3036 179.396 56.3058 179.399 56.3076V53.126C179.387 53.1226 179.375 53.1187 179.36 53.1145Z" fill="#756C66"/>
</svg>
