<?xml version="1.0" encoding="UTF-8"?>
<svg version="1.1" xmlns="http://www.w3.org/2000/svg" width="512" height="512">
<path d="M0 0 C1.07636719 0.37898437 2.15273438 0.75796875 3.26171875 1.1484375 C13.83201875 5.18166336 23.07197073 11.16814658 29 21 C29.52224309 21.82710417 29.52224309 21.82710417 30.05503654 22.67091751 C31.3630409 25.89479885 31.24549045 28.64766632 31.24050903 32.12469482 C31.24307231 33.20175387 31.24307231 33.20175387 31.24568737 34.30057168 C31.24898171 36.70666753 31.2379796 39.11248453 31.22705078 41.51855469 C31.22648665 43.24326063 31.22680325 44.96796706 31.22793579 46.69267273 C31.22851025 51.37621278 31.21674085 56.05965065 31.20278788 60.74316692 C31.19029605 65.63722403 31.18911124 70.53128341 31.18673706 75.425354 C31.18051774 84.69360206 31.1641008 93.961803 31.14403808 103.2300303 C31.12169315 113.78130628 31.11068919 124.33258449 31.10064721 134.88387823 C31.07973498 156.58927846 31.0445502 178.29463626 31 200 C32.24788551 199.99000725 32.24788551 199.99000725 33.52098083 199.97981262 C41.39128303 199.91950495 49.26150672 199.87392615 57.13198757 199.84456348 C61.17752949 199.82895995 65.22287921 199.80781987 69.26831055 199.77368164 C73.17813549 199.74089719 77.08777647 199.72310711 80.99772835 199.71536827 C82.48355057 199.70985879 83.96936361 199.69910073 85.45510674 199.68280983 C96.17130471 199.57006578 105.35343456 200.04515389 114 207 C121.0610628 213.95476723 124.81129841 220.71603426 125.11352539 230.78051758 C125.11336851 232.23519841 125.10780505 233.68988581 125.09765625 235.14453125 C125.09553383 236.2992115 125.09553383 236.2992115 125.09336853 237.47721863 C125.08779606 239.92235288 125.07524871 242.36739368 125.0625 244.8125 C125.05748144 246.47591013 125.05291915 248.1393217 125.04882812 249.80273438 C125.03783566 253.86852528 125.0205901 257.93424683 125 262 C125.94472168 262.30019043 126.88944336 262.60038086 127.86279297 262.90966797 C133.7901297 264.96970578 138.38751946 269.3447167 141.4375 274.8125 C144.35525879 281.52982913 144.71299542 288.77982949 142.85546875 295.8359375 C139.89419626 303.32701038 133.59909645 309.6249401 126.25 312.8125 C119.25489764 315.14420079 112.026251 314.69921277 105.16796875 312.1015625 C96.92054733 307.9109808 92.8422786 301.52683579 90 293 C89.1332197 284.46008263 90.24382075 276.82937332 95.61328125 269.92578125 C98.9968478 266.34715321 102.3710613 263.83004553 107 262 C107.66 262 108.32 262 109 262 C108.930767 257.42794448 108.84263233 252.85677271 108.73754883 248.28540039 C108.70445223 246.73276638 108.67637349 245.18001647 108.65356445 243.62719727 C108.61973476 241.3850806 108.56741013 239.14401153 108.51171875 236.90234375 C108.50213387 235.87378517 108.50213387 235.87378517 108.49235535 234.82444763 C108.30948096 228.72539371 107.00737883 223.90700989 102.5 219.625 C98.45611656 216.99647577 95.32966746 216.8577289 90.60083008 216.79467773 C89.95665634 216.78477814 89.3124826 216.77487854 88.64878845 216.76467896 C86.5224066 216.73312533 84.39600242 216.70833095 82.26953125 216.68359375 C80.79407678 216.66301891 79.31862814 216.6420223 77.84318542 216.62062073 C73.96180949 216.56545474 70.08038085 216.51602138 66.19891357 216.46777344 C62.23737909 216.41751842 58.27592106 216.36185324 54.31445312 216.30664062 C46.54303351 216.19912601 38.77155028 216.09766623 31 216 C31.02030273 217.17208008 31.04060547 218.34416016 31.06152344 219.55175781 C31.07794274 221.10220865 31.09386723 222.65266478 31.109375 224.203125 C31.12403809 224.97414551 31.13870117 225.74516602 31.15380859 226.53955078 C31.19823972 232.46158485 30.4353523 236.03782446 27 241 C26.46375 241.845625 25.9275 242.69125 25.375 243.5625 C2.22490422 267.32180882 -38.40278982 268.20827148 -69 270 C-68.67 279.9 -68.34 289.8 -68 300 C-64.7 301.65 -61.4 303.3 -58 305 C-50.78685135 310.77487732 -46.96470813 318.47817105 -45.625 327.53515625 C-45.19712882 335.97224103 -47.89823884 343.8598125 -53.25 350.375 C-59.89131153 357.28536253 -66.79324125 360.41445672 -76.3125 361.3125 C-85.73092154 360.51432868 -93.36545432 357.9437284 -100 351 C-106.59228353 341.85407401 -107.79727313 334.08209645 -107 323 C-105.17553275 315.38339877 -100.06507347 308.74559061 -93.6171875 304.390625 C-87.69311798 301 -87.69311798 301 -85 301 C-85 290.77 -85 280.54 -85 270 C-89.29 270 -93.58 270 -98 270 C-101.74466135 269.68058714 -105.40883671 269.31641987 -109.125 268.8125 C-110.59815674 268.61503174 -110.59815674 268.61503174 -112.10107422 268.41357422 C-133.67585578 265.32349974 -158.51035702 259.36258943 -173 242 C-176.59695326 236.15495096 -177.13095135 230.96418373 -177.0625 224.1875 C-177.05347656 223.02605469 -177.04445313 221.86460937 -177.03515625 220.66796875 C-177.02355469 219.78753906 -177.01195312 218.90710938 -177 218 C-185.63236774 218.03809713 -194.26425217 218.09751655 -202.89627266 218.18390274 C-206.90482304 218.22335435 -210.91315452 218.25555394 -214.921875 218.27099609 C-218.79305412 218.28617832 -222.66363136 218.32065058 -226.53454208 218.36830902 C-228.00880568 218.38310688 -229.48315521 218.3910401 -230.95749283 218.39188385 C-233.02846126 218.3942603 -235.09777535 218.42138889 -237.16845703 218.45410156 C-238.93384323 218.46742523 -238.93384323 218.46742523 -240.7348938 218.48101807 C-244.70219614 219.11161264 -246.87582813 220.51665798 -250 223 C-253.09057823 227.58612496 -253.46481777 231.85023753 -253.51171875 237.2421875 C-253.52966995 238.01055939 -253.54762115 238.77893127 -253.56611633 239.57058716 C-253.61994958 242.00533695 -253.65402692 244.4398938 -253.6875 246.875 C-253.72069705 248.53388086 -253.75518891 250.19273635 -253.79101562 251.8515625 C-253.87565991 255.90090182 -253.94259857 259.95018661 -254 264 C-252.82630859 264.21366211 -252.82630859 264.21366211 -251.62890625 264.43164062 C-246.43323832 265.55492396 -242.43558154 268.96126258 -239.41015625 273.2578125 C-234.92772533 281.13129986 -233.57560946 288.62610899 -236 297.5 C-238.57552941 304.37209015 -243.63335682 310.12289801 -250.125 313.5625 C-257.89262862 316.46026819 -266.87225354 316.40205443 -274.4375 313 C-281.5082811 308.8598716 -286.38367854 303.23394832 -288.5625 295.28125 C-290.30575655 286.19141229 -288.10422737 278.98893685 -283.25 271.1875 C-279.52913244 267.56998987 -275.33017722 264 -270 264 C-270.02094727 262.90123535 -270.04189453 261.8024707 -270.06347656 260.67041016 C-270.13646828 256.55173025 -270.18201239 252.43310623 -270.21972656 248.31396484 C-270.23970839 246.53912711 -270.26690355 244.76435406 -270.30175781 242.98974609 C-270.55269163 229.87476375 -270.24933138 219.68825877 -260.79296875 209.6875 C-254.52877774 203.79179081 -248.3904305 201.74227281 -239.89306641 201.77294922 C-239.20944031 201.77265717 -238.52581421 201.77236511 -237.82147217 201.77206421 C-235.58136923 201.7734479 -233.34160671 201.78896316 -231.1015625 201.8046875 C-229.54072247 201.80842106 -227.97988008 201.81126641 -226.41903687 201.81326294 C-222.3255152 201.82087242 -218.2321371 201.84049763 -214.13867188 201.8626709 C-209.95574892 201.88318737 -205.7728026 201.89227703 -201.58984375 201.90234375 C-193.39316353 201.92374625 -185.19659966 201.9578495 -177 202 C-177.00276538 201.12700791 -177.00553076 200.25401583 -177.00837994 199.35456944 C-177.07468164 178.09620601 -177.12430098 156.83786044 -177.15543652 135.57941532 C-177.17089428 125.2989181 -177.19196299 115.01848998 -177.22631836 104.73803711 C-177.25625406 95.77583486 -177.27558293 86.81368265 -177.28226548 77.85143179 C-177.28617067 73.10758259 -177.29532571 68.36387656 -177.31719017 63.62007332 C-177.33762122 59.15086778 -177.34382045 54.68186377 -177.33932304 50.21261597 C-177.34014529 48.5764144 -177.34607142 46.94020577 -177.35761642 45.30404472 C-177.43017078 34.48689147 -177.15196398 24.79721976 -170.02734375 16.03515625 C-131.59443341 -22.54585779 -46.62930336 -16.75981576 0 0 Z M-115 10 C-115.78584473 10.14985352 -116.57168945 10.29970703 -117.38134766 10.45410156 C-132.21781722 13.38837709 -150.01135687 17.7558568 -160 30 C-161.1490712 31.9254644 -161.1490712 31.9254644 -161 34 C-157.78517282 41.63521456 -150.46852028 45.70231282 -143.17578125 48.78125 C-120.72886522 57.39556464 -97.38309292 60.22567777 -73.4375 60.1875 C-72.38243759 60.18659363 -72.38243759 60.18659363 -71.30606079 60.18566895 C-44.86245888 60.12418353 -8.53250961 58.29232625 12.0625 39.375 C14.47611743 36.51900421 14.47611743 36.51900421 15 33 C11.55683452 24.82248199 3.48921783 20.81765585 -4.2265625 17.4453125 C-16.94033913 12.39630073 -30.48129113 9.77324719 -44 8 C-45.04667847 7.85643066 -45.04667847 7.85643066 -46.11450195 7.70996094 C-54.76703655 6.67599278 -63.48605941 6.75720572 -72.1875 6.75 C-73.03081879 6.74899292 -73.87413757 6.74798584 -74.74301147 6.74694824 C-88.35204176 6.75791949 -101.60449963 7.41437597 -115 10 Z M-161 57 C-161.09914961 62.58669908 -161.17160105 68.17288186 -161.21972656 73.76025391 C-161.23979629 75.65943325 -161.26705851 77.55855115 -161.30175781 79.45751953 C-161.35048109 82.19318839 -161.37301507 84.92803771 -161.390625 87.6640625 C-161.41127014 88.50804596 -161.43191528 89.35202942 -161.45318604 90.22158813 C-161.45523461 95.64861317 -160.59863565 98.68612305 -157 103 C-132.02190093 124.30998662 -86.85671235 124.61596866 -55.9609375 122.4375 C-19.27381578 119.46986814 -19.27381578 119.46986814 12 102 C15.59578092 97.39433072 15.39481389 93.3469722 15.29296875 87.76171875 C15.28872391 86.88095169 15.28447906 86.00018463 15.28010559 85.09272766 C15.26336644 82.2906689 15.2257233 79.48933991 15.1875 76.6875 C15.17244699 74.78321354 15.15875966 72.87891576 15.14648438 70.97460938 C15.11347854 66.31612678 15.06172929 61.65818695 15 57 C14.4836348 57.23607468 13.96726959 57.47214935 13.43525696 57.71537781 C-26.71694021 76.00356273 -75.78815505 79.37438856 -119 71 C-120.35375732 70.74259033 -120.35375732 70.74259033 -121.73486328 70.47998047 C-135.58617355 67.74684413 -148.39124948 63.36372877 -161 57 Z M-161 119 C-161.10161289 125.58352441 -161.1715547 132.16684577 -161.21972656 138.75097656 C-161.23981316 140.98966021 -161.2670878 143.22829158 -161.30175781 145.46679688 C-161.35040464 148.68893349 -161.37299874 151.91037501 -161.390625 155.1328125 C-161.41127014 156.12991241 -161.43191528 157.12701233 -161.45318604 158.15432739 C-161.45510112 164.11606463 -160.93306824 167.43910943 -157 172 C-141.99225666 185.56348352 -117.37135944 189.06959802 -98 191 C-97.02160156 191.11085938 -96.04320312 191.22171875 -95.03515625 191.3359375 C-61.82496386 194.56531232 -19.7120403 192.89169028 9 174 C11.99846294 171.27525567 14.87114792 168.16957412 15.12025452 163.97518921 C15.11803391 163.14468048 15.11581329 162.31417175 15.11352539 161.45849609 C15.11344986 160.51767181 15.11337433 159.57684753 15.11329651 158.60751343 C15.10813522 157.58976837 15.10297394 156.57202332 15.09765625 155.5234375 C15.0962413 154.48305328 15.09482635 153.44266907 15.09336853 152.37075806 C15.08775866 149.03880979 15.07520447 145.70692805 15.0625 142.375 C15.05748627 140.11979264 15.05292314 137.86458422 15.04882812 135.609375 C15.03778603 130.07289386 15.02103827 124.53645168 15 119 C12.28387362 120.07972206 9.58438899 121.17849289 6.8984375 122.33203125 C-18.39615168 132.96024555 -45.16714726 136.22831766 -72.4375 136.1875 C-73.55975479 136.18659363 -73.55975479 136.18659363 -74.7046814 136.18566895 C-101.75168762 136.12656162 -133.89658156 134.7557283 -157.46875 119.8828125 C-158.99419291 118.83351089 -158.99419291 118.83351089 -161 119 Z M-161 189 C-161.07428762 194.46261638 -161.12866714 199.92493716 -161.16479492 205.38793945 C-161.17985946 207.24541345 -161.20031509 209.10285201 -161.22631836 210.96020508 C-161.26280459 213.63371539 -161.2797497 216.30675444 -161.29296875 218.98046875 C-161.30845261 219.80773972 -161.32393646 220.63501068 -161.33988953 221.48735046 C-161.34150976 227.06775931 -160.34227836 230.27626488 -156.6328125 234.58984375 C-142.6546127 247.08331248 -121.02503668 250.64873139 -103 253 C-102.31309082 253.09571289 -101.62618164 253.19142578 -100.91845703 253.29003906 C-91.90936563 254.38074703 -82.81086477 254.24292128 -73.75 254.25 C-72.85771698 254.25100708 -71.96543396 254.25201416 -71.04611206 254.25305176 C-57.48943584 254.2427021 -44.32184364 253.71956497 -31 251 C-30.23268555 250.85014648 -29.46537109 250.70029297 -28.67480469 250.54589844 C-13.67798361 247.55668865 3.76634881 243.21435787 14 231 C15.3158809 227.0523573 15.12300273 223.28910644 15.09765625 219.17578125 C15.0962413 218.31438034 15.09482635 217.45297943 15.09336853 216.56547546 C15.0877714 213.81444831 15.07521946 211.06350256 15.0625 208.3125 C15.05748463 206.4472668 15.05292179 204.58203233 15.04882812 202.71679688 C15.03780292 198.14449989 15.02054027 193.57226375 15 189 C12.28387362 190.07972206 9.58438899 191.17849289 6.8984375 192.33203125 C-18.39615168 202.96024555 -45.16714726 206.22831766 -72.4375 206.1875 C-73.55975479 206.18659363 -73.55975479 206.18659363 -74.7046814 206.18566895 C-104.95049068 206.1195711 -133.43164998 201.87266656 -161 189 Z M-272 283 C-273.60729993 286.21459986 -273.61930855 289.52388103 -273 293 C-270.70800597 295.96050874 -270.70800597 295.96050874 -268 298 C-267.67 298.33 -267.34 298.66 -267 299 C-262.05104366 299.5032837 -259.91967337 299.53508269 -255.5625 297 C-252.7944699 293.7593794 -252.04692311 292.07513109 -251.828125 287.92578125 C-252.17434494 284.04654417 -254.14226963 281.8883636 -256.75 279.1875 C-263.24901139 275.75746621 -267.37166416 278.37166416 -272 283 Z M107 282 C105.22334738 284.93533911 104.98220646 286.5729551 105.125 290 C106.13469167 293.4618 107.53947415 295.39035137 110 298 C113.20613847 299.60306924 116.52139997 299.48740461 120 299 C123.39890142 296.93110348 125.88937011 294.88720463 127 291 C126.85998886 287.14969355 126.28363019 284.54362453 124.5 281.125 C121.40496646 278.49422149 119.25203386 278.03131579 115.25390625 277.80078125 C111.6059959 278.12321353 109.64187713 279.55143096 107 282 Z M-90 323 C-91.35698258 327.07094774 -91.52387231 330.74353744 -91 335 C-88.78799548 339.42400903 -86.53417522 341.99652723 -82 344 C-76.35409232 345.46375384 -73.05542166 344.90218651 -68 342 C-64.07847825 338.33422967 -62.21094155 335.30727734 -61.8671875 330.01953125 C-62.18765451 325.14654767 -64.04590306 321.88428497 -67.5625 318.625 C-75.9944996 313.00366693 -83.81356822 315.4567529 -90 323 Z " fill="#000000" transform="translate(329,136)"/>
<path d="M0 0 C1.18464844 0.0928125 2.36929688 0.185625 3.58984375 0.28125 C29.86543752 2.73821386 53.67786632 15.02622523 71 35 C76.14783617 41.65693351 80.63290104 48.81541784 85 56 C86.05316406 55.7834375 87.10632813 55.566875 88.19140625 55.34375 C115.18480723 50.03207411 140.62149991 54.56033818 164 69 C167.58255105 71.4350963 170.80293227 74.07964911 174 77 C174.50772949 77.46003418 175.01545898 77.92006836 175.53857422 78.39404297 C194.88629363 96.13375958 205.76834222 118.66800607 207 145 C207.58265625 145.14695313 208.1653125 145.29390625 208.765625 145.4453125 C220.40167665 148.62876059 230.01596639 153.97960036 239 162 C240.14082031 162.99966797 240.14082031 162.99966797 241.3046875 164.01953125 C256.6624788 178.3410702 264.61048546 198.32270037 266 219 C266.05414063 219.67160156 266.10828125 220.34320313 266.1640625 221.03515625 C266.99273634 240.58432559 259.34595835 259.64926189 246.625 274.1875 C232.1370396 289.62829422 214.5692709 299.71481489 193.07899475 301.2021637 C190.02125668 301.29388079 186.9692565 301.32942994 183.91015625 301.3359375 C182.80320908 301.3425943 181.6962619 301.3492511 180.55577087 301.35610962 C178.23731127 301.36616126 175.91882317 301.37092899 173.6003418 301.37060547 C170.04754077 301.37501858 166.49594456 301.41152684 162.94335938 301.44921875 C160.68229589 301.45508044 158.42122655 301.45905416 156.16015625 301.4609375 C155.09974625 301.47530853 154.03933624 301.48967957 152.9467926 301.50448608 C145.64630553 301.45889185 145.64630553 301.45889185 142.35717773 299.12353516 C140.75267793 296.6130226 140.1455232 294.98322552 140 292 C141.06399073 288.18736653 141.6251651 287.24988993 145 285 C147.1335144 284.74171448 147.1335144 284.74171448 149.63232422 284.72875977 C151.04056961 284.71347984 151.04056961 284.71347984 152.4772644 284.69789124 C153.49281403 284.69575119 154.50836365 284.69361115 155.5546875 284.69140625 C157.71875236 284.66621718 159.88281479 284.64081965 162.046875 284.61523438 C165.44758299 284.58666726 168.8482482 284.56264905 172.24902344 284.54370117 C194.73943607 284.39396255 213.90670547 282.40837158 231 266 C242.73283974 253.57328264 249.00340915 238.09025991 249.07470703 221.02490234 C248.54550001 206.68097077 243.66823215 194.31052221 235 183 C234.38253906 182.17113281 233.76507813 181.34226563 233.12890625 180.48828125 C223.91608091 169.72026338 211.04991283 164.60490421 197.75 160.9921875 C194.88437933 159.95828459 193.84738427 159.35576663 192 157 C191.44750977 154.64672852 191.44750977 154.64672852 191.19140625 151.87890625 C191.08658936 150.86666992 190.98177246 149.85443359 190.8737793 148.81152344 C190.77105713 147.7393457 190.66833496 146.66716797 190.5625 145.5625 C189.60427574 136.94801936 188.55077914 128.9862234 185 121 C184.59136719 120.03707031 184.18273437 119.07414062 183.76171875 118.08203125 C174.90711255 98.80143802 159.24004018 84.25012388 139.625 76.1875 C119.79982947 69.14278154 101.18430708 69.69494804 81.35546875 75.81640625 C77.65713382 76.10466784 76.01732373 75.14679038 73 73 C71.03586579 70.13744242 69.59931739 67.07414103 68.125 63.9375 C64.44980811 56.55245113 60.65248495 50.08088381 55 44 C54.43925781 43.37222656 53.87851562 42.74445312 53.30078125 42.09765625 C39.64508487 27.55067899 19.31254926 18.96392337 -0.4375 17.796875 C-24.04898322 17.48619759 -44.43907299 25.40063885 -61.6953125 41.609375 C-75.26103963 55.6809428 -83.27366887 74.67768487 -85.01953125 94.046875 C-86.36820891 96.73348388 -88.28826953 97.38316428 -91.02270508 98.40966797 C-94.12001322 99.33438597 -97.23858305 99.75202819 -100.4375 100.1875 C-116.15726902 102.8111464 -129.37389901 111.17893268 -139.1171875 123.7265625 C-145.40844236 133.09594206 -149.16119206 142.99324992 -151.03125 154.08984375 C-152.28871139 157.86729834 -153.90848509 159.51390676 -157 162 C-160.09375 163.265625 -160.09375 163.265625 -163.5 164.25 C-178.80137203 169.38253569 -189.62314084 179.8111784 -197.4609375 193.8046875 C-205.09981619 209.66408539 -205.98824518 226.4054645 -200.67578125 243.07617188 C-194.9855303 259.2752967 -183.2382674 271.05569869 -167.9921875 278.4609375 C-157.88369706 282.93349209 -148.43730713 284.28431338 -137.4453125 284.2734375 C-135.26301547 284.29370114 -133.08072382 284.31455138 -130.8984375 284.3359375 C-127.49474473 284.35863536 -124.09126534 284.3750575 -120.6875 284.38085938 C-117.37722405 284.39034985 -114.06788035 284.42405012 -110.7578125 284.4609375 C-109.22811325 284.45336929 -109.22811325 284.45336929 -107.66751099 284.44564819 C-100.62990043 284.54406429 -100.62990043 284.54406429 -97.36303711 286.90869141 C-95.90215133 289.15012926 -95.43231075 290.34310183 -95.4375 293 C-95.40462891 293.99 -95.40462891 293.99 -95.37109375 295 C-96.41184536 298.30971942 -98.0430378 299.20615402 -101 301 C-104.63245701 301.58938575 -108.22533742 301.53651543 -111.8984375 301.49609375 C-112.9655899 301.49754898 -114.03274231 301.49900421 -115.13223267 301.50050354 C-117.3933586 301.49884451 -119.65449583 301.48728287 -121.91552734 301.46655273 C-125.3283056 301.43789214 -128.73949982 301.44588657 -132.15234375 301.45898438 C-146.66757296 301.4460272 -160.84837276 301.07531631 -174.25 294.8125 C-174.90983887 294.51424316 -175.56967773 294.21598633 -176.24951172 293.90869141 C-182.39851304 291.01882524 -187.72871355 287.27549751 -193 283 C-194.5778125 281.824375 -194.5778125 281.824375 -196.1875 280.625 C-211.00081803 266.79923651 -220.14381594 247.33335738 -221.203125 227.125 C-221.63524071 204.32470342 -215.11195793 184.13673552 -199.296875 167.33984375 C-198.15992188 166.18162109 -198.15992188 166.18162109 -197 165 C-196.32453125 164.30003906 -195.6490625 163.60007813 -194.953125 162.87890625 C-187.78274995 155.96461602 -178.76916363 151.4066036 -169.62890625 147.59375 C-166.8309777 146.2546167 -166.8309777 146.2546167 -166.0390625 143.64453125 C-165.90242188 142.70996094 -165.76578125 141.77539062 -165.625 140.8125 C-161.94377554 123.03067891 -149.98173245 105.64376344 -135.05688477 95.49511719 C-124.35575067 88.49115914 -113.55701404 84.49114956 -101 82 C-100.5978125 80.22109375 -100.5978125 80.22109375 -100.1875 78.40625 C-93.89295697 51.90363552 -79.628513 30.13240989 -56.71875 14.8046875 C-40.11155718 4.78704596 -19.56531552 -1.6727598 0 0 Z " fill="#000000" transform="translate(234,15)"/>
<path d="M0 0 C3.67332971 3.72306532 5.75668353 6.54010118 6.625 11.75 C6 15 6 15 4.5 17.4375 C1.74408846 19.15994472 -0.45616663 19.92478364 -3.734375 19.78515625 C-7.92575162 18.33262746 -10.46871849 14.75583036 -13.40234375 11.5546875 C-20.74817058 4.33037059 -29.4691665 2.70189495 -39.38061523 2.68310547 C-49.14722466 2.85055078 -56.85683788 6.31868026 -64 13 C-67.89978344 17.35114726 -70.71150468 21.99166826 -73.04296875 27.3359375 C-74 29 -74 29 -77 31 C-80.96107524 31.4321173 -83.11352623 31.6531912 -86.375 29.25 C-88.37713898 26.47780756 -89.20480492 24.45671106 -88.72265625 21.02734375 C-84.51995246 7.72292644 -74.08864401 -3.0691768 -61.875 -9.4375 C-57.24906556 -11.57618233 -53.01185505 -13.09622286 -48 -14 C-47.36449219 -14.13277344 -46.72898438 -14.26554687 -46.07421875 -14.40234375 C-29.26838322 -17.21914104 -12.58456827 -10.94310284 0 0 Z " fill="#000000" transform="translate(266,66)"/>
<path d="M0 0 C2.6641484 1.84340831 3.0113913 3.04798154 3.7734375 6.2578125 C3.97195312 7.53398437 4.17046875 8.81015625 4.375 10.125 C6.07563886 19.63855378 9.17042637 26.34284072 16.765625 32.49609375 C22.04145654 36.04713421 27.4807699 38.01618009 33.8125 38.5 C36.83378542 38.75713067 38.23959185 39.11735111 41.0625 40.5 C43.55998118 43.72255637 43.55969146 45.89703463 43.56640625 49.87890625 C43 52 43 52 41.33984375 53.75 C35.82268196 56.69739862 28.71302248 55.58561583 22.796875 54.30859375 C16.06727898 52.24657651 10.59875431 49.21935108 5 45 C4.13375 44.4225 3.2675 43.845 2.375 43.25 C-6.1729434 35.15194836 -10.79310097 25.21803104 -12.4375 13.75 C-12.59569214 12.72108643 -12.59569214 12.72108643 -12.75708008 11.67138672 C-13.30074989 7.12321944 -12.83154967 4.60989033 -10 1 C-6.62152517 -1.56298091 -3.97719014 -1.10007387 0 0 Z " fill="#000000" transform="translate(61,226)"/>
<path d="M0 0 C2.9296875 0.98828125 2.9296875 0.98828125 5.875 2.3125 C9.43141749 3.88280872 12.94587872 5.36953343 16.625 6.625 C20 8 20 8 22 11 C22.61420709 15.03621805 22.34355123 16.52111041 19.9375 19.875 C16.17698337 22.59537373 14.59586024 22.39643328 10 22 C6.82230394 21.13530644 3.80373713 19.97650098 0.75 18.75 C-0.05179688 18.44964844 -0.85359375 18.14929688 -1.6796875 17.83984375 C-8.99822651 14.96382926 -8.99822651 14.96382926 -11 11 C-11.5 8.0625 -11.5 8.0625 -11 5 C-7.61153195 0.41560205 -5.57404342 -0.48499642 0 0 Z " fill="#000000" transform="translate(192,215)"/>
<path d="M0 0 C0.69802734 0.24814453 1.39605469 0.49628906 2.11523438 0.75195312 C6.15767786 2.26354236 9.08441187 3.68783139 11.8125 7.1875 C12.375 10.125 12.375 10.125 11.8125 13.1875 C9.75 16.0625 9.75 16.0625 6.8125 18.1875 C1.16066751 18.72279041 -3.13718987 17.50066337 -8.3125 15.5 C-9.00214844 15.25572266 -9.69179687 15.01144531 -10.40234375 14.75976562 C-14.97536849 13.03285858 -18.01778101 11.04945646 -21.1875 7.1875 C-21.75960224 3.68337381 -21.62790698 1.96345516 -19.875 -1.125 C-14.52683403 -6.47316597 -6.08400995 -2.30221221 0 0 Z " fill="#000000" transform="translate(202.1875,348.8125)"/>
<path d="M0 0 C2.37344913 0.83191776 4.69526592 1.74288638 7.02075195 2.70043945 C7.81803711 3.00916992 8.61532227 3.31790039 9.43676758 3.63598633 C16.22033205 6.34598895 16.22033205 6.34598895 18.70825195 9.38793945 C19.28507135 13.17846693 19.00410255 14.89485513 17.02075195 18.20043945 C14.3299688 20.74577487 13.35411038 21.10010852 9.70825195 21.38793945 C7.12437671 20.74126157 4.7606722 20.03659462 2.27075195 19.13793945 C1.6281543 18.92008789 0.98555664 18.70223633 0.32348633 18.4777832 C-4.50553825 16.80110665 -9.39700887 15.09931677 -13.22924805 11.63793945 C-14.82366503 8.26152702 -14.19558409 5.93872392 -13.29174805 2.38793945 C-10.70439758 -2.33017023 -4.52266973 -1.20787611 0 0 Z " fill="#000000" transform="translate(195.291748046875,281.612060546875)"/>
</svg>
