<?xml version="1.0" standalone="no"?>
<!DOCTYPE svg PUBLIC "-//W3C//DTD SVG 20010904//EN"
 "http://www.w3.org/TR/2001/REC-SVG-20010904/DTD/svg10.dtd">
<svg version="1.0" xmlns="http://www.w3.org/2000/svg"
 width="512.000000pt" height="512.000000pt" viewBox="0 0 512.000000 512.000000"
 preserveAspectRatio="xMidYMid meet">

<g transform="translate(0.000000,512.000000) scale(0.100000,-0.100000)"
fill="#000000" stroke="none">
<path d="M397 4859 c-105 -25 -204 -104 -253 -205 l-29 -59 -3 -1600 c-2
-1148 0 -1615 8 -1652 15 -69 77 -164 137 -207 26 -20 77 -45 112 -56 61 -19
90 -20 890 -20 l827 0 -40 -190 -40 -190 -35 0 c-127 0 -220 -93 -221 -218 0
-95 39 -158 125 -198 l50 -24 629 0 c442 0 640 3 667 11 89 27 149 110 149
209 0 127 -93 220 -220 220 l-36 0 -33 178 c-19 97 -36 183 -38 190 -4 9 165
12 825 12 800 0 832 1 893 20 77 24 151 78 196 144 67 98 64 -17 61 1761 l-3
1610 -34 63 c-43 79 -123 153 -199 184 l-57 23 -2145 2 c-1226 0 -2161 -3
-2183 -8z m4338 -165 c54 -29 94 -70 116 -119 18 -38 19 -102 19 -1407 l0
-1368 -2305 0 -2305 0 0 1368 c0 1354 1 1367 21 1412 34 75 83 115 159 131 19
4 985 6 2145 5 l2110 -1 40 -21z m135 -3170 c0 -64 -5 -134 -11 -155 -16 -50
-61 -105 -112 -132 l-42 -22 -2140 0 -2140 0 -42 22 c-51 27 -96 82 -112 132
-6 21 -11 91 -11 155 l0 116 2305 0 2305 0 0 -116z m-1948 -651 c20 -104 35
-189 33 -191 -1 -1 -179 -1 -396 0 l-395 3 40 188 39 187 322 0 321 0 36 -187z
m261 -354 c12 -7 25 -17 29 -23 15 -21 8 -63 -13 -82 -20 -18 -45 -19 -639
-19 -594 0 -619 1 -639 19 -21 19 -28 61 -13 82 21 32 48 33 650 34 436 0 609
-3 625 -11z"/>
<path d="M431 4551 c-11 -11 -23 -35 -26 -53 -3 -18 -4 -593 -3 -1276 l3
-1244 28 -24 28 -24 2107 0 c1713 1 2110 3 2124 14 10 7 22 25 28 40 15 40 14
2492 -1 2535 -6 17 -19 36 -29 41 -12 7 -772 10 -2129 10 -2077 0 -2111 0
-2130 -19z m4139 -1301 l0 -1170 -2005 0 -2005 0 0 1170 0 1170 2005 0 2005 0
0 -1170z"/>
<path d="M1016 4065 c-85 -30 -146 -120 -146 -215 0 -160 154 -269 304 -215
l40 14 66 -57 67 -56 -5 -61 c-8 -109 36 -187 133 -231 142 -67 299 26 321
189 9 63 37 70 102 25 39 -27 58 -33 112 -36 43 -3 78 1 101 11 l35 14 61 -53
61 -54 -5 -60 c-13 -138 87 -249 225 -250 195 -1 301 223 175 370 -65 76 -147
102 -238 76 l-56 -17 -37 29 c-71 57 -77 68 -77 146 -1 77 -16 118 -64 169
-76 82 -207 94 -299 27 -43 -31 -92 -117 -92 -162 0 -22 -7 -31 -32 -41 -30
-12 -36 -11 -81 17 -60 37 -143 46 -201 22 l-38 -16 -68 60 -68 60 9 40 c17
74 -20 169 -84 220 -63 49 -144 63 -221 35z m137 -167 c34 -40 13 -109 -38
-122 -35 -9 -83 18 -91 51 -21 81 75 134 129 71z m927 -198 c26 -26 25 -64 -1
-101 -37 -52 -112 -30 -125 38 -13 65 78 111 126 63z m-470 -190 c61 -61 11
-159 -67 -129 -85 32 -63 145 30 148 9 1 26 -8 37 -19z m930 -200 c44 -44 9
-130 -52 -130 -34 0 -78 40 -78 70 0 12 10 35 23 50 27 36 77 40 107 10z"/>
<path d="M3076 3969 c-53 -41 -26 -121 46 -134 18 -3 282 -5 585 -3 l552 3 22
22 c32 31 30 80 -5 110 l-27 23 -573 0 c-565 0 -574 0 -600 -21z"/>
<path d="M3076 3529 c-32 -25 -35 -75 -7 -110 19 -23 24 -24 170 -24 139 0
152 2 171 21 32 31 30 82 -4 111 -26 22 -35 23 -165 23 -125 0 -141 -2 -165
-21z"/>
<path d="M3643 3540 c-70 -28 -50 -130 29 -145 18 -4 158 -5 310 -3 270 3 278
4 299 25 32 31 30 80 -5 110 l-27 23 -292 -1 c-161 0 -302 -4 -314 -9z"/>
<path d="M1065 3479 c-45 -26 -45 -21 -45 -470 l0 -426 -71 -5 c-82 -6 -110
-25 -111 -78 -1 -25 6 -39 26 -57 l27 -23 911 2 910 3 19 24 c25 31 24 64 -5
97 -20 24 -32 28 -90 32 l-66 4 0 113 c0 119 -11 169 -40 185 -32 17 -70 11
-95 -15 -24 -23 -25 -29 -25 -155 l0 -130 -155 0 -155 0 0 330 c0 317 -1 331
-20 350 -28 28 -75 26 -105 -5 l-25 -24 0 -326 0 -325 -155 0 -155 0 0 233 c0
253 0 254 -57 271 -26 8 -78 -16 -87 -39 -3 -9 -6 -118 -6 -241 l0 -224 -160
0 -160 0 0 429 c0 394 -1 430 -17 449 -22 26 -62 35 -88 21z"/>
<path d="M3076 3079 c-32 -25 -35 -75 -7 -110 18 -23 24 -24 154 -24 119 0
137 2 156 19 32 29 29 88 -5 115 -24 19 -40 21 -149 21 -109 0 -125 -2 -149
-21z"/>
<path d="M3516 3079 c-32 -25 -35 -75 -7 -110 19 -23 24 -24 169 -24 133 0
152 2 171 19 32 29 29 88 -5 115 -24 19 -40 21 -164 21 -124 0 -140 -2 -164
-21z"/>
<path d="M3990 3087 c-52 -26 -52 -105 1 -133 25 -12 56 -15 150 -12 106 3
121 5 140 25 32 31 30 80 -5 110 -25 21 -36 23 -144 23 -74 0 -126 -5 -142
-13z"/>
<path d="M3100 2653 c-51 -19 -66 -81 -31 -124 l19 -24 433 -3 c298 -2 442 1
460 8 42 18 62 77 36 111 -29 38 -46 39 -479 38 -233 0 -430 -3 -438 -6z"/>
<path d="M2475 1601 c-167 -77 -144 -320 34 -367 162 -42 301 121 232 271 -46
100 -165 143 -266 96z m119 -153 c20 -28 20 -33 0 -52 -41 -41 -101 2 -69 50
19 30 49 31 69 2z"/>
</g>
</svg>
