<?xml version="1.0" encoding="utf-8"?>
<!-- Generator: Adobe Illustrator 24.1.0, SVG Export Plug-In . SVG Version: 6.00 Build 0)  -->
<svg width="335" height="94" version="1.1" id="Layer_1" xmlns="http://www.w3.org/2000/svg" xmlns:xlink="http://www.w3.org/1999/xlink" x="0px" y="0px"
	 viewBox="0 0 335 95" style="enable-background:new 0 0 335 95;" xml:space="preserve">
<style type="text/css">
	.st0{fill:#756C66;}
	.st1{fill:none;stroke:#606060;stroke-miterlimit:10;}
</style>
<g>
	<path class="st0" d="M141,55.36c-0.72,0-1.4,0-2.09,0c-0.82,0-0.82,0-0.82-0.81c0-2.08,0-4.16-0.02-6.24
		c0-0.33-0.06-0.66-0.16-0.98c-0.38-1.27-1.56-1.94-2.94-1.7c-1.6,0.28-2.47,1.34-2.47,3.06c-0.01,2.09,0,4.18,0,6.27
		c0,0.12,0,0.24,0,0.38c-0.97,0-1.91,0-2.88,0c0-4.05,0-8.09,0-12.16c0.94,0,1.88,0,2.85,0c0,0.34,0,0.69,0,1.13
		c1.12-1.2,2.47-1.55,3.96-1.45c1.51,0.1,2.77,0.72,3.59,1.82c0.3-0.23,0.59-0.46,0.88-0.69c0.86-0.72,1.88-1.04,2.97-1.12
		c1.2-0.1,2.35,0.06,3.4,0.7c1.36,0.84,2.13,2.08,2.18,3.65c0.08,2.66,0.03,5.32,0.03,7.98c0,0.04-0.01,0.08-0.02,0.14
		c-0.94,0-1.88,0-2.87,0c0-0.12,0-0.24,0-0.35c0-2.1,0-4.2,0-6.3c0-0.34-0.02-0.69-0.09-1.02c-0.34-1.67-1.61-2.23-3.01-2.03
		c-1.54,0.22-2.46,1.3-2.47,2.86c-0.01,2.15-0.01,4.3-0.01,6.45C141,55.06,141,55.18,141,55.36z"/>
	<path class="st0" d="M103.62,55.34c-0.96,0-1.89,0-2.87,0c0-0.42,0-0.82,0-1.29c-0.12,0.1-0.18,0.15-0.23,0.2
		c-1.01,1.17-2.34,1.49-3.82,1.39c-2.94-0.19-5.13-2.34-5.6-5.19c-0.45-2.72,0.58-5.44,2.95-6.8c1.6-0.92,3.31-1.11,5.05-0.43
		c0.58,0.23,1.08,0.64,1.63,0.97c0-1.53,0-3.1,0-4.7c0.99,0,1.93,0,2.88,0C103.62,44.78,103.62,50.04,103.62,55.34z M100.91,49.17
		c-0.02-0.21-0.03-0.5-0.09-0.78c-0.27-1.3-0.98-2.25-2.27-2.64c-1.31-0.39-2.55-0.19-3.54,0.81c-0.9,0.91-1.13,2.05-0.97,3.28
		c0.35,2.82,3.1,3.68,5.04,2.7C100.39,51.86,100.86,50.67,100.91,49.17z"/>
	<path class="st0" d="M195.66,54.11c0,0.41,0,0.8,0,1.22c-0.96,0-1.91,0-2.87,0c0-5.28,0-10.54,0-15.83c0.96,0,1.9,0,2.87,0
		c0,1.58,0,3.15,0,4.78c0.1-0.08,0.15-0.11,0.2-0.15c1.16-1.09,2.57-1.41,4.11-1.24c3.18,0.35,5.2,2.94,5.38,5.8
		c0.13,1.92-0.33,3.66-1.68,5.07c-1.64,1.72-3.67,2.26-5.98,1.67c-0.71-0.18-1.3-0.58-1.79-1.13c-0.05-0.06-0.11-0.12-0.17-0.17
		C195.72,54.12,195.71,54.12,195.66,54.11z M202.41,49.22c-0.03-0.24-0.03-0.53-0.09-0.82c-0.27-1.31-0.98-2.27-2.29-2.66
		c-1.31-0.39-2.55-0.18-3.54,0.83c-0.9,0.92-1.12,2.07-0.96,3.32c0.36,2.67,2.91,3.59,4.85,2.73
		C201.83,51.99,202.35,50.76,202.41,49.22z"/>
	<path class="st0" d="M226.38,55.25c5.88-4,11.76-8.01,17.68-12.04c0.01,0.16,0.02,0.26,0.02,0.37c0,3.79,0,7.57,0,11.36
		c0,0.4,0,0.4-0.39,0.4c-5.66,0-11.32,0-16.98,0c-0.1,0-0.2,0-0.3,0C226.39,55.3,226.39,55.27,226.38,55.25z"/>
	<path class="st0" d="M187.24,54.07c-0.1,0.09-0.15,0.12-0.18,0.16c-1.03,1.19-2.37,1.5-3.87,1.41c-2.8-0.17-5.28-2.26-5.62-5.57
		c-0.26-2.47,0.47-4.61,2.54-6.12c1.5-1.1,3.2-1.36,5-0.93c0.72,0.17,1.33,0.55,1.84,1.09c0.07,0.08,0.14,0.17,0.21,0.25
		c0.03-0.01,0.05-0.02,0.08-0.03c0-0.38,0-0.77,0-1.17c0.99,0,1.93,0,2.91,0c0,0.12,0,0.23,0,0.33c0,3.83,0,7.65,0.01,11.48
		c0,0.32-0.09,0.39-0.39,0.38c-0.74-0.02-1.49-0.01-2.24,0c-0.21,0-0.29-0.06-0.28-0.27C187.25,54.77,187.24,54.45,187.24,54.07z
		 M187.41,49.22c-0.02-0.21-0.03-0.47-0.08-0.73c-0.24-1.32-0.93-2.32-2.25-2.73c-1.33-0.41-2.59-0.21-3.59,0.81
		c-0.92,0.94-1.13,2.12-0.95,3.38c0.41,2.74,3.1,3.53,4.96,2.62C186.86,51.9,187.35,50.7,187.41,49.22z"/>
	<path class="st0" d="M216.23,44.33c0-0.38,0-0.76,0-1.16c0.96,0,1.9,0,2.86,0c0,4.05,0,8.1,0,12.16c-0.95,0-1.89,0-2.86,0
		c0-0.42,0-0.81,0-1.27c-0.09,0.07-0.13,0.1-0.17,0.14c-1.03,1.2-2.38,1.52-3.89,1.43c-2.74-0.17-5.11-2.16-5.59-5.3
		c-0.43-2.79,0.75-5.58,3.25-6.85c1.35-0.69,2.78-0.84,4.25-0.47c0.75,0.18,1.39,0.58,1.91,1.16c0.06,0.06,0.1,0.15,0.15,0.22
		C216.17,44.38,216.2,44.35,216.23,44.33z M212.91,45.57c-1.5,0.01-2.71,0.84-3.2,2.21c-0.29,0.79-0.33,1.61-0.14,2.43
		c0.32,1.35,1.11,2.29,2.5,2.6c1.37,0.31,2.59,0,3.51-1.11c0.71-0.86,0.87-1.89,0.78-2.97C216.2,46.89,214.76,45.56,212.91,45.57z"
		/>
	<path class="st0" d="M160.75,44.37c0-0.43,0-0.8,0-1.22c0.3,0,0.57,0,0.83,0c0.58,0,1.17,0.01,1.75-0.01
		c0.26-0.01,0.32,0.08,0.32,0.32c-0.01,2.33,0,4.66,0,6.99c0,1.52-0.01,3.03,0.01,4.55c0,0.27-0.06,0.37-0.35,0.36
		c-0.75-0.02-1.51-0.02-2.27,0c-0.23,0-0.3-0.07-0.29-0.29c0.02-0.31,0-0.62,0-0.99c-0.09,0.08-0.14,0.11-0.17,0.15
		c-1.03,1.19-2.37,1.51-3.87,1.41c-2.81-0.17-5.25-2.25-5.62-5.5c-0.28-2.5,0.44-4.67,2.55-6.2c1.62-1.16,3.43-1.41,5.34-0.8
		c0.33,0.11,0.64,0.29,0.93,0.49C160.19,43.84,160.43,44.09,160.75,44.37z M157.46,45.57c-1.47-0.01-2.69,0.81-3.2,2.17
		c-0.28,0.75-0.34,1.53-0.19,2.31c0.23,1.24,0.87,2.18,2.09,2.63c1.25,0.46,2.45,0.33,3.5-0.52c1.01-0.82,1.31-1.96,1.26-3.21
		C160.82,46.98,159.39,45.58,157.46,45.57z"/>
	<path class="st0" d="M169.17,47.67c0.36,0,0.68,0.02,0.98-0.01c0.11-0.01,0.23-0.11,0.31-0.2c1.18-1.35,2.36-2.69,3.52-4.05
		c0.17-0.19,0.34-0.27,0.59-0.27c1.08,0.01,2.15,0.01,3.31,0.01c-1.73,1.94-3.42,3.83-5.13,5.75c1.71,2.13,3.41,4.26,5.15,6.43
		c-0.16,0.01-0.26,0.02-0.36,0.02c-1,0-1.99-0.01-2.99,0.01c-0.23,0-0.37-0.07-0.51-0.25c-1.17-1.49-2.36-2.98-3.53-4.48
		c-0.19-0.24-0.38-0.33-0.68-0.32c-0.66,0.02-0.66,0.01-0.66,0.67c0,1.34,0,2.67,0,4.01c0,0.11,0,0.22,0,0.34c-0.97,0-1.91,0-2.88,0
		c0-5.28,0-10.55,0-15.83c0.96,0,1.9,0,2.87,0C169.17,42.22,169.17,44.92,169.17,47.67z"/>
	<path class="st0" d="M111.84,42.83c3.03,0.03,5.55,1.85,6.31,4.6c1.08,3.91-1.32,7.63-5.35,8.16c-2.72,0.35-5.03-0.5-6.55-2.87
		c-2.37-3.69-0.48-9.15,4.66-9.81C111.22,42.86,111.53,42.85,111.84,42.83z M111.81,45.57c-2.11,0.02-3.6,1.57-3.58,3.72
		c0.02,2.15,1.54,3.65,3.69,3.63c2.02-0.02,3.53-1.61,3.52-3.69C115.43,47.12,113.87,45.55,111.81,45.57z"/>
	<path class="st0" d="M123,55.34c-0.97,0-1.92,0-2.87,0c0-4.06,0-8.1,0-12.16c0.94,0,1.88,0,2.85,0c0,0.31,0,0.62,0,1.01
		c1.55-1.51,3.33-1.55,5.26-1.07c-0.23,0.97-0.46,1.9-0.67,2.77c-0.62-0.1-1.21-0.25-1.8-0.27c-1.5-0.04-2.59,0.95-2.72,2.45
		c-0.06,0.64-0.05,1.28-0.05,1.93c-0.01,1.66,0,3.31,0,4.97C123,55.08,123,55.2,123,55.34z"/>
	<path class="st0" d="M223.83,55.06c3.41-3.95,6.83-7.9,10.27-11.88c0.91,1.04,1.79,2.06,2.71,3.12c-4.32,2.94-8.63,5.87-12.94,8.8
		C223.86,55.08,223.84,55.07,223.83,55.06z"/>
	<path class="st0" d="M223.56,53.04c0-3.32,0-6.54,0-9.84c1.8,1.22,3.56,2.42,5.36,3.64C227.14,48.9,225.38,50.93,223.56,53.04z"/>
</g>
</svg>
