<?xml version="1.0" encoding="utf-8"?>
<!-- Generator: Adobe Illustrator 24.1.0, SVG Export Plug-In . SVG Version: 6.00 Build 0)  -->
<svg width="335" height="94" version="1.1" id="Layer_1" xmlns="http://www.w3.org/2000/svg" xmlns:xlink="http://www.w3.org/1999/xlink" x="0px" y="0px"
	 viewBox="0 0 335 95" style="enable-background:new 0 0 335 95;" xml:space="preserve">
<style type="text/css">
	.st0{fill:#756C66;}
	.st1{fill:none;stroke:#606060;stroke-miterlimit:10;}
</style>
<g>
	<path class="st0" d="M189.69,65.92c-14.76,0-29.51,0-44.28,0c0-14.76,0-29.51,0-44.28c14.75,0,29.5,0,44.28,0
		C189.69,36.38,189.69,51.13,189.69,65.92z M175.31,47.93c0,4.82,0,9.6,0,14.4c3.62,0,7.21,0,10.82,0c0-1.02,0-2.03,0-3.06
		c-2.22,0-4.41,0-6.61,0c0-0.92,0-1.82,0-2.74c2.22,0,4.41,0,6.61,0c0-0.94,0-1.86,0-2.8c-2.22,0-4.41,0-6.61,0
		c0-0.92,0-1.82,0-2.74c2.22,0,4.41,0,6.61,0c0-1.03,0-2.04,0-3.05C182.51,47.93,178.92,47.93,175.31,47.93z M153.13,51
		c0.13,0,0.24,0,0.35,0c2.01,0,4.02,0,6.02,0c0.22,0,0.3-0.06,0.3-0.29c-0.01-0.85,0-1.7-0.01-2.54c0-0.08-0.01-0.16-0.02-0.23
		c-3.63,0-7.23,0-10.82,0c0,4.81,0,9.59,0,14.39c3.62,0,7.21,0,10.83,0c0-0.11,0.01-0.2,0.01-0.29c0-0.82-0.01-1.64,0.01-2.46
		c0-0.25-0.06-0.32-0.32-0.32c-2.01,0.01-4.02,0.01-6.02,0.01c-0.11,0-0.21,0-0.32,0c0-0.93,0-1.82,0-2.74c2.22,0,4.42,0,6.63,0
		c0-0.94,0-1.86,0-2.8c-2.22,0-4.43,0-6.64,0C153.13,52.81,153.13,51.93,153.13,51z M174.77,62.36c-0.03-0.11-0.05-0.18-0.07-0.25
		c-1.7-4.66-3.41-9.32-5.11-13.99c-0.06-0.18-0.16-0.23-0.34-0.23c-1.11,0.01-2.23,0.01-3.34,0c-0.26,0-0.36,0.09-0.44,0.32
		c-1.68,4.62-3.37,9.24-5.06,13.86c-0.03,0.09-0.05,0.18-0.08,0.28c0.07,0.01,0.09,0.03,0.12,0.03c1.3,0,2.59,0,3.89,0.01
		c0.17,0,0.21-0.1,0.26-0.22c0.31-0.86,0.64-1.73,0.94-2.59c0.07-0.19,0.16-0.24,0.35-0.24c0.54,0.01,1.08,0,1.62,0
		c0.66,0,1.31,0,1.97,0c0.34,0.94,0.68,1.86,1.01,2.79c0.07,0.19,0.16,0.27,0.37,0.26c1.2-0.01,2.41,0,3.61-0.01
		C174.55,62.37,174.64,62.36,174.77,62.36z"/>
	<path class="st0" d="M174.11,70.23c0.49,0,0.97-0.04,1.45,0.01c0.47,0.05,0.7,0.33,0.73,0.75c0.04,0.48-0.14,0.78-0.59,0.96
		c-0.04,0.02-0.08,0.03-0.14,0.06c0.3,0.49,0.58,0.96,0.9,1.49c-0.26,0-0.49,0.01-0.72-0.01c-0.06-0.01-0.12-0.12-0.17-0.2
		c-0.24-0.42-0.48-0.85-0.79-1.26c0,0.48,0,0.96,0,1.46c-0.24,0-0.45,0-0.67,0C174.11,72.39,174.11,71.31,174.11,70.23z
		 M174.82,70.72c0,0.31,0,0.59,0,0.88c0.28-0.02,0.58,0.07,0.74-0.21c0.06-0.12,0.06-0.34-0.01-0.46
		C175.38,70.66,175.09,70.71,174.82,70.72z"/>
	<path class="st0" d="M163.74,70.2c0.22,0,0.42,0,0.65,0c0,0.48,0,0.95,0,1.41c0.02,0.01,0.04,0.02,0.06,0.03
		c0.06-0.07,0.12-0.14,0.18-0.21c0.23-0.31,0.48-0.62,0.69-0.95c0.15-0.24,0.34-0.33,0.61-0.29c0.1,0.01,0.21,0,0.38,0
		c-0.34,0.44-0.62,0.83-0.94,1.18c-0.2,0.23-0.22,0.4-0.03,0.65c0.35,0.46,0.66,0.95,1.01,1.47c-0.26,0-0.48,0.02-0.69-0.01
		c-0.08-0.01-0.17-0.09-0.22-0.17c-0.28-0.42-0.55-0.84-0.82-1.26c-0.05-0.08-0.11-0.16-0.22-0.21c0,0.54,0,1.08,0,1.63
		c-0.24,0-0.44,0-0.66,0C163.74,72.39,163.74,71.3,163.74,70.2z"/>
	<path class="st0" d="M183.91,71.71c0.11-0.12,0.16-0.17,0.2-0.23c0.25-0.34,0.51-0.67,0.74-1.02c0.14-0.2,0.29-0.31,0.54-0.27
		c0.12,0.02,0.25,0,0.44,0c-0.36,0.46-0.68,0.89-1.02,1.29c-0.14,0.17-0.13,0.28-0.01,0.44c0.36,0.5,0.7,1.02,1.08,1.57
		c-0.27,0-0.48,0.01-0.69-0.01c-0.08-0.01-0.17-0.09-0.22-0.16c-0.3-0.45-0.58-0.9-0.88-1.35c-0.04-0.06-0.08-0.11-0.17-0.23
		c0,0.62,0,1.17,0,1.74c-0.24,0-0.44,0-0.66,0c0-1.09,0-2.18,0-3.28c0.22,0,0.42,0,0.66,0C183.91,70.68,183.91,71.15,183.91,71.71z"
		/>
	<path class="st0" d="M150.76,71.47c0,0.21,0,0.37,0,0.57c-0.41,0-0.81,0-1.25,0c0,0.28-0.01,0.53,0.01,0.77
		c0,0.05,0.14,0.12,0.21,0.13c0.33,0.01,0.67,0.01,1.02,0.01c0,0.2,0,0.36,0,0.54c-0.64,0-1.26,0-1.9,0c0-1.09,0-2.17,0-3.28
		c0.63,0,1.25,0,1.9,0c0,0.17,0,0.35,0,0.55c-0.4,0-0.8,0-1.22,0c0,0.25,0,0.47,0,0.71C149.94,71.47,150.34,71.47,150.76,71.47z"/>
	<path class="st0" d="M160.55,71.47c0,0.21,0,0.37,0,0.58c-0.41,0-0.82,0-1.23,0c0,0.31,0,0.58,0,0.87c0.41,0,0.8,0,1.22,0
		c0,0.2,0,0.36,0,0.55c-0.61,0-1.23,0-1.88,0c0-1.08,0-2.16,0-3.27c0.62,0,1.25,0,1.89,0c0,0.17,0,0.34,0,0.55c-0.4,0-0.81,0-1.23,0
		c0,0.25,0,0.46,0,0.72C159.73,71.47,160.13,71.47,160.55,71.47z"/>
	<path class="st0" d="M170.38,73.49c-0.25,0-0.45,0-0.68,0c0-0.91,0-1.8,0-2.72c-0.29,0-0.54,0-0.8,0c0-0.19,0-0.36,0-0.55
		c0.75,0,1.5,0,2.28,0c0,0.17,0,0.34,0,0.54c-0.25,0-0.5,0-0.79,0C170.38,71.67,170.38,72.56,170.38,73.49z"/>
	<path class="st0" d="M153.94,70.2c0.22,0,0.42,0,0.65,0c0,0.91,0,1.8,0,2.73c0.39,0,0.75,0,1.13,0c0,0.2,0,0.36,0,0.55
		c-0.58,0-1.17,0-1.78,0C153.94,72.39,153.94,71.3,153.94,70.2z"/>
	<path class="st0" d="M179.37,70.2c0.21,0,0.42,0,0.64,0c0,1.09,0,2.18,0,3.28c-0.21,0-0.42,0-0.64,0
		C179.37,72.39,179.37,71.3,179.37,70.2z"/>
	<path class="st0" d="M180.02,69.48c-0.1,0.08-0.2,0.2-0.31,0.22c-0.18,0.03-0.32-0.1-0.29-0.27c0.02-0.11,0.16-0.27,0.25-0.27
		c0.11-0.01,0.23,0.12,0.34,0.2C180.02,69.4,180.02,69.44,180.02,69.48z"/>
	<path class="st0" d="M166.2,56.47c0.47-1.15,0.92-2.27,1.41-3.46c0.43,1.18,0.85,2.31,1.27,3.46
		C167.99,56.47,167.12,56.47,166.2,56.47z"/>
</g>
</svg>
