<?xml version="1.0" encoding="utf-8"?>
<!-- Generator: Adobe Illustrator 24.1.0, SVG Export Plug-In . SVG Version: 6.00 Build 0)  -->
<svg width="335" height="94" version="1.1" id="Layer_1" xmlns="http://www.w3.org/2000/svg" xmlns:xlink="http://www.w3.org/1999/xlink" x="0px" y="0px"
	 viewBox="0 0 335 95" style="enable-background:new 0 0 335 95;" xml:space="preserve">
<style type="text/css">
	.st0{fill:#756C66;}
	.st1{fill:none;stroke:#606060;stroke-miterlimit:10;}
</style>
<g>
	<path class="st0" d="M199.36,49.93c0-0.06,0-0.13,0-0.19c0-2.23,0-4.45,0-6.68c0-1.85,0.02-3.69,0.02-5.54
		c0-0.14,0.03-0.19,0.18-0.19c1.91,0,3.83,0,5.74,0c0.13,0,0.18,0.03,0.18,0.18c0,6.64,0,13.27,0.01,19.91
		c0,0.15-0.04,0.19-0.19,0.19c-3.15,0-6.3,0-9.44,0c-0.13,0-0.2-0.04-0.23-0.17c-0.2-0.69-0.4-1.38-0.6-2.08
		c-0.57-1.93-1.13-3.86-1.7-5.79c-0.44-1.48-0.9-2.95-1.35-4.42c-0.02-0.05-0.04-0.1-0.09-0.15c0,0.06-0.01,0.12-0.01,0.18
		c0,2.15,0,4.29-0.01,6.44c0,1.94-0.02,3.87-0.02,5.81c0,0.13-0.03,0.17-0.17,0.17c-1.91,0-3.82,0-5.72,0
		c-0.15,0-0.18-0.05-0.18-0.19c0-6.06,0-12.13,0-18.19c0-0.58,0-1.15,0-1.73c0-0.14,0.04-0.17,0.17-0.17c3.13,0,6.27,0,9.4,0
		c0.16,0,0.19,0.08,0.22,0.2c0.92,3.05,1.83,6.1,2.75,9.15c0.31,1.03,0.62,2.06,0.93,3.09c0.02,0.06,0.04,0.12,0.06,0.17
		C199.33,49.93,199.35,49.93,199.36,49.93z"/>
	<path class="st0" d="M147.67,37.28c-0.08,0.26-0.15,0.5-0.22,0.75c-0.16,0.54-0.31,1.09-0.47,1.63c-0.34,1.1-0.69,2.2-1.03,3.31
		c-0.03,0.11-0.1,0.1-0.18,0.1c-1.08,0-2.16,0-3.24,0c-1.83,0-3.66,0.01-5.48,0.01c-0.3,0-0.3,0-0.3,0.3c0,0.38,0.01,0.76,0,1.14
		c0,0.15,0.04,0.2,0.19,0.2c1.02-0.01,2.04,0,3.06,0c1.74,0,3.48,0,5.23,0c0.06,0,0.12,0,0.2,0c-0.02,0.06-0.03,0.11-0.04,0.16
		c-0.54,1.71-1.08,3.43-1.61,5.14c-0.04,0.14-0.1,0.18-0.24,0.18c-2.21,0-4.42,0-6.63,0c-0.24,0-0.24,0-0.24,0.25
		c0,0.43,0.01,0.86,0,1.29c0,0.15,0.05,0.19,0.19,0.19c2.04,0,4.08,0,6.12,0c0.24,0,0.24,0,0.17,0.22c-0.55,1.75-1.1,3.5-1.65,5.26
		c-0.04,0.14-0.1,0.19-0.26,0.19c-3.79,0-7.58,0-11.37,0c-0.2,0-0.2,0-0.2-0.21c0-6.63,0-13.25,0-19.88c0-0.21,0-0.21,0.2-0.21
		c5.88,0,11.76,0,17.64,0C147.53,37.28,147.59,37.28,147.67,37.28z"/>
	<path class="st0" d="M176.17,37.35c-0.69,0.2-1.35,0.45-1.97,0.8c-0.74,0.4-1.44,0.87-2.06,1.45c-1.21,1.11-2.13,2.43-2.77,3.94
		c-0.42,0.99-0.74,2.01-0.84,3.08c-0.06,0.63-0.12,1.26-0.11,1.89c0.07,3.3,1.33,6.09,3.7,8.38c0.26,0.25,0.56,0.47,0.85,0.71
		c-0.05,0-0.1,0-0.15,0c-3.02,0-6.03,0-9.05,0c-0.2,0-0.2,0-0.2-0.19c0-4.68,0-9.37,0-14.05c0-0.23,0-0.23-0.23-0.23
		c-0.88,0-1.77,0-2.65,0c-0.97,0-1.94-0.02-2.91-0.02c-0.12,0-0.16-0.04-0.16-0.16c0.01-1.83,0.01-3.66,0.01-5.49
		c0-0.11,0.04-0.14,0.15-0.14c3.27,0,6.55,0,9.82,0.01c2.86,0,5.71,0,8.57,0C176.17,37.33,176.17,37.34,176.17,37.35z"/>
	<path class="st0" d="M183.61,48.36c-0.01,0.78-0.17,1.52-0.61,2.18c-0.62,0.96-1.47,1.57-2.58,1.78c-1.29,0.24-2.46-0.05-3.44-0.95
		c-0.38-0.35-0.66-0.78-0.87-1.25c-0.5-1.12-0.5-2.26-0.06-3.4c0.52-1.32,1.46-2.21,2.85-2.55c1.36-0.33,2.52,0.08,3.49,1.06
		c0.68,0.69,1.06,1.53,1.17,2.49C183.58,47.94,183.59,48.15,183.61,48.36z"/>
	<path class="st0" d="M158.89,57.59c-3.23,0-6.44,0-9.67,0c0.02-0.07,0.03-0.12,0.04-0.17c0.35-1.16,0.7-2.33,1.05-3.49
		c0.16-0.53,0.33-1.05,0.49-1.57c0.03-0.1,0.08-0.12,0.17-0.12c2.07,0,4.15,0,6.22,0c0.14,0,0.17,0.07,0.19,0.17
		c0.37,1.28,0.74,2.56,1.12,3.85c0.11,0.39,0.23,0.79,0.34,1.18C158.87,57.49,158.88,57.53,158.89,57.59z"/>
	<path class="st0" d="M156,47.66c-1.26,0-2.49,0-3.76,0c0.64-2.13,1.27-4.25,1.91-6.37c0.01,0,0.02,0,0.03,0
		C154.79,43.41,155.39,45.53,156,47.66z"/>
</g>
</svg>
