<?xml version="1.0" standalone="no"?>
<!DOCTYPE svg PUBLIC "-//W3C//DTD SVG 20010904//EN"
 "http://www.w3.org/TR/2001/REC-SVG-20010904/DTD/svg10.dtd">
<svg version="1.0" xmlns="http://www.w3.org/2000/svg"
 width="512.000000pt" height="512.000000pt" viewBox="0 0 512.000000 512.000000"
 preserveAspectRatio="xMidYMid meet">

<g transform="translate(0.000000,512.000000) scale(0.100000,-0.100000)"
fill="#000000" stroke="none">
<path d="M168 4846 c-57 -15 -109 -53 -140 -103 l-23 -38 -3 -1370 c-2 -979 0
-1381 8 -1408 14 -49 74 -115 125 -138 38 -17 85 -19 760 -19 478 0 733 4 758
11 54 15 132 93 146 145 8 30 10 435 9 1406 l-3 1365 -30 48 c-21 33 -47 57
-85 79 l-55 31 -710 2 c-550 2 -721 -1 -757 -11z m1467 -106 c74 -36 70 1 70
-724 l0 -651 -802 -3 -803 -2 0 650 c0 731 -4 696 73 731 40 18 76 19 731 19
671 0 691 -1 731 -20z m75 -1865 l0 -385 -805 0 -805 0 0 385 0 385 805 0 805
0 0 -385z m-2 -695 c2 -179 0 -209 -15 -240 -37 -73 -5 -70 -791 -70 -765 0
-735 -2 -781 56 -20 25 -21 39 -21 245 l0 219 803 -2 802 -3 3 -205z"/>
<path d="M438 4539 c-21 -12 -24 -59 -6 -77 9 -9 127 -12 469 -12 403 0 459 2
473 16 9 8 16 24 16 34 0 10 -7 26 -16 34 -14 14 -70 16 -467 16 -288 0 -458
-4 -469 -11z"/>
<path d="M448 4253 c-22 -5 -35 -50 -21 -72 9 -14 62 -16 473 -19 333 -1 467
1 476 9 21 17 17 56 -8 73 -20 14 -79 16 -463 15 -242 -1 -448 -3 -457 -6z"/>
<path d="M432 3948 c-17 -17 -15 -54 4 -72 14 -14 69 -16 462 -16 389 0 450 2
470 16 24 17 29 53 10 72 -17 17 -929 17 -946 0z"/>
<path d="M432 3658 c-7 -7 -12 -24 -12 -38 0 -14 5 -31 12 -38 9 -9 127 -12
469 -12 403 0 459 2 473 16 20 20 20 48 0 68 -14 14 -70 16 -473 16 -342 0
-460 -3 -469 -12z"/>
<path d="M843 3130 c-89 -21 -169 -101 -194 -194 -27 -101 26 -227 119 -283
104 -62 222 -51 309 30 116 106 120 263 10 373 -71 71 -153 96 -244 74z m146
-117 c93 -69 96 -210 7 -268 -86 -57 -202 -22 -242 72 -20 46 -17 84 9 133 44
83 156 114 226 63z"/>
<path d="M2486 4295 c-49 -17 -93 -59 -117 -110 -18 -38 -19 -84 -19 -875 l0
-836 23 -44 c13 -26 40 -57 65 -75 l44 -30 419 -3 c230 -1 419 -5 419 -9 0 -3
-25 -88 -57 -189 l-56 -184 -132 0 c-115 0 -134 -2 -148 -18 -21 -23 -22 -56
-2 -72 18 -15 1082 -25 1405 -13 l215 8 9 27 c8 22 6 32 -9 48 -16 18 -30 20
-151 20 l-132 0 -16 48 c-48 152 -96 311 -96 321 0 8 110 11 408 11 409 0 409
0 453 23 24 13 58 43 74 66 l30 43 3 836 c2 592 0 848 -8 875 -6 21 -27 56
-47 78 -66 73 7 69 -1337 69 -994 -1 -1208 -3 -1240 -15z m2457 -96 c26 -7 44
-21 57 -42 19 -31 20 -55 20 -644 l0 -613 -1285 0 -1285 0 2 624 c3 599 4 625
22 645 11 12 33 25 50 30 46 13 2371 14 2419 0z m77 -1545 c0 -160 -10 -202
-56 -223 -18 -8 -351 -11 -1237 -11 -1133 0 -1213 2 -1233 18 -39 31 -44 55
-44 211 l0 151 1285 0 1285 0 0 -146z m-927 -513 c31 -98 57 -183 57 -190 0
-8 -113 -11 -419 -11 l-419 0 23 73 c13 39 39 125 60 190 l36 117 303 0 302 0
57 -179z"/>
<path d="M3566 2644 c-9 -8 -16 -24 -16 -34 0 -44 22 -50 185 -50 154 0 155 0
171 25 15 23 15 27 0 50 -16 25 -17 25 -171 25 -126 0 -156 -3 -169 -16z"/>
<path d="M4085 1517 c-68 -23 -101 -44 -149 -98 -76 -84 -77 -96 -74 -541 l3
-383 28 -57 c34 -68 100 -130 165 -153 102 -37 355 -30 435 12 49 25 107 85
135 137 l27 51 3 394 c3 450 3 455 -75 541 -25 28 -69 63 -97 78 -48 25 -61
26 -206 29 -108 2 -167 -1 -195 -10z m125 -199 c0 -93 -3 -119 -21 -156 -30
-61 -82 -93 -164 -99 l-65 -6 0 95 c0 52 5 110 11 129 30 89 109 144 212 148
l27 1 0 -112z m239 82 c84 -43 111 -100 111 -240 l0 -100 -47 1 c-62 1 -106
17 -144 54 -49 46 -59 81 -59 206 l0 112 51 -7 c29 -4 68 -15 88 -26z m-164
-348 c42 -50 120 -85 202 -90 l73 -5 0 -98 0 -99 -300 0 -300 0 0 99 0 98 73
5 c82 5 162 41 201 90 11 15 22 27 24 27 2 1 14 -12 27 -27z m275 -452 c0 -82
-17 -131 -63 -178 -43 -45 -108 -62 -234 -62 -126 0 -179 12 -228 53 -53 43
-75 96 -75 185 l0 72 300 0 300 0 0 -70z"/>
<path d="M588 1500 c-44 -13 -87 -49 -108 -90 -19 -37 -20 -61 -20 -515 0
-458 1 -477 20 -515 11 -22 39 -52 62 -67 l42 -28 1259 -3 c849 -1 1271 1
1297 8 51 14 99 55 121 105 17 37 19 75 19 500 0 426 -2 463 -19 500 -22 48
-54 79 -103 100 -33 13 -181 15 -1290 14 -689 0 -1265 -4 -1280 -9z m2564
-118 l23 -23 3 -449 c3 -506 4 -500 -66 -520 -26 -8 -405 -10 -1269 -8 l-1231
3 -26 24 -26 24 0 461 c1 493 0 485 51 505 15 6 485 9 1271 8 l1247 -2 23 -23z"/>
<path d="M722 1218 c-7 -7 -12 -25 -12 -40 0 -36 28 -48 111 -48 46 0 63 4 79
20 23 23 24 33 10 61 -9 16 -22 19 -93 19 -51 0 -88 -5 -95 -12z"/>
<path d="M1072 1218 c-19 -19 -14 -55 10 -72 14 -10 44 -16 83 -16 39 0 69 6
83 16 24 17 29 53 10 72 -16 16 -170 16 -186 0z"/>
<path d="M1422 1218 c-19 -19 -14 -55 10 -72 14 -10 44 -16 83 -16 69 0 105
19 105 54 0 38 -19 46 -105 46 -50 0 -86 -5 -93 -12z"/>
<path d="M1770 1211 c-27 -51 7 -81 92 -81 80 0 108 12 108 48 0 44 -16 52
-107 52 -71 0 -84 -3 -93 -19z"/>
<path d="M2126 1214 c-21 -21 -20 -40 4 -64 16 -16 33 -20 86 -20 36 0 74 5
85 10 22 12 26 59 7 78 -19 19 -163 16 -182 -4z"/>
<path d="M2482 1218 c-19 -19 -15 -66 7 -78 11 -5 49 -10 85 -10 53 0 70 4 86
20 24 24 25 43 4 64 -19 20 -163 23 -182 4z"/>
<path d="M2832 1218 c-19 -19 -15 -66 7 -78 35 -18 146 -12 172 9 20 16 22 23
14 47 -10 28 -12 29 -95 32 -58 2 -89 -1 -98 -10z"/>
<path d="M722 928 c-15 -15 -15 -51 0 -66 7 -7 44 -12 95 -12 74 0 83 2 94 21
8 16 8 28 0 45 -10 22 -16 24 -94 24 -51 0 -88 -5 -95 -12z"/>
<path d="M1072 928 c-15 -15 -15 -51 0 -66 7 -7 43 -12 93 -12 85 0 105 8 105
45 0 12 -5 26 -12 33 -16 16 -170 16 -186 0z"/>
<path d="M1422 928 c-7 -7 -12 -21 -12 -33 0 -37 20 -45 105 -45 85 0 105 8
105 45 0 37 -20 45 -105 45 -50 0 -86 -5 -93 -12z"/>
<path d="M1769 919 c-8 -16 -8 -28 0 -45 10 -22 16 -24 94 -24 87 0 107 8 107
45 0 37 -20 45 -107 45 -74 0 -83 -2 -94 -21z"/>
<path d="M2119 919 c-8 -16 -8 -28 0 -46 10 -23 14 -24 97 -21 96 3 112 13
100 61 -6 27 -7 27 -96 27 -81 0 -90 -2 -101 -21z"/>
<path d="M2474 913 c-12 -47 4 -58 99 -61 79 -3 87 -1 97 19 9 16 9 28 1 45
-10 23 -16 24 -101 24 -89 0 -90 0 -96 -27z"/>
<path d="M2832 928 c-7 -7 -12 -21 -12 -33 0 -37 20 -45 107 -45 74 0 83 2 94
21 8 16 8 28 0 45 -10 22 -16 24 -94 24 -51 0 -88 -5 -95 -12z"/>
<path d="M728 649 c-21 -12 -24 -59 -6 -77 19 -19 163 -16 182 4 21 21 20 40
-4 64 -16 16 -33 20 -87 20 -38 0 -76 -5 -85 -11z"/>
<path d="M1077 642 c-20 -22 -22 -53 -5 -70 7 -7 43 -12 93 -12 86 0 105 8
105 46 0 36 -36 54 -111 54 -51 0 -70 -4 -82 -18z"/>
<path d="M1425 640 c-15 -16 -17 -26 -9 -48 l9 -27 434 -3 c312 -1 438 1 447
9 21 17 17 66 -5 79 -13 6 -169 10 -439 10 -408 0 -419 -1 -437 -20z"/>
<path d="M2488 649 c-21 -12 -24 -59 -6 -77 19 -19 163 -16 182 4 22 22 20 50
-6 68 -26 18 -142 22 -170 5z"/>
<path d="M2838 649 c-21 -12 -24 -59 -6 -77 19 -19 163 -16 182 4 22 22 20 50
-6 68 -26 18 -142 22 -170 5z"/>
</g>
</svg>
