<svg width="335" height="94" viewBox="0 0 335 94" fill="none" xmlns="http://www.w3.org/2000/svg">
<path d="M183.17 37.3999C183.272 36.8238 183.372 36.2564 183.508 35.7011V35.6971C185.789 39.0218 187.007 42.9609 187 46.9931C186.998 51.0408 185.768 54.9926 183.472 58.3263C181.176 61.6599 177.923 64.2186 174.142 65.6641C170.361 67.1096 166.231 67.3738 162.297 66.422C158.363 65.4701 154.81 63.347 152.108 60.3331C156.102 61.0087 160.139 61.3964 164.188 61.4931L164.148 60.1171C161.428 59.9611 160.18 59.5491 159.964 59.0091C159.793 58.6068 159.756 58.0103 159.718 57.4139C159.716 57.3816 159.714 57.3493 159.712 57.3171C159.505 52.9136 159.438 48.5047 159.512 44.0971C160.561 44.0777 161.606 44.066 162.674 44.0541C163.155 44.0487 163.64 44.0433 164.132 44.0371C164.5 43.871 164.858 43.705 165.214 43.5394C165.605 43.3579 165.994 43.1769 166.396 42.9971L166.4 41.4211C164.044 41.4331 161.812 41.4731 159.572 41.5371C159.636 39.6291 159.712 37.8731 159.824 36.1571C159.904 35.0291 160.684 34.2051 161.488 34.1451C162.78 34.0891 163.94 34.6051 165.06 35.1051C165.68 35.4011 166.288 35.7011 166.92 36.0251C167.224 36.1051 167.584 36.1731 167.8 35.9131L168.896 34.6211C169.096 34.3291 169.008 34.1571 168.928 34.0491C168.12 33.4131 167.368 32.8411 166.6 32.2651C166.124 31.9451 165.38 31.8771 164.644 31.8771C164.348 31.8771 164.056 31.8851 163.78 31.8971C162.666 31.9724 161.563 32.1545 160.484 32.4411C156.932 33.3931 152.668 35.8731 152.216 39.9251C152.156 40.5851 152.108 41.2371 152.068 41.9171C151.064 41.9971 150.152 42.0731 149.288 42.1571C149.224 42.9291 149.184 43.6731 149.144 44.4611C150.077 44.4057 151.01 44.3577 151.944 44.3171C151.796 48.5651 151.936 52.8011 152.336 56.7291C152.404 57.3251 152.468 57.9131 152.392 58.2971C152.328 58.6611 151.74 58.8531 150.892 58.8451C148.358 55.4135 146.994 51.2587 147 46.9931C147.001 42.8604 148.283 38.8297 150.669 35.4551C153.054 32.0805 156.427 29.5277 160.322 28.1478C164.217 26.7679 168.445 26.6287 172.423 27.7491C176.4 28.8696 179.934 31.1948 182.536 34.4051C181.807 34.3211 181.078 34.1869 180.336 34.0501C179.627 33.9196 178.906 33.7868 178.16 33.6931C176.088 33.4251 173.924 33.2331 171.584 33.1251C170.112 37.5131 168.268 43.0331 166.376 48.7371C176.228 49.5891 180.016 52.2451 179.804 55.9891C179.608 58.0131 177.756 59.8531 175.328 60.0691C172.432 60.2651 171.108 59.0931 170.24 57.8131C169.476 56.6651 168.712 55.5091 167.896 54.2531C167.676 53.8851 167.384 54.1251 167.12 54.3811C166.536 54.9469 165.951 55.5109 165.364 56.0731C164.988 56.4011 165.072 56.6851 165.204 56.9611C165.724 58.1886 166.252 59.4126 166.788 60.6331C167.652 61.1611 171.704 61.8811 174.732 61.6571C176.788 61.4811 179.36 60.6891 181.48 59.0891C183.58 57.4651 185.104 55.2731 185.344 51.8051C185.452 49.6731 185.06 47.3731 183.204 45.2931C181.296 43.2371 178.076 41.4931 171.456 41.0851C171.612 40.5919 171.76 40.1165 171.906 39.6496C172.076 39.1015 172.243 38.565 172.416 38.0251C176.376 38.1651 179.896 38.4491 182.896 38.8371C183.003 38.3533 183.087 37.8736 183.17 37.3999Z" fill="#756C66"/>
<path fill-rule="evenodd" clip-rule="evenodd" d="M183.38 64.5091H183.088V62.8531H183.668C183.876 62.8531 184.024 62.8731 184.12 62.9131C184.296 62.9851 184.376 63.1251 184.376 63.3331C184.376 63.4771 184.324 63.5891 184.216 63.6611C184.142 63.7025 184.06 63.7296 183.976 63.7411C184.104 63.7651 184.2 63.8171 184.26 63.9051C184.318 63.9798 184.352 64.0706 184.356 64.1651V64.4091C184.354 64.438 184.36 64.4668 184.372 64.4931L184.38 64.5091H184.108C184.104 64.5091 184.1 64.5051 184.1 64.4971C184.099 64.4903 184.098 64.4836 184.096 64.4771L184.092 64.4251V64.2931C184.092 64.1011 184.04 63.9771 183.936 63.9131C183.876 63.8771 183.764 63.8611 183.612 63.8611H183.38V64.5091ZM183.64 63.6571C183.735 63.6628 183.83 63.6506 183.92 63.6211V63.6171C183.973 63.5987 184.019 63.5633 184.05 63.5163C184.081 63.4693 184.096 63.4133 184.092 63.3571C184.092 63.2411 184.048 63.1571 183.98 63.1171C183.912 63.0771 183.792 63.0571 183.632 63.0571H183.38V63.6571H183.64Z" fill="#756C66"/>
<path fill-rule="evenodd" clip-rule="evenodd" d="M184.277 62.2945C184.462 62.3701 184.629 62.4826 184.768 62.6251V62.6211C184.909 62.7612 185.02 62.9276 185.096 63.1109C185.172 63.2941 185.211 63.4906 185.211 63.6891C185.211 63.8875 185.172 64.084 185.096 64.2673C185.02 64.4505 184.909 64.617 184.768 64.7571C184.593 64.9328 184.377 65.0627 184.14 65.1352C183.903 65.2077 183.652 65.2206 183.408 65.1727C183.165 65.1249 182.937 65.0178 182.745 64.8609C182.553 64.704 182.403 64.5021 182.307 64.2732C182.212 64.0443 182.175 63.7954 182.198 63.5486C182.222 63.3017 182.306 63.0645 182.444 62.858C182.581 62.6515 182.767 62.4821 182.986 62.3647C183.204 62.2473 183.448 62.1856 183.696 62.1851C183.895 62.1816 184.093 62.2188 184.277 62.2945ZM184.901 63.1936C184.836 63.0352 184.739 62.892 184.616 62.7731C184.498 62.6487 184.355 62.5503 184.196 62.4842C184.038 62.4181 183.868 62.3857 183.696 62.3891C183.525 62.3896 183.356 62.4237 183.199 62.4896C183.041 62.5554 182.898 62.6516 182.778 62.7727C182.658 62.8937 182.562 63.0373 182.497 63.1953C182.433 63.3532 182.4 63.5223 182.4 63.6931C182.398 63.8637 182.431 64.0331 182.495 64.191C182.56 64.349 182.655 64.4925 182.776 64.6131C182.957 64.7958 183.189 64.9204 183.441 64.971C183.694 65.0216 183.955 64.9959 184.193 64.8972C184.431 64.7985 184.634 64.6313 184.776 64.4169C184.918 64.2024 184.993 63.9504 184.992 63.6931C184.996 63.522 184.965 63.352 184.901 63.1936Z" fill="#756C66"/>
</svg>
