<?xml version="1.0" encoding="utf-8"?>
<!-- Generator: Adobe Illustrator 24.1.0, SVG Export Plug-In . SVG Version: 6.00 Build 0)  -->
<svg width="335" height="94" version="1.1" id="Layer_1" xmlns="http://www.w3.org/2000/svg" xmlns:xlink="http://www.w3.org/1999/xlink" x="0px" y="0px"
	 viewBox="0 0 335 95" style="enable-background:new 0 0 335 95;" xml:space="preserve">
<style type="text/css">
	.st0{fill:#756C66;}
	.st1{fill:none;stroke:#606060;stroke-miterlimit:10;}
</style>
<g>
	<path class="st0" d="M180.82,44.59c0,2.62,0,5.16,0,7.72c-1.28,0-2.54,0-3.92,0c0-1.63,0-3.26,0-4.89
		c-0.05-0.01-0.1-0.01-0.15-0.02c-1.32,3.56-3.78,5.64-7.66,5.35c-3.61-0.27-5.69-2.54-6.72-5.93c0,1.81,0,3.63,0,5.47
		c-1.34,0-2.6,0-3.94,0c0-0.25,0-0.47,0-0.69c0-2.07,0.01-4.15,0-6.22c0-0.57-0.04-1.14-0.11-1.7c-0.22-1.72-1.58-2.48-3.26-1.82
		c-1.59,0.62-3.18,1.26-4.76,1.88c-0.16,0.06-0.32,0.11-0.51,0.17c0-1.73,0-3.41,0-5.15c1.23,0,2.43,0,3.68,0c0,0.45,0,0.86,0,1.5
		c1.73-2.24,3.85-2.5,6.1-1.5c2.36,1.05,2.74,3.29,2.87,5.6c0.98-3.49,3.14-5.75,6.8-5.94c3.8-0.19,6.26,1.86,7.61,5.4
		c0-0.19,0-0.39,0-0.58c0-2.02-0.01-4.03,0.01-6.05c0-0.21,0.1-0.55,0.24-0.61c1.21-0.53,2.44-1.01,3.75-1.54c0,1.28,0,2.49,0,3.76
		c0.9,0,1.73,0.02,2.56-0.01c0.45-0.02,0.61,0.14,0.58,0.58c-0.03,0.59-0.01,1.19,0.06,1.8c2.46-2.58,5.31-3.53,8.65-2.18
		c2.25,0.91,3.62,2.67,4.23,5.04c-3.29,1.3-6.53,2.59-9.83,3.89c0.58,0.88,1.36,1.35,2.28,1.48c1.42,0.2,2.67-0.2,3.58-1.4
		c0.14-0.19,0.36-0.35,0.58-0.43c2.19-0.87,4.38-1.73,6.57-2.59c0.07-0.03,0.14-0.04,0.11-0.03c0.29,0.84,0.47,1.7,0.85,2.45
		c0.73,1.46,2.2,2.24,3.77,2.01c1.55-0.23,2.59-1.12,2.97-2.68c0.01-0.03,0.04-0.07,0.11-0.19c1.05,0.17,2.14,0.35,3.23,0.53
		c-0.19,2.05-2.17,4.79-5.23,5.51c-1.96,0.46-3.81,0.22-5.53-0.86c-1.7-1.06-2.77-2.6-3.35-4.55c-0.87,2.8-2.6,4.7-5.43,5.44
		c-1.69,0.44-3.37,0.27-4.94-0.54c-1.98-1.02-3.26-2.62-3.81-4.79c-0.54-2.16-0.01-4.11,1.16-5.96c-0.04-0.04-0.08-0.08-0.12-0.12
		c-5.65,2.23-11.31,4.46-17.16,6.76c0.5,0.42,0.85,0.83,1.29,1.06c1.59,0.86,3.45,0.45,4.62-0.95c0.18-0.21,0.38-0.44,0.63-0.54
		C175.76,46.56,178.24,45.6,180.82,44.59z M186.22,45.58c2.12-0.84,4.19-1.66,6.26-2.48c-0.41-0.95-2.32-1.77-3.83-1.22
		C187,42.48,185.96,43.97,186.22,45.58z M172.21,43.1c-0.31-0.98-2.32-1.73-3.75-1.23c-1.67,0.58-2.84,2.28-2.41,3.66
		C168.1,44.72,170.16,43.91,172.21,43.1z"/>
	<path class="st0" d="M127.7,46.35c-0.31-0.79-0.6-1.51-0.92-2.32c2.59-1.01,5.15-2.01,7.87-3.06c0.25,1.09,0.49,2.11,0.75,3.21
		c0.11-0.31,0.21-0.58,0.3-0.85c0.96-2.82,3.64-4.84,6.41-4.98c3.27-0.16,6.13,1.91,7.14,4.59c0.46,1.23,0.64,0.96-0.65,1.47
		c-2.76,1.08-5.52,2.15-8.28,3.22c-0.17,0.07-0.34,0.15-0.56,0.25c0.6,0.96,1.47,1.41,2.5,1.54c1.42,0.18,2.56-0.36,3.43-1.48
		c0.13-0.17,0.31-0.35,0.5-0.43c2.38-0.95,4.76-1.89,7.14-2.83c0.09-0.03,0.18-0.04,0.32-0.07c0,2.57,0,5.1,0,7.68
		c-1.26,0-2.52,0-3.9,0c0-0.81,0-1.64,0-2.46c0-0.81,0-1.62,0-2.43c-1.46,3.59-3.96,5.73-7.91,5.35c-3.92-0.38-5.98-2.91-6.65-6.73
		c-0.81,3.01-2.55,5.17-5.46,6.28c-1.8,0.69-3.65,0.73-5.48,0.13c-3.7-1.21-5.95-4.48-5.88-8.15c0.08-4.08,2.79-7.31,6.7-8.15
		c3.39-0.73,6.65,0.76,8.2,2.96c-1.16,0.45-2.3,0.91-3.45,1.34c-0.16,0.06-0.43,0-0.57-0.11c-1.64-1.31-4.12-1.01-5.58,0.1
		c-1.53,1.16-2.12,3.13-1.45,5.23c0.66,2.1,2.06,3.5,4.29,3.72c2.75,0.27,5.16-2,4.94-4.5C130.21,45.36,128.98,45.85,127.7,46.35z
		 M145.12,43.05c-0.81-1.25-2.74-1.69-4.2-1.03c-1.41,0.64-2.32,2.18-1.96,3.45C141,44.67,143.03,43.87,145.12,43.05z"/>
	<path class="st0" d="M197.22,43.93c0.5-2.9,3.33-5.33,6.46-5.54c3.03-0.21,5.83,1.54,6.92,4.02c-1,0.4-2,0.81-3.01,1.18
		c-0.1,0.04-0.33-0.08-0.39-0.19c-1.04-1.75-3.21-2.27-5.1-1.41C200.53,42.71,198.89,43.27,197.22,43.93z"/>
	<path class="st0" d="M215.23,37.62c0.65-0.7,0.53-1.78,1.47-2.35c0,1.06,0,1.97,0,2.87c-0.06,0-0.11,0.01-0.17,0.01
		c0-0.73,0-1.46,0-2.18c-0.07-0.01-0.13-0.03-0.2-0.04c-0.33,0.75-0.66,1.51-0.99,2.26c-0.05,0-0.1,0-0.15,0.01
		c-0.31-0.75-0.62-1.49-0.94-2.24c-0.07,0.01-0.14,0.02-0.2,0.03c0,0.7,0,1.41,0,2.11c-0.07,0-0.14,0-0.21,0
		c0-0.82-0.01-1.64,0.01-2.46c0-0.08,0.15-0.23,0.17-0.22c0.12,0.05,0.28,0.12,0.33,0.23c0.23,0.5,0.43,1.01,0.65,1.51
		C215.06,37.29,215.13,37.42,215.23,37.62z"/>
	<path class="st0" d="M213.18,35.59c-0.28,0.04-0.55,0.07-0.91,0.12c0,0.82,0,1.64,0,2.45c-0.07,0-0.14,0-0.21,0
		c0-0.82,0-1.64,0-2.46c-0.37-0.03-0.63-0.06-0.91-0.08C211.36,35.35,212.54,35.29,213.18,35.59z"/>
</g>
</svg>
