<?xml version="1.0" encoding="utf-8"?>
<!-- Generator: Adobe Illustrator 24.1.0, SVG Export Plug-In . SVG Version: 6.00 Build 0)  -->
<svg width="335" height="94" version="1.1" id="Layer_1" xmlns="http://www.w3.org/2000/svg" xmlns:xlink="http://www.w3.org/1999/xlink" x="0px" y="0px"
	 viewBox="0 0 335 95" style="enable-background:new 0 0 335 95;" xml:space="preserve">
<style type="text/css">
	.st0{fill:#756C66;}
	.st1{fill:none;stroke:#606060;stroke-miterlimit:10;}
</style>
<g>
	<path class="st0" d="M114.59,53.65c-1.69,0-3.36,0-5.03,0c-0.07-0.23-0.09-16.77-0.02-17.19c1.67,0,3.35,0,5.07,0
		c0.01,2.35,0.01,4.69,0.02,7.05c1.39,0,2.74,0,4.13,0c0.02-0.78,0.01-1.55,0.01-2.33c0-0.79,0-1.58,0-2.37c0-0.78,0-1.55,0-2.35
		c1.71,0,3.39,0,5.06,0c0.07,0.26,0.07,16.86,0.01,17.19c-1.67,0-3.35,0-5.07,0c0-2.62,0-5.22,0-7.84c-1.39,0-2.74,0-4.13,0
		c-0.01,0.12-0.02,0.24-0.02,0.36c0,1.65,0,3.3,0,4.96c0,0.73,0,1.46,0,2.19C114.61,53.41,114.6,53.52,114.59,53.65z"/>
	<path class="st0" d="M189.85,46.31c-0.71,2.44-1.41,4.89-2.12,7.34c-1.24,0-2.45,0-3.67,0c-0.13-0.2-3.75-11.8-3.79-12.15
		c1.63,0,3.26,0,4.9,0c0.68,2.29,1.36,4.58,2.04,6.86c0.03,0,0.05,0,0.08,0c0.26-0.74,0.44-1.5,0.65-2.25
		c0.22-0.77,0.44-1.54,0.65-2.31c0.21-0.76,0.41-1.52,0.63-2.3c1.31,0,2.6,0,3.91,0c0.33,1.15,0.66,2.3,1,3.45
		c0.34,1.13,0.65,2.27,1.06,3.38c0.02,0,0.05,0,0.07,0c0.04-0.11,0.09-0.22,0.13-0.33c0.31-1.11,0.61-2.21,0.92-3.32
		c0.25-0.92,0.5-1.84,0.76-2.76c0.04-0.15,0.11-0.29,0.16-0.43c0.62,0,1.22,0,1.87,0c-1.12,4.07-2.23,8.1-3.35,12.15
		c-1.2,0-2.38,0-3.58,0c-0.36-1.22-0.72-2.45-1.07-3.68c-0.36-1.23-0.71-2.46-1.14-3.66C189.92,46.31,189.89,46.31,189.85,46.31z"/>
	<path class="st0" d="M145.47,53.63c-1.57,0-3.09,0-4.61,0c-0.09-0.27-0.1-11.7-0.02-12.29c0.22-0.07,4.24-0.09,4.61-0.02
		c0.15,0.43,0.03,0.88,0.06,1.37c0.09-0.05,0.16-0.07,0.21-0.11c0.29-0.23,0.57-0.48,0.86-0.69c0.86-0.63,1.83-0.99,2.89-0.98
		c1.66,0.01,2.95,0.74,3.81,2.18c0.24,0.41,0.31,0.87,0.31,1.33c0.01,1.73,0.02,3.47,0.02,5.2c0,1.23-0.01,2.46-0.02,3.69
		c0,0.11-0.02,0.22-0.03,0.34c-1.55,0-3.08,0-4.63,0c-0.01-0.13-0.04-0.25-0.04-0.37c-0.01-1.04-0.02-2.07-0.01-3.11
		c0-1.27,0.01-2.54,0.02-3.82c0-0.41,0.03-0.82,0.03-1.23c0-0.22-0.02-0.45-0.06-0.67c-0.11-0.61-0.52-0.97-1.14-1.02
		c-0.36-0.03-0.69,0.03-1.02,0.18c-0.43,0.19-0.79,0.47-1.14,0.78c-0.05,0.05-0.09,0.13-0.1,0.21c-0.02,0.08,0,0.16,0,0.25
		c0,2.8,0,5.6,0,8.4C145.47,53.37,145.47,53.49,145.47,53.63z"/>
	<path class="st0" d="M132.45,54.1c-1.44,0.02-2.7-0.24-3.85-0.89c-1.65-0.94-2.68-2.36-3.08-4.21c-0.41-1.91-0.08-3.69,1.04-5.3
		c0.79-1.13,1.87-1.89,3.18-2.3c1.79-0.56,3.6-0.6,5.38,0.03c2.28,0.81,3.63,2.46,4.12,4.8c0.32,1.54,0.12,3.03-0.61,4.42
		c-0.93,1.78-2.43,2.82-4.36,3.26C133.64,54.05,132.98,54.12,132.45,54.1z M134.22,47.39c-0.01,0-0.01,0-0.02,0
		c-0.01-0.12-0.02-0.25-0.02-0.37c-0.01-0.75,0-1.5-0.02-2.24c-0.02-0.57-0.11-1.12-0.34-1.65c-0.24-0.55-0.62-0.92-1.25-0.95
		c-0.62-0.03-1.15,0.15-1.51,0.7c-0.19,0.3-0.31,0.62-0.38,0.97c-0.2,0.9-0.18,1.81-0.17,2.72c0.01,0.87,0,1.74,0.02,2.61
		c0.01,0.58,0.05,1.17,0.1,1.75c0.04,0.4,0.15,0.78,0.35,1.14c0.18,0.33,0.42,0.58,0.79,0.69c0.73,0.21,1.63,0.07,2.04-0.85
		c0.07-0.15,0.12-0.3,0.17-0.46c0.16-0.5,0.22-1.02,0.23-1.55C134.23,49.07,134.22,48.23,134.22,47.39z"/>
	<path class="st0" d="M168.68,48.37c-2.88,0-5.75,0-8.59,0c-0.03,0.05-0.05,0.07-0.05,0.08c-0.03,0.76-0.06,1.51,0.03,2.27
		c0.09,0.79,0.51,1.34,1.21,1.65c1.26,0.56,2.51,0.49,3.73-0.16c0.53-0.28,0.88-0.73,1.09-1.28c0.08-0.2,0.15-0.4,0.23-0.61
		c0.68,0,1.35,0,2.08,0c-0.06,0.22-0.1,0.42-0.18,0.61c-0.63,1.46-1.72,2.4-3.26,2.8c-1.33,0.34-2.68,0.44-4.06,0.33
		c-1.08-0.09-2.09-0.39-3.01-0.98c-1.35-0.87-2.22-2.11-2.63-3.66c-0.54-2.05-0.27-3.99,0.93-5.76c0.89-1.33,2.16-2.13,3.71-2.51
		c1.05-0.26,2.11-0.26,3.18-0.14c0.92,0.1,1.79,0.36,2.59,0.82c1.35,0.78,2.23,1.94,2.71,3.41c0.31,0.96,0.42,1.94,0.33,2.94
		C168.71,48.22,168.69,48.28,168.68,48.37z M163.72,46.76c0.01-0.83,0.07-1.62-0.03-2.4c-0.05-0.35-0.13-0.71-0.25-1.04
		c-0.22-0.6-0.66-0.95-1.3-1.02c-0.61-0.07-1.34,0.11-1.68,0.86c-0.15,0.32-0.25,0.67-0.31,1.02c-0.14,0.81-0.07,1.63-0.06,2.45
		c0,0.04,0.02,0.08,0.04,0.13C161.31,46.76,162.49,46.76,163.72,46.76z"/>
	<path class="st0" d="M210.57,50.31c0.69,0,1.35,0,2.02,0c0.05,0.24-0.04,0.44-0.13,0.63c-0.57,1.3-1.51,2.2-2.86,2.66
		c-0.71,0.24-1.44,0.39-2.19,0.43c-0.55,0.03-1.11,0.06-1.66,0.05c-0.9-0.03-1.8-0.14-2.64-0.5c-1.29-0.56-2.29-1.44-2.96-2.67
		c-1.24-2.26-1.23-4.56-0.01-6.82c0.86-1.6,2.28-2.53,4.02-2.95c1.45-0.36,2.92-0.34,4.35,0.08c2.32,0.68,3.73,2.25,4.28,4.59
		c0.18,0.74,0.21,1.5,0.18,2.26c0,0.06-0.01,0.12-0.02,0.18c0,0.03-0.03,0.05-0.05,0.1c-2.85,0-5.71,0-8.59,0
		c-0.02,0.08-0.05,0.15-0.05,0.22c0,0.65-0.03,1.29,0.03,1.94c0.1,1.19,0.66,1.82,1.82,2.09c1.02,0.24,2.02,0.18,2.97-0.29
		c0.58-0.29,1.01-0.73,1.23-1.35C210.39,50.74,210.48,50.53,210.57,50.31z M207.92,46.76c0.02-0.05,0.04-0.08,0.04-0.1
		c0-0.76,0.01-1.52-0.03-2.27c-0.02-0.35-0.12-0.71-0.24-1.04c-0.22-0.63-0.68-1-1.35-1.05c-0.83-0.07-1.46,0.24-1.74,1.04
		c-0.08,0.23-0.14,0.47-0.18,0.71c-0.13,0.79-0.11,1.59-0.1,2.39c0,0.11,0.03,0.21,0.05,0.32
		C205.57,46.76,206.75,46.76,207.92,46.76z"/>
	<path class="st0" d="M170.99,56.97c0.33,0.1,0.61,0.04,0.84-0.15c0.22-0.19,0.44-0.4,0.6-0.65c0.21-0.32,0.38-0.68,0.55-1.03
		c0.32-0.66,0.3-1.32,0.03-2c-0.52-1.31-1.04-2.63-1.55-3.95c-0.94-2.45-1.88-4.9-2.82-7.35c-0.05-0.14-0.09-0.29-0.15-0.46
		c1.7,0,3.37,0,5.06,0c0.76,1.99,1.52,3.98,2.28,5.98c0.02,0,0.05,0,0.07,0c0.47-0.95,0.87-1.93,1.28-2.91
		c0.41-0.98,0.82-1.97,1.23-2.97c0.56,0,1.13,0,1.73,0c-0.02,0.08-0.03,0.14-0.05,0.19c-0.77,1.88-1.55,3.75-2.32,5.63
		c-0.92,2.25-1.85,4.49-2.76,6.74c-0.31,0.75-0.6,1.51-1.01,2.21c-0.34,0.58-0.74,1.11-1.27,1.53c-0.82,0.66-1.76,0.84-2.78,0.71
		c-0.49-0.06-0.96-0.2-1.38-0.48c-0.62-0.41-1.01-0.98-1.13-1.72c-0.15-1.01,0.52-2.06,1.51-2.32c0.77-0.2,1.43,0.04,1.93,0.64
		c0.49,0.6,0.62,1.28,0.25,2.01C171.09,56.73,171.04,56.84,170.99,56.97z"/>
	<path class="st0" d="M218.99,53.64c-1.5,0-2.99,0-4.47,0c-0.06-0.22-0.08-16.27-0.02-16.67c1.49,0,2.98,0,4.49,0
		C218.99,42.53,218.99,48.07,218.99,53.64z"/>
	<path class="st0" d="M225.45,53.64c-1.46,0-2.94,0-4.41,0c-0.08-0.25-0.08-16.33-0.01-16.68c1.47,0,2.94,0,4.4,0
		c0.02,0.02,0.03,0.02,0.04,0.03c0.01,0.01,0.01,0.02,0.01,0.03c0.01,0.05,0.02,0.1,0.02,0.15c0,5.43,0,10.86,0,16.28
		c0,0.04-0.01,0.08-0.02,0.12C225.48,53.6,225.46,53.61,225.45,53.64z"/>
</g>
</svg>
