<svg width="335" height="94" viewBox="0 0 335 94" fill="none" xmlns="http://www.w3.org/2000/svg">
<path d="M168.056 27.0001L163.753 39.0652L166.678 39.0661C168.785 39.0667 169.682 40.7282 169.018 42.5888L164.739 54.5855H160.434L165.141 41.3852H162.924L158.217 54.5855H153.874L163.534 27.5005C154.638 29.5298 148 37.4891 148 46.9993C148 56.3616 154.433 64.2202 163.119 66.399L172.878 38.998H179.946C181.408 38.998 183.246 39.9836 182.452 42.227L178.483 53.4317C177.977 54.8629 176.772 55.1529 175.812 55.1529H171.467L167.253 66.9848C167.501 66.9939 167.75 67.0002 168 67.0002C179.046 67.0002 188 58.0459 188 46.9997C188 35.9722 179.076 27.03 168.055 27L168.056 27.0001ZM176.382 41.3529L172.283 52.8587H174.466L178.565 41.3529H176.382Z" fill="#756C66"/>
</svg>
