<svg width="335" height="94" viewBox="0 0 335 94" fill="none" xmlns="http://www.w3.org/2000/svg">
<path fill-rule="evenodd" clip-rule="evenodd" d="M150.852 35.4298H115.326V25.1631H150.852V35.4298ZM148.571 27.4446H117.526V33.2298H148.571V27.4446Z" fill="#756C66"/>
<path d="M115.326 52.4594H117.526V48.2223H121.519V52.4594H123.719V42.1927H121.519V46.2668H117.526V42.1927H115.326V52.4594Z" fill="#756C66"/>
<path fill-rule="evenodd" clip-rule="evenodd" d="M125.022 48.8742C125.022 51.1557 126.489 52.6223 128.771 52.6223C129.83 52.6223 130.645 52.3779 131.297 52.1335V50.4223H131.215C130.482 50.8298 129.911 50.9927 129.178 50.9927C128.282 50.9927 127.385 50.6668 127.141 49.5261H131.785V48.7112C131.785 46.5112 130.726 45.0446 128.526 45.0446C126.489 45.0446 125.022 46.5927 125.022 48.8742ZM129.748 47.8964H127.141C127.304 46.9186 127.874 46.6742 128.526 46.5927C129.422 46.5927 129.667 47.1631 129.748 47.8964Z" fill="#756C66"/>
<path d="M136.348 52.4594L137.489 48.1409L138.63 52.4594H140.585L142.785 45.2075V45.1261H140.748L139.526 49.4446L138.385 45.1261H136.674L135.534 49.4446L134.311 45.1261H132.193V45.2075L134.393 52.4594H136.348Z" fill="#756C66"/>
<path d="M144.008 50.2594C144.008 51.889 144.659 52.6223 146.452 52.6223C146.778 52.6223 147.104 52.5409 147.267 52.4594V50.6668C147.185 50.6668 147.104 50.6872 147.022 50.7075C146.941 50.7279 146.86 50.7483 146.778 50.7483C146.289 50.7483 146.126 50.5853 146.126 50.0964V42.1927H144.008V50.2594Z" fill="#756C66"/>
<path fill-rule="evenodd" clip-rule="evenodd" d="M147.919 48.8742C147.919 51.1557 149.385 52.6223 151.667 52.6223C152.645 52.6223 153.46 52.3779 154.111 52.1335V50.4223C153.378 50.8298 152.808 50.9927 152.074 50.9927C151.178 50.9927 150.282 50.6668 150.037 49.5261H154.682V48.7112C154.682 46.5112 153.622 45.0446 151.422 45.0446C149.385 45.0446 147.919 46.5927 147.919 48.8742ZM152.563 47.8964H149.956C150.119 46.9186 150.689 46.6742 151.341 46.5927C152.237 46.5927 152.482 47.1631 152.563 47.8964Z" fill="#756C66"/>
<path d="M165.03 45.1261H163.4V42.9261H161.282V44.9631H158.511V42.9261H156.393V44.9631H155.252V46.6742H156.393V49.7705C156.393 51.6446 157.126 52.4594 158.837 52.4594C159.408 52.4594 159.897 52.2964 160.141 52.2149V50.5038H160.059C159.815 50.5853 159.571 50.5853 159.408 50.5853C158.756 50.5853 158.511 50.3409 158.511 49.689V46.7557H161.282V49.852C161.282 51.7261 162.015 52.5409 163.726 52.5409C164.297 52.5409 164.785 52.3779 165.03 52.2964V50.5853H164.948C164.704 50.6668 164.459 50.6668 164.297 50.6668C163.645 50.6668 163.4 50.4223 163.4 49.7705V46.8372H165.03V45.1261Z" fill="#756C66"/>
<path fill-rule="evenodd" clip-rule="evenodd" d="M172.445 49.0372C174.726 49.0372 176.193 47.8149 176.193 45.6149C176.193 43.4149 174.726 42.1927 172.526 42.1927H168.697V52.3779H170.897V49.0372H172.445ZM173.911 45.6964C173.911 46.5927 173.422 47.2446 172.282 47.2446H170.897V44.0668H172.282C173.341 44.0668 173.911 44.7186 173.911 45.6964Z" fill="#756C66"/>
<path fill-rule="evenodd" clip-rule="evenodd" d="M179.045 52.5409C179.859 52.5409 180.511 52.2964 181 51.7261V52.3779H183.037V47.8149C183.037 46.0223 181.897 44.9631 179.697 44.9631C178.719 44.9631 177.741 45.2075 177.171 45.5335V47.2446H177.252C177.822 46.9186 178.556 46.6742 179.289 46.6742C180.511 46.6742 180.919 47.0001 180.919 47.8149V47.9779C180.348 47.8149 179.778 47.7335 179.289 47.7335C177.578 47.7335 176.437 48.6298 176.437 50.0964C176.437 51.6446 177.659 52.5409 179.045 52.5409ZM180.919 49.4446V50.0964C180.756 50.6668 180.267 50.9927 179.615 50.9112C178.963 50.9112 178.556 50.5853 178.556 50.0149C178.556 49.4446 178.963 49.2001 179.697 49.2001C180.185 49.2001 180.593 49.2816 180.919 49.4446Z" fill="#756C66"/>
<path d="M188.008 44.9631C185.808 44.9631 184.178 46.4298 184.178 48.7927C184.178 51.1557 185.808 52.6223 187.926 52.6223C188.741 52.6223 189.393 52.4594 189.963 52.052V50.1779C189.556 50.5038 188.985 50.7483 188.334 50.7483C187.274 50.7483 186.459 50.0149 186.459 48.7927C186.459 47.5705 187.274 46.8372 188.334 46.8372C188.904 46.8372 189.474 47.0816 189.963 47.4075H190.045V45.5335C189.474 45.1261 188.741 44.9631 188.008 44.9631Z" fill="#756C66"/>
<path d="M193.467 52.4594V49.1186L195.667 52.5409H198.111V52.4594L195.504 48.6298L198.111 45.289V45.2075H195.667L193.467 48.0594V42.1927H191.348V52.4594H193.467Z" fill="#756C66"/>
<path fill-rule="evenodd" clip-rule="evenodd" d="M201.045 52.5409C201.859 52.5409 202.511 52.2964 203 51.7261V52.3779H205.037V47.8149C205.037 46.0223 203.897 44.9631 201.697 44.9631C200.719 44.9631 199.741 45.2075 199.171 45.5335V47.2446H199.252C199.822 46.9186 200.556 46.6742 201.289 46.6742C202.511 46.6742 202.919 47.0001 202.919 47.8149V47.9779C202.348 47.8149 201.778 47.7335 201.289 47.7335C199.578 47.7335 198.437 48.6298 198.437 50.0964C198.437 51.6446 199.659 52.5409 201.045 52.5409ZM202.919 49.4446V50.0964C202.756 50.6668 202.267 50.9927 201.615 50.9112C200.963 50.9112 200.556 50.5853 200.556 50.0149C200.556 49.4446 200.963 49.2001 201.697 49.2001C202.185 49.2001 202.593 49.2816 202.919 49.4446Z" fill="#756C66"/>
<path d="M208.785 46.1122C209.186 45.3905 209.735 44.9631 210.497 44.9631C210.822 44.9631 211.067 45.0446 211.23 45.1261V47.1631H211.148C210.904 47.0816 210.578 47.0001 210.171 47.0001C209.519 47.0001 208.948 47.4075 208.785 48.1409V52.3779H206.667V45.0446H208.785V46.1122Z" fill="#756C66"/>
<path fill-rule="evenodd" clip-rule="evenodd" d="M214.815 52.5409C215.793 52.5409 216.445 52.2149 216.934 51.6446V52.2964H219.052V42.0298H216.934V45.6964C216.445 45.2075 215.793 44.8816 214.815 44.8816C213.022 44.8816 211.8 46.5927 211.8 48.7112C211.8 50.8298 212.941 52.5409 214.815 52.5409ZM216.852 47.5705V49.9335C216.526 50.5038 216.037 50.7483 215.467 50.7483C214.571 50.7483 213.919 50.0149 213.919 48.7927C213.919 47.489 214.489 46.8372 215.467 46.8372C216.037 46.8372 216.526 47.0816 216.852 47.5705Z" fill="#756C66"/>
<path d="M121.6 55.8001H115.326V66.0668H121.682V64.8446H116.793V61.4223H121.111V60.2001H116.711V57.0223H121.6V55.8001Z" fill="#756C66"/>
<path d="M129.341 61.5038C129.341 59.7112 128.445 58.652 126.815 58.652C125.837 58.652 125.104 59.2223 124.778 59.8742V58.8149H123.393V66.0668H124.778V61.2594C125.022 60.5261 125.756 59.9557 126.571 59.9557C127.548 59.9557 128.037 60.689 128.037 61.5853V66.0668H129.341V61.5038Z" fill="#756C66"/>
<path d="M134.882 58.8149H133.089V56.9409H131.704V58.8964H130.482V60.0372H131.704V64.0298C131.704 65.4964 132.356 66.2298 134.067 66.2298C134.393 66.2298 134.719 66.1483 134.882 66.0668V64.9261H134.8C134.637 65.0075 134.474 65.0075 134.23 65.0075C133.415 65.0075 133.008 64.6816 133.008 63.8668V59.9557H134.882V58.8149Z" fill="#756C66"/>
<path fill-rule="evenodd" clip-rule="evenodd" d="M135.697 62.5631C135.697 64.8446 137.082 66.2298 139.2 66.2298C140.097 66.2298 140.911 65.9853 141.563 65.7409V64.5186H141.482C140.83 65.0075 140.26 65.1705 139.445 65.1705C138.141 65.1705 137.245 64.4372 137.082 62.9705H141.971V62.3186C141.971 60.2001 140.911 58.7335 138.956 58.7335C137 58.7335 135.697 60.2816 135.697 62.5631ZM140.667 61.7483H137.082C137.326 60.6075 137.978 59.8742 138.956 59.8742C140.097 59.8742 140.585 60.689 140.667 61.7483Z" fill="#756C66"/>
<path d="M144.985 59.7899C145.332 59.1496 145.945 58.7335 146.697 58.7335C146.887 58.7335 147.05 58.7614 147.185 58.7846C147.281 58.801 147.362 58.8149 147.43 58.8149V60.2001H147.348C147.185 60.1186 146.86 60.0372 146.534 60.0372C145.8 60.0372 145.148 60.5261 144.985 61.3409V66.0668H143.6V58.8149H144.985V59.7899Z" fill="#756C66"/>
<path fill-rule="evenodd" clip-rule="evenodd" d="M155.252 62.4001C155.252 60.4446 154.111 58.652 151.993 58.652C151.097 58.652 150.363 59.1409 149.956 59.6298V58.8149H148.571V68.7557H149.956V65.1705C150.363 65.6594 151.097 66.1483 151.993 66.1483C154.111 66.1483 155.252 64.4372 155.252 62.4001ZM153.867 62.4816C153.867 63.9483 153.052 65.0075 151.748 65.0075C151.015 65.0075 150.363 64.5186 149.956 63.8668V61.0964C150.363 60.3631 151.015 59.9557 151.748 59.9557C153.052 59.9557 153.867 61.0149 153.867 62.4816Z" fill="#756C66"/>
<path d="M160.059 58.7335C159.245 58.7335 158.593 59.2223 158.267 59.9557V58.8149H156.882V66.0668H158.267V61.3409C158.43 60.5261 159.082 60.0372 159.815 60.0372C160.141 60.0372 160.467 60.0372 160.63 60.2001H160.793V58.8149C160.725 58.8149 160.644 58.801 160.548 58.7846C160.413 58.7614 160.25 58.7335 160.059 58.7335Z" fill="#756C66"/>
<path d="M163.563 56.6964C163.563 56.289 163.156 55.8816 162.667 55.8816C162.178 55.8816 161.771 56.289 161.771 56.6964C161.771 57.1038 162.178 57.5112 162.667 57.5112C163.156 57.5112 163.563 57.1853 163.563 56.6964Z" fill="#756C66"/>
<path d="M163.4 58.8149H162.015V66.0668H163.4V58.8149Z" fill="#756C66"/>
<path d="M170.408 63.9483C170.408 62.5631 169.267 62.1557 168.208 61.8298C166.985 61.4223 166.497 61.2594 166.578 60.7705C166.578 60.2816 167.067 59.8742 167.882 59.8742C168.697 59.8742 169.43 60.1186 170 60.6075H170.082V59.3038C169.511 58.8964 168.697 58.7335 167.882 58.7335C166.415 58.7335 165.274 59.5483 165.274 60.9335C165.274 62.2372 166.415 62.6446 167.393 62.9705C168.534 63.2964 169.104 63.4594 169.104 64.1112C169.104 64.6816 168.371 65.0075 167.637 65.0075C166.741 65.0075 165.845 64.7631 165.274 64.1927H165.193V65.4964C165.763 65.9038 166.659 66.1483 167.637 66.1483C169.185 66.1483 170.408 65.4149 170.408 63.9483Z" fill="#756C66"/>
<path fill-rule="evenodd" clip-rule="evenodd" d="M171.548 62.5631C171.548 64.8446 172.934 66.2298 175.052 66.2298C175.948 66.2298 176.682 65.9853 177.415 65.7409V64.5186H177.334C176.682 65.0075 176.111 65.1705 175.297 65.1705C173.993 65.1705 173.097 64.4372 172.934 62.9705H177.822V62.3186C177.822 60.2001 176.763 58.7335 174.808 58.7335C172.852 58.7335 171.548 60.2816 171.548 62.5631ZM176.519 61.7483H172.934C173.097 60.6075 173.748 59.8742 174.808 59.8742C175.948 59.8742 176.437 60.689 176.519 61.7483Z" fill="#756C66"/>
</svg>
