<svg width="335" height="94" viewBox="0 0 335 94" fill="none" xmlns="http://www.w3.org/2000/svg">
<path fill-rule="evenodd" clip-rule="evenodd" d="M202.609 59.1337V61H193.318V59.1337H202.609ZM180.311 59.1337V61H171.021V59.1337H180.311ZM187.561 59.1337L186.813 61L186.075 59.1337H187.561ZM166.747 59.1337C165.344 60.3478 163.548 61.0111 161.693 61H146.864V59.1337H166.747ZM145.007 59.1337V61H132V59.1337H145.007V59.1337ZM180.311 55.4V57.2663H171.021V55.4H180.311ZM189.013 55.4L188.29 57.2663H185.346L184.618 55.4H189.012H189.013ZM168.605 55.4C168.437 56.0567 168.175 56.6854 167.825 57.2663H146.864V55.4H168.605ZM145.007 55.4V57.2663H132V55.4H145.007V55.4ZM202.609 55.4V57.2663H193.318V55.4H202.609ZM198.892 51.6663V53.5337H193.318V51.6663H198.893H198.892ZM180.311 51.6663V53.5337H174.737V51.6663H180.312H180.311ZM190.47 51.6663L189.74 53.5337H183.889L183.154 51.6663H190.47V51.6663ZM168.345 51.6663C168.512 52.2628 168.605 52.8873 168.605 53.5337H161.73V51.6663H168.345ZM156.155 51.6663V53.5337H150.581V51.6663H156.157H156.155ZM141.291 51.6663V53.5337H135.715V51.6663H141.291V51.6663ZM198.892 47.9337V49.8H193.318V47.9337H198.893H198.892ZM180.311 47.9337V49.8H174.737V47.9337H180.312H180.311ZM191.926 47.9337L191.199 49.8H182.41L181.69 47.9337H191.926ZM166.059 47.9337C166.701 48.4597 167.252 49.0915 167.676 49.8H150.581V47.9337H166.059ZM141.291 47.9337V49.8H135.715V47.9337H141.291V47.9337ZM186.294 44.2L186.814 45.7096L187.335 44.2H198.892V46.0663H193.318V44.351L192.686 46.0675H180.925L180.311 44.351V46.0675H174.737V44.2H186.296H186.294ZM141.291 44.2V46.0663H135.715V44.2H141.291ZM167.676 44.2C167.248 44.91 166.701 45.5413 166.059 46.0663H150.581V44.2H167.676ZM198.892 40.4663V42.3337H187.979L188.637 40.4663H198.892ZM184.998 40.4663L185.655 42.3337H174.737V40.4663H184.999H184.998ZM168.605 40.4663C168.605 41.1127 168.512 41.7384 168.345 42.3337H161.729V40.4663H168.605ZM156.155 40.4663V42.3337H150.581V40.4663H156.157H156.155ZM141.291 40.4663V42.3337H135.715V40.4663H141.291V40.4663ZM183.711 36.7337L184.356 38.6H171.022V36.7337H183.712H183.711ZM202.609 36.7337V38.6H189.266L189.936 36.7337H202.609V36.7337ZM167.824 36.7337C168.17 37.3096 168.438 37.9365 168.605 38.6H146.866V36.7337H167.824ZM145.007 36.7337V38.6H132V36.7337H145.007V36.7337ZM182.407 33L183.065 34.8663H171.021V33H182.407ZM202.609 33V34.8663H190.58L191.222 33H202.609ZM161.692 33C163.641 33 165.414 33.7073 166.747 34.8663H146.866V33H161.692ZM145.008 33V34.8663H132V33H145.007H145.008Z" fill="#756C66"/>
</svg>
