<svg width="335" height="94" viewBox="0 0 335 94" fill="none" xmlns="http://www.w3.org/2000/svg">
<path d="M174.577 45.9231C173.006 45.9317 172.277 47.0391 172.277 47.6744L176.886 47.6658C176.886 47.0305 176.148 45.9231 174.577 45.9231Z" fill="#756C66"/>
<path d="M184.535 51.9752C184.509 51.9838 184.484 51.9923 184.458 51.9923H184.243V51.7176H184.458C184.484 51.7176 184.509 51.7262 184.535 51.7348C184.561 51.7434 184.578 51.7606 184.587 51.7777C184.604 51.7949 184.604 51.8206 184.604 51.855C184.604 51.8893 184.595 51.9151 184.587 51.9323C184.569 51.9494 184.552 51.9666 184.535 51.9752Z" fill="#756C66"/>
<path fill-rule="evenodd" clip-rule="evenodd" d="M184.887 52.5589C184.947 52.4988 184.999 52.4216 185.033 52.3357C185.067 52.2499 185.085 52.164 185.085 52.061C185.085 51.958 185.067 51.8722 185.033 51.7863C184.999 51.7005 184.947 51.6232 184.887 51.5631C184.827 51.503 184.75 51.4515 184.664 51.4172C184.578 51.3828 184.484 51.3657 184.389 51.3657C184.286 51.3657 184.2 51.3828 184.114 51.4172C184.029 51.4515 183.951 51.503 183.891 51.5631C183.831 51.6232 183.78 51.7005 183.745 51.7863C183.711 51.8722 183.694 51.9666 183.694 52.061C183.694 52.164 183.711 52.2499 183.745 52.3357C183.78 52.4216 183.831 52.4988 183.891 52.5589C183.951 52.619 184.029 52.6705 184.114 52.7048C184.2 52.7392 184.295 52.7564 184.389 52.7564C184.492 52.7564 184.578 52.7392 184.664 52.7048C184.75 52.6705 184.827 52.619 184.887 52.5589ZM184.552 52.1383C184.621 52.1297 184.672 52.1039 184.715 52.061C184.758 52.0181 184.784 51.958 184.784 51.8722C184.784 51.7777 184.758 51.7091 184.698 51.6575C184.647 51.606 184.552 51.5803 184.441 51.5803H184.063V52.5503H184.243V52.1554H184.372L184.612 52.5503H184.801L184.552 52.1383Z" fill="#756C66"/>
<path fill-rule="evenodd" clip-rule="evenodd" d="M189 25H145V69H189V25ZM182.561 40.0857V52.8336H180.269V40.0857H182.561ZM169.444 52.9195V50.7905C169.109 50.7905 168.826 50.7733 168.62 50.739C168.379 50.7047 168.199 50.6188 168.079 50.4986C167.959 50.3785 167.881 50.2068 167.838 49.975C167.804 49.7604 167.787 49.4771 167.787 49.1337V46.1034H169.444V44.1376H167.787V40.7553H165.495V49.1595C165.495 49.872 165.555 50.4729 165.675 50.9536C165.795 51.4258 166.001 51.8121 166.285 52.1039C166.568 52.3958 166.946 52.6018 167.401 52.7306C167.864 52.8594 168.448 52.9195 169.143 52.9195H169.444ZM154.266 52.825V44.1376H151.974V52.825H154.266ZM163.289 44.996C162.653 44.3093 161.761 43.9659 160.627 43.9659C160.078 43.9659 159.572 44.0775 159.125 44.3007C158.67 44.5239 158.292 44.8329 157.983 45.2278L157.863 45.3909V44.1376H155.606V52.825H157.88V48.3611C157.906 47.5456 158.104 46.9447 158.481 46.5584C158.885 46.1463 159.374 45.9403 159.932 45.9403C160.593 45.9403 161.1 46.1463 161.434 46.5412C161.761 46.9361 161.932 47.4941 161.932 48.2066V52.825H164.242V47.8976C164.25 46.6614 163.924 45.6828 163.289 44.996ZM178.758 46.7129C178.972 47.2623 179.084 47.8461 179.084 48.4727V49.2882H172.259L172.285 49.3655C172.431 49.872 172.706 50.284 173.109 50.5759C173.513 50.8764 174.045 51.0223 174.689 51.0223C175.719 51.0223 176.543 50.4643 176.886 50.0523L178.535 51.3056C177.813 52.1297 176.612 53.0139 174.672 53.0139C174.002 53.0139 173.375 52.8937 172.809 52.6533C172.242 52.4216 171.753 52.0954 171.358 51.6919C170.963 51.2884 170.645 50.8077 170.422 50.2583C170.199 49.7089 170.088 49.1166 170.088 48.4899C170.088 47.8632 170.199 47.2709 170.439 46.7215C170.671 46.1721 170.997 45.6914 171.401 45.2879C171.804 44.8844 172.285 44.5668 172.835 44.3264C173.384 44.0947 173.976 43.9745 174.603 43.9745C175.264 43.9745 175.873 44.0861 176.423 44.3179C176.972 44.5496 177.444 44.8673 177.839 45.2793C178.226 45.6914 178.535 46.1721 178.758 46.7129ZM184.99 51.4687C185.067 51.5459 185.127 51.6318 185.17 51.7348C185.213 51.8378 185.239 51.9494 185.239 52.061C185.239 52.1726 185.213 52.2842 185.17 52.3872C185.127 52.4902 185.067 52.5761 184.99 52.6533C184.913 52.7306 184.827 52.7907 184.724 52.8336C184.621 52.8765 184.518 52.9023 184.398 52.9023C184.286 52.9023 184.175 52.8765 184.072 52.8336C183.969 52.7907 183.883 52.7306 183.805 52.6533C183.728 52.5761 183.668 52.4902 183.625 52.3872C183.582 52.2842 183.556 52.1812 183.556 52.061C183.556 51.9494 183.582 51.8378 183.625 51.7348C183.668 51.6318 183.728 51.5459 183.805 51.4687C183.883 51.3914 183.969 51.3313 184.072 51.2884C184.175 51.2455 184.278 51.2197 184.398 51.2197C184.509 51.2197 184.621 51.2455 184.724 51.2884C184.827 51.3313 184.913 51.3914 184.99 51.4687ZM154.326 40.266H151.914V42.6782H154.326V40.266Z" fill="#756C66"/>
</svg>
