<svg id="Layer_1" data-name="Layer 1" xmlns="http://www.w3.org/2000/svg" viewBox="0 0 335 94"><defs><style>.cls-1{fill:#756c66;}</style></defs><path class="cls-1" d="M193.8,52.2c-1.57,0-2.69,0-3.81,0a6.78,6.78,0,0,1-2.77-.54,3.08,3.08,0,0,1-1.9-2.74c0-.21,0-.43,0-.65s.05-.19.18-.2l2.11-.06c.14,0,.19.06.19.19s0,.3,0,.45a1.09,1.09,0,0,0,.79,1.07A5.2,5.2,0,0,0,190,50c2.27,0,4.53,0,6.8,0a3.93,3.93,0,0,0,1.39-.26,1.18,1.18,0,0,0,.82-.95A4.47,4.47,0,0,0,199,47a1,1,0,0,0-.75-.75,7,7,0,0,0-1.82-.16c-1.31,0-2.62,0-3.94,0a27.86,27.86,0,0,1-3.42-.14,5.07,5.07,0,0,1-2.67-.94,2.9,2.9,0,0,1-1-1.73,6.65,6.65,0,0,1-.14-1.08,4.47,4.47,0,0,1,.67-3,3.32,3.32,0,0,1,1.76-1.17,9.24,9.24,0,0,1,2.51-.37c1.61,0,3.23,0,4.84,0a16.87,16.87,0,0,1,2.92.2,4.8,4.8,0,0,1,2.17.88,3,3,0,0,1,1,1.63c.07.25.06.51.12.75s0,.25-.2.25l-2,0c-.21,0-.31-.05-.32-.29a1,1,0,0,0-.86-.94,12.71,12.71,0,0,0-3-.26c-1.37,0-2.74,0-4.11,0a10.59,10.59,0,0,0-1.77.16,1.4,1.4,0,0,0-1.28,1.39,7,7,0,0,0,0,1,1,1,0,0,0,.73.94,4.15,4.15,0,0,0,1.35.22l6.72,0a8.32,8.32,0,0,1,2.28.26,3.6,3.6,0,0,1,2.34,1.61,3,3,0,0,1,.41,1.39,10.4,10.4,0,0,1-.06,2.23,3.19,3.19,0,0,1-1.67,2.32,5.71,5.71,0,0,1-2.36.62C196.11,52.26,194.73,52.18,193.8,52.2Z"/><path class="cls-1" d="M174.78,52.2h-3.31a7.73,7.73,0,0,1-2.39-.35,3.25,3.25,0,0,1-2.31-2.46,4.68,4.68,0,0,1-.11-1.12c0-.15.07-.19.19-.2L169,48c.17,0,.2.07.19.21a1.7,1.7,0,0,0,.17,1,1.5,1.5,0,0,0,1.14.67,8.25,8.25,0,0,0,1.92.1c1.94,0,3.88,0,5.82,0a3.62,3.62,0,0,0,1.55-.32,1.19,1.19,0,0,0,.71-1,5,5,0,0,0,0-1.45,1,1,0,0,0-.61-.82,3.06,3.06,0,0,0-1.27-.21c-1.58,0-3.16,0-4.74,0a29.13,29.13,0,0,1-3.37-.14,5,5,0,0,1-2.69-1,2.77,2.77,0,0,1-.89-1.36,6.12,6.12,0,0,1,0-3.57,3,3,0,0,1,1.94-1.9,8.3,8.3,0,0,1,2.75-.45c1.62-.06,3.24,0,4.86,0a13.73,13.73,0,0,1,3.38.3,3.27,3.27,0,0,1,2.65,2.25,3.5,3.5,0,0,1,.15,1c0,.14-.05.2-.19.2l-2.08,0c-.13,0-.21,0-.23-.18s-.06-.19-.07-.29c-.07-.49-.42-.66-.84-.77a11.9,11.9,0,0,0-3-.26c-1.39,0-2.78,0-4.17,0a6.41,6.41,0,0,0-1.89.24,1.31,1.31,0,0,0-1.05,1.29,3.37,3.37,0,0,0,.08,1.34.89.89,0,0,0,.46.56,3.52,3.52,0,0,0,1.53.3c2.21,0,4.43,0,6.65,0a8.72,8.72,0,0,1,2.33.25,3.49,3.49,0,0,1,2.49,1.85A3.27,3.27,0,0,1,183,47a9.15,9.15,0,0,1,0,2.09,3.82,3.82,0,0,1-.5,1.43,3.27,3.27,0,0,1-1.67,1.28,8.77,8.77,0,0,1-3.17.45h-2.81Z"/><path class="cls-1" d="M141.75,42.83a8.63,8.63,0,0,1-.92-1.07c-.64-.76-1.27-1.54-1.89-2.32s-1.3-1.6-1.94-2.41c-.08-.1-.28-.19-.22-.31s.26,0,.4,0h11.18a.42.42,0,0,1,.35.14l1.53,1.91h-8.12a1.08,1.08,0,0,0-.18,0c-.13,0-.19.08-.09.2a.92.92,0,0,0,.39.34c0,.3.28.45.43.67s.4.49.6.74a.32.32,0,0,0,.28.14c1.2-.07,2.4,0,3.6,0h4.51a.48.48,0,0,1,.46.23c.75.93,1.52,1.85,2.27,2.78s1.64,2,2.45,3c0,.06.12.1.11.19l-.45,0H145.88a5.3,5.3,0,0,1-.8,0c-.46-.64-1-1.23-1.46-1.84-.05-.06-.16-.11-.13-.2s.16-.07.24-.07h7.85c.09,0,.2.05.25,0s-.06-.16-.11-.22l-1.23-1.52a2.13,2.13,0,0,1-.16-.25,1.27,1.27,0,0,1,.26-.39c0-.06.12-.1.08-.19s-.12,0-.18,0h-8A.81.81,0,0,0,141.75,42.83Z"/><path class="cls-1" d="M145.08,47a5.3,5.3,0,0,0,.8,0H156.5l.45,0a4.26,4.26,0,0,1-.57.77c-.29.39-.62.75-.93,1.12a.48.48,0,0,1-.41.18h-8a.43.43,0,0,0-.38.15c-.47.58-1,1.15-1.43,1.73a.58.58,0,0,0-.05.14c-.13,0-.18.17-.27.25s-.15.12-.12.2.14,0,.22,0H153c.07,0,.14,0,.18.06l-3.41,4.18-1.07,1.32a.36.36,0,0,1-.31.16H136.91s-.12,0-.15,0,0-.07,0-.1l1.55-1.87c.09,0,.13.09.17.16a.74.74,0,0,0,.75.42c1.24,0,2.49,0,3.73,0l4,0c.08,0,.18,0,.23,0s0-.15-.07-.22a1.68,1.68,0,0,1-.22-.42c.4-.44.76-.91,1.12-1.37l.37-.44c.05,0,.12-.12.07-.2s-.12,0-.19,0h-8.07l-.11,0a2.31,2.31,0,0,1,.38-.53c1.51-1.84,3-3.69,4.52-5.54Z"/><path class="cls-1" d="M163.4,45v6.9c0,.34,0,.35-.35.35h-2c-.3,0-.33,0-.33-.33V42c0-1.32,0-2.65,0-4,0-.24.08-.33.32-.32h2c.24,0,.31.08.31.32Z"/><path class="cls-1" d="M141.65,47.06c-.37.46-.74.93-1.12,1.39l-3.31,4.1-.45.54a.31.31,0,0,1-.29.11h-2.93c-.06,0-.13,0-.15,0s0-.11.07-.15c.8-1,1.61-2,2.42-3l2.42-3h3.34Z"/><path class="cls-1" d="M141.65,47.06h-3.34c-.07-.33-.34-.52-.53-.77s-.63-.77-.95-1.15c0,0-.12-.1-.08-.19s.12,0,.19,0h2.88a.3.3,0,0,1,.27.1l1.55,2A.17.17,0,0,1,141.65,47.06Z"/><path class="cls-1" d="M146.93,55.24a1.68,1.68,0,0,0,.22.42c0,.07.12.13.07.22s-.15,0-.23,0l-4,0c-1.24,0-2.49,0-3.73,0a.74.74,0,0,1-.75-.42c0-.07-.08-.14-.17-.16.06-.13.19-.08.29-.08h8.29Z"/><path class="cls-1" d="M141.75,42.83a.81.81,0,0,1,.74-.6h8c.06,0,.14,0,.18,0s0,.13-.08.19a1.27,1.27,0,0,0-.26.39h-8.39A.27.27,0,0,1,141.75,42.83Z"/><path class="cls-1" d="M142.24,39.28a.92.92,0,0,1-.39-.34c-.1-.12,0-.19.09-.2a1.08,1.08,0,0,1,.18,0h8.12a.66.66,0,0,1-.57.52h-5.06Z"/><path class="cls-1" d="M153.21,51.67c0-.07-.11-.06-.18-.06H145c-.08,0-.19.06-.22,0s.05-.15.12-.2.14-.21.27-.25h8.23c.07,0,.17,0,.21,0s-.06.13-.1.18Z"/><path class="cls-1" d="M176.19,55.48v.68c0,.07,0,.18-.08.21a.25.25,0,0,1-.29-.09l-.57-.76c-.05-.06-.07-.17-.17-.15s-.06.14-.06.21v.6c0,.14-.05.2-.19.2s-.2-.05-.2-.19c0-.49,0-1,0-1.45,0-.07,0-.15.08-.16s.25,0,.34.1.32.46.49.68.09.17.19.15.06-.14.06-.21a3.84,3.84,0,0,0,0-.48c0-.15,0-.25.2-.25s.19.1.19.23,0,.46,0,.68Z"/><path class="cls-1" d="M163.14,55.47c0,.23,0,.46,0,.7,0,.07,0,.18-.09.2a.23.23,0,0,1-.26-.08c-.2-.27-.41-.53-.6-.8-.05-.06-.07-.15-.17-.12s-.05.11-.05.18,0,.41,0,.62-.07.21-.21.21-.18-.09-.18-.21V54.81c0-.08,0-.2.09-.23a.29.29,0,0,1,.34.11c.16.23.34.46.51.7.05.06.08.14.17.12s.05-.13.06-.2,0-.38,0-.57.11-.16.22-.17.18,0,.18.17S163.14,55.22,163.14,55.47Z"/><path class="cls-1" d="M181.77,55.45v-.7c0-.07,0-.17.1-.17.4,0,.81-.09,1.17.19a.84.84,0,0,1,.38.91,1,1,0,0,1-.83.69c-.82.09-.82.09-.82-.72v-.2Zm.63-.49c-.09,0-.21,0-.21.14v.8a.12.12,0,0,0,.12.13.62.62,0,0,0,.7-.45C183,55.16,182.85,55,182.4,55Z"/><path class="cls-1" d="M172.91,55.45V54.8c0-.16.05-.23.22-.23h1c.13,0,.21,0,.2.18s-.05.22-.21.21a4.69,4.69,0,0,0-.53,0c-.12,0-.23,0-.23.17s.09.19.22.18H174c.13,0,.21,0,.21.18s-.09.16-.2.15h-.4c-.14,0-.26,0-.26.19s.1.21.25.21h.53c.11,0,.2,0,.19.17s0,.2-.19.2c-.32,0-.64,0-1,0-.17,0-.22-.09-.22-.23Z"/><path class="cls-1" d="M196.8,55.48v.62c0,.11,0,.23-.12.27a.26.26,0,0,1-.28-.12l-.51-.65c-.06-.08-.11-.22-.24-.17s-.05.17-.05.26a4.17,4.17,0,0,0,0,.5c0,.14-.07.19-.2.19s-.18-.08-.18-.19c0-.48,0-1,0-1.45,0-.07,0-.14.1-.16a.31.31,0,0,1,.32.1l.53.72c.05.07.1.16.2.13s0-.12,0-.19a4.69,4.69,0,0,0,0-.53c0-.15,0-.24.2-.24s.19.11.19.25S196.8,55.26,196.8,55.48Z"/><path class="cls-1" d="M186.34,54.57a.94.94,0,0,1,1,.91,1,1,0,0,1-1,.91.9.9,0,0,1-.91-.9A.89.89,0,0,1,186.34,54.57Zm0,1.47a.55.55,0,0,0,.52-.56.56.56,0,0,0-.55-.56.58.58,0,0,0-.53.57A.56.56,0,0,0,186.36,56Z"/><path class="cls-1" d="M172.56,55.76c0,.37-.11.5-.49.61a1,1,0,0,1-1.19-.68.93.93,0,0,1,.63-1.09.91.91,0,0,1,.77.07c.08,0,.21.11.15.21s-.13.25-.33.13a.53.53,0,0,0-.76.18.58.58,0,0,0,.27.82.61.61,0,0,0,.46,0c.11,0,.1-.13.1-.23s-.09-.1-.17-.1-.22,0-.22-.15.11-.18.24-.18h.12C172.58,55.34,172.56,55.29,172.56,55.76Z"/><path class="cls-1" d="M165.24,55.45c0-.23,0-.47,0-.7s0-.18.16-.18h1c.12,0,.21,0,.21.18s-.08.21-.22.21h-.55c-.11,0-.2,0-.2.16s.06.2.2.19h.47c.15,0,.2.08.2.2s-.1.14-.2.13-.31,0-.47,0-.2.07-.2.21.07.19.2.19h.58a.17.17,0,0,1,.19.2c0,.13-.07.17-.19.16h-1c-.13,0-.18-.05-.18-.18Z"/><path class="cls-1" d="M198.92,55.46v-.7c0-.09,0-.18.13-.18a2.14,2.14,0,0,1,1,.11.86.86,0,0,1,0,1.59,2.3,2.3,0,0,1-.94.09c-.12,0-.15-.07-.15-.18Zm.65-.49c-.11,0-.26,0-.26.16v.73c0,.11.05.16.16.17a.62.62,0,0,0,.7-.5A.54.54,0,0,0,199.57,55Z"/><path class="cls-1" d="M183.77,55.45c0-.23,0-.45,0-.68s0-.2.19-.2h1c.13,0,.17.06.17.18s0,.22-.18.21h-.6c-.13,0-.18,0-.17.17s0,.19.16.18h.5c.14,0,.18.06.19.18s-.07.16-.18.15-.34,0-.5,0-.16.13-.17.25.06.18.2.16a5.43,5.43,0,0,1,.57,0c.12,0,.19.05.19.18s-.06.19-.2.19H184c-.17,0-.22-.06-.22-.22S183.77,55.68,183.77,55.45Z"/><path class="cls-1" d="M189,55.48v-.73c0-.08,0-.18.12-.17a2.4,2.4,0,0,1,.88.08.9.9,0,0,1,.63.9,1,1,0,0,1-.92.81c-.71.05-.71.05-.71-.67v-.22Zm.39,0v.15c0,.13-.07.3.09.36a.5.5,0,0,0,.51-.09.82.82,0,0,0,.22-.27c.11-.21,0-.39-.14-.54a.56.56,0,0,0-.57-.15c-.19,0-.08.25-.1.39A.76.76,0,0,0,189.42,55.5Z"/><path class="cls-1" d="M191,55.48c0-.23,0-.45,0-.68s0-.23.22-.22h.95c.12,0,.18,0,.19.17s0,.21-.19.21a1.82,1.82,0,0,1-.52,0c-.13,0-.23,0-.25.14s.07.22.23.21h.45a.17.17,0,0,1,0,.34h-.48c-.18,0-.2.1-.2.24s.09.2.23.17a1.7,1.7,0,0,1,.55,0c.12,0,.18.06.18.19s-.06.18-.19.18c-.32,0-.65,0-1,0-.14,0-.19-.07-.19-.2S191,55.71,191,55.48Z"/><path class="cls-1" d="M197.9,54.58h.47c.12,0,.2,0,.19.16s-.05.22-.18.22a2.35,2.35,0,0,1-.53,0c-.12,0-.23,0-.24.16s.08.2.22.19h.43a.16.16,0,0,1,.19.17c0,.13-.06.17-.19.17h-.47c-.17,0-.19.11-.19.24s.09.2.22.17a3.26,3.26,0,0,1,.54,0c.12,0,.21,0,.21.19s-.07.19-.21.19c-.31,0-.63,0-1,0-.14,0-.2-.06-.19-.19V54.76c0-.13.05-.18.18-.18Z"/><path class="cls-1" d="M179.08,54.58c.23,0,.26.11.31.23s.17.5.26.75c0,.06,0,.14.12.14s.1-.08.13-.15l.27-.8c.07-.2.23-.19.39-.17s.08.06.05.13c-.21.51-.42,1-.62,1.54-.05.12-.13.13-.24.14s-.16-.06-.2-.16c-.21-.49-.42-1-.62-1.49C178.84,54.51,179,54.61,179.08,54.58Z"/><path class="cls-1" d="M192.7,55.44c0-.22,0-.45,0-.67s.06-.2.2-.19h1c.12,0,.19,0,.19.16s0,.23-.19.23h-.55c-.15,0-.22.07-.22.21s.11.2.25.16a1.29,1.29,0,0,1,.39,0,.19.19,0,0,1,.21.22c0,.15-.1.16-.21.16h-.07c-.17,0-.37-.07-.49,0s0,.3-.05.45-.09.22-.24.22-.18-.09-.19-.21Z"/><path class="cls-1" d="M177.24,54.58h.52c.15,0,.22,0,.22.2s0,.21-.21.2c-.34,0-.34,0-.34.34s0,.56,0,.85-.06.22-.22.22-.18-.1-.18-.23c0-.31,0-.62,0-.92s-.07-.29-.28-.27-.27,0-.27-.19.05-.2.19-.19Z"/><path class="cls-1" d="M164.21,54.58h.52c.14,0,.21,0,.2.19s0,.21-.19.21c-.35,0-.35,0-.35.35v.83c0,.15,0,.23-.2.23s-.2-.1-.2-.24c0-.31,0-.62,0-.93s-.05-.28-.25-.25-.19,0-.25-.06a.29.29,0,0,1,0-.24c0-.09.11-.08.19-.08Z"/><path class="cls-1" d="M170.08,55.46v-.7c0-.13,0-.2.19-.19s.23,0,.22.19c0,.46,0,.93,0,1.4,0,.15-.06.22-.22.22s-.19-.1-.19-.22S170.08,55.69,170.08,55.46Z"/><path class="cls-1" d="M194.37,55.44v-.68c0-.16.09-.18.22-.18s.2.05.2.19v1.38c0,.13,0,.23-.2.23s-.22-.09-.22-.24Z"/><path class="cls-1" d="M168.88,54.62a1.78,1.78,0,0,1,0,.76c0,.6,0,.61.6.61.16,0,.29,0,.29.21s-.14.19-.28.19h-.78c-.18,0-.25-.06-.25-.25,0-.44,0-.88,0-1.32,0-.27.08-.32.35-.22-.12,0-.28-.05-.28.17,0,.46,0,.91,0,1.36,0,.12,0,.18.17.18h.83c.1,0,.17,0,.17-.14s-.08-.11-.16-.11h-.5c-.17,0-.22-.06-.22-.22C168.88,55.44,168.88,55,168.88,54.62Z"/><path class="cls-1" d="M161,56.37h-.15a.63.63,0,0,1-.08-.23c0-.5,0-1,0-1.51h0c.19-.06.26,0,.26.21,0,.43,0,.85,0,1.28A.56.56,0,0,1,161,56.37Z"/><path class="cls-1" d="M181.35,55.49v.7c0,.15-.06.2-.21.2s-.23,0-.23-.19V54.73c0-.16.1-.18.23-.18s.22.06.22.21S181.35,55.24,181.35,55.49Zm-.08,0v-.7c0-.1,0-.18-.14-.18s-.15.07-.15.18v1.35c0,.1,0,.18.15.18s.15-.07.14-.18Z"/><path class="cls-1" d="M168.17,56.06q.17.31-.15.33h-.9c-.15,0-.21-.06-.22-.2,0-.48,0-1,0-1.45,0-.2.13-.24.35-.12h0c-.14,0-.27-.07-.27.15,0,.45,0,.9,0,1.35,0,.13.05.18.18.18.28,0,.55,0,.83,0s.21-.07.17-.23Z"/><path class="cls-1" d="M167.26,54.62c.12,0,.09.15.09.23,0,.32,0,.63,0,.95,0,.15.06.19.21.2s.43-.08.62.06v0a2,2,0,0,0-.6,0c-.21,0-.29,0-.29-.28a5.64,5.64,0,0,0,0-1.16Z"/><path class="cls-1" d="M161,56.37a.56.56,0,0,0,.07-.26c0-.43,0-.85,0-1.28,0-.18-.07-.27-.26-.21.2-.12.32-.08.33.14,0,.48,0,1,0,1.43C161.17,56.27,161.17,56.38,161,56.37Z"/><path class="cls-1" d="M187.86,56.18c0,.09,0,.21-.18.2s-.21-.09-.22-.23.1-.19.22-.2S187.87,56,187.86,56.18Z"/><path class="cls-1" d="M201,56c.12,0,.23,0,.23.19s-.06.23-.22.24-.21-.06-.22-.22S200.85,56,201,56Z"/><path class="cls-1" d="M160.81,54.63c0,.5,0,1,0,1.51a.63.63,0,0,0,.08.23c-.14,0-.15-.09-.15-.18V54.72C160.73,54.66,160.75,54.62,160.81,54.63Z"/><path class="cls-1" d="M168.88,54.62c0,.41,0,.82,0,1.23,0,.16,0,.23.22.22h.5c.08,0,.16,0,.16.11s-.07.14-.17.14h-.83c-.13,0-.17-.06-.17-.18,0-.45,0-.9,0-1.36,0-.22.16-.16.28-.17Z"/><path class="cls-1" d="M181.27,55.48v.65c0,.11,0,.18-.14.18s-.15-.08-.15-.18V54.78c0-.11,0-.18.15-.18s.15.08.14.18Z"/><path class="cls-1" d="M167.25,54.63a5.64,5.64,0,0,1,0,1.16c0,.23.08.29.29.28a2,2,0,0,1,.6,0c0,.16,0,.23-.17.23s-.55,0-.83,0c-.13,0-.18-.05-.18-.18,0-.45,0-.9,0-1.35C167,54.56,167.11,54.59,167.25,54.63Z"/></svg>