<svg width="335" height="94" viewBox="0 0 335 94" fill="none" xmlns="http://www.w3.org/2000/svg">
<path fill-rule="evenodd" clip-rule="evenodd" d="M192.611 42.7045C192.611 36.0861 194.502 31 202.962 31C211.716 31 212.01 36.8686 211.961 43.0795H194.632C194.681 48.5405 196.034 52.6159 203.142 52.6159C206.924 52.6159 208.652 51.5889 210.494 50.2359L211.651 51.7519C209.597 53.268 207.168 54.458 203.142 54.458C194.257 54.458 192.611 49.323 192.611 42.7045ZM194.681 41.1885H209.972C209.76 36.7056 209.483 32.891 202.946 32.891C196.654 32.891 194.926 36.298 194.681 41.1885Z" fill="#756C66"/>
<path d="M214.928 40.4875C214.928 34.9776 215.303 31.0815 224.008 31.0815C224.758 31.0815 225.442 31.1141 226.078 31.163V33.1192C225.458 33.0377 224.774 33.0051 224.008 33.0051C216.975 33.0051 216.978 36.1873 216.982 40.217C216.982 40.3067 216.982 40.3969 216.982 40.4875V54.0015H214.928V40.4875Z" fill="#756C66"/>
<path fill-rule="evenodd" clip-rule="evenodd" d="M196.458 56.5935C194.469 56.5935 193.344 57.5879 193.344 59.7886C193.344 62.0056 194.469 63 196.458 62.9837C198.447 62.9837 199.588 62.0056 199.588 59.7886C199.588 57.5879 198.447 56.5935 196.458 56.5935ZM196.458 57.2292C198.137 57.2292 198.92 58.1258 198.92 59.8049C198.92 61.484 198.137 62.3805 196.458 62.3968C194.779 62.3968 194.013 61.484 194.013 59.8049C194.013 58.1258 194.779 57.2292 196.458 57.2292Z" fill="#756C66"/>
<path d="M166.43 56.6913H167.148L170.848 61.7937V56.6913H171.484V62.8859H170.881L167.066 57.6205V62.8859H166.43V56.6913Z" fill="#756C66"/>
<path d="M173.065 56.6913H177.157V57.3107H173.717V59.3647H177.075V59.9842H173.717V62.2827H177.19V62.8859H173.065V56.6913Z" fill="#756C66"/>
<path d="M178.151 57.327H180.466V62.9022H181.134V57.327H183.466V56.7076H178.151V57.327Z" fill="#756C66"/>
<path d="M184.264 56.6913H184.949L186.579 61.81L188.242 56.6913H188.813L190.475 61.81L192.122 56.6913H192.758L190.769 62.9348H190.182L188.503 57.7672L186.84 62.9348H186.269L184.264 56.6913Z" fill="#756C66"/>
<path fill-rule="evenodd" clip-rule="evenodd" d="M203.419 60.3591H201.56V62.8859H200.908V56.6913H203.582C205.016 56.6913 205.668 57.2618 205.668 58.5008C205.668 59.5767 205.163 60.1961 204.087 60.3428L205.587 62.8859H204.886L203.419 60.3591ZM203.614 59.756C204.495 59.756 205.033 59.4952 205.033 58.5171C205.033 57.5553 204.511 57.3107 203.582 57.3107H201.56V59.7723H203.614V59.756Z" fill="#756C66"/>
<path d="M207.739 60.9623L208.978 59.6093L211.195 62.8859H211.944L209.418 59.1202L211.635 56.7076H210.869L207.739 60.1309V56.7076H207.103V62.9022H207.739V60.9623Z" fill="#756C66"/>
<path d="M212.482 62.2664L212.825 61.7611C213.575 62.2338 214.292 62.3805 215.042 62.3805C216.33 62.3805 216.884 62.0219 216.884 61.1742C216.884 60.2939 216.15 60.1635 215.042 59.9679C213.705 59.7397 212.808 59.5115 212.808 58.2562C212.808 57.0662 213.575 56.5935 215.042 56.5935C216.02 56.5935 216.705 56.8054 217.194 57.1477L216.835 57.6857C216.395 57.3923 215.726 57.1966 215.025 57.1966C213.917 57.1966 213.444 57.5064 213.444 58.2399C213.444 59.0224 214.096 59.1691 215.188 59.381C216.542 59.6256 217.52 59.8212 217.52 61.1579C217.52 62.3805 216.737 62.9837 215.042 62.9837C214.113 62.9674 213.281 62.7881 212.482 62.2664Z" fill="#756C66"/>
<path d="M122.4 45.215V31.538H124.503L124.503 45.3168C124.503 49.2386 124.503 52.5344 131.692 52.5344C138.724 52.5344 138.721 49.3522 138.718 45.3225L138.718 31.538H140.772V45.052C140.772 50.5619 140.397 54.458 131.692 54.458C122.938 54.458 122.4 50.5619 122.4 45.215Z" fill="#756C66"/>
<path d="M162.616 54.0015V40.3245C162.616 34.9939 162.078 31.0815 153.324 31.0815C144.619 31.0815 144.244 34.9776 144.244 40.4875V54.0178H146.298V40.5038C146.298 40.4172 146.298 40.3309 146.298 40.2449L146.298 40.2333C146.294 36.2035 146.292 33.0214 153.324 33.0214C160.514 33.0214 160.513 36.3027 160.513 40.213L160.513 54.0015H162.616Z" fill="#756C66"/>
<path d="M166.43 31.5706H168.436V54.0015H166.43V31.5706Z" fill="#756C66"/>
<path fill-rule="evenodd" clip-rule="evenodd" d="M182.699 31.5706H172.201V54.0015H174.206V46.2094H182.667C187.932 46.2094 190.263 43.3892 190.263 38.7596C190.263 34.1625 187.916 31.5706 182.699 31.5706ZM188.16 38.8574C188.16 42.4437 186.367 44.2043 182.732 44.2043H174.206V33.592H182.634C186.221 33.592 188.16 35.2873 188.16 38.8574Z" fill="#756C66"/>
<path d="M118.862 49.4697C118.862 54.9796 118.488 58.8757 109.782 58.8757H109V56.9358C109.244 56.9521 109.505 56.9521 109.782 56.9521C116.815 56.9521 116.812 53.77 116.809 49.7403V49.7393C116.809 49.6499 116.808 49.56 116.808 49.4697V31.538H118.862V49.4697Z" fill="#756C66"/>
<path fill-rule="evenodd" clip-rule="evenodd" d="M221.122 52.8767H221.579L221.954 53.4799H222.182L221.807 52.8441C222.084 52.7952 222.198 52.6159 222.198 52.3551C222.198 52.029 222.035 51.866 221.628 51.866H220.91V53.4962H221.122V52.8767ZM221.97 52.3714C221.97 52.6159 221.856 52.6811 221.628 52.6811V52.6648H221.106V52.0779H221.611C221.84 52.0779 221.97 52.1431 221.97 52.3714Z" fill="#756C66"/>
<path fill-rule="evenodd" clip-rule="evenodd" d="M221.481 54.1156C220.698 54.1156 220.063 53.4799 220.063 52.6974C220.063 51.9149 220.698 51.2792 221.481 51.2792C222.263 51.2792 222.899 51.9149 222.899 52.6974C222.899 53.4799 222.263 54.1156 221.481 54.1156ZM221.481 51.4585C220.796 51.4585 220.242 52.0127 220.242 52.6974C220.242 53.3821 220.796 53.9363 221.481 53.9363C222.166 53.9363 222.72 53.3821 222.72 52.6974C222.72 52.0127 222.166 51.4585 221.481 51.4585Z" fill="#756C66"/>
</svg>
