<?xml version="1.0" encoding="utf-8"?>
<!-- Generator: Adobe Illustrator 24.1.0, SVG Export Plug-In . SVG Version: 6.00 Build 0)  -->
<svg  width="335" height="94" version="1.1" id="Layer_1" xmlns="http://www.w3.org/2000/svg" xmlns:xlink="http://www.w3.org/1999/xlink" x="0px" y="0px"
	 viewBox="0 0 335 95" style="enable-background:new 0 0 335 95;" xml:space="preserve">
<style type="text/css">
	.st0{fill:#756C66;}
	.st1{fill:none;stroke:#606060;stroke-miterlimit:10;}
</style>
<g>
	<path class="st0" d="M151.74,34.79c0.17,0.01,0.34,0.03,0.52,0.04c2.64,0.21,4.99,1.13,7.04,2.8c2.23,1.81,3.68,4.12,4.37,6.91
		c0.28,1.16,0.39,2.34,0.33,3.53c-0.23,5.22-3.68,9.79-8.63,11.45c-0.85,0.29-1.73,0.48-2.62,0.58c-0.04,0.01-0.09,0-0.14,0
		c-0.83,0-1.66,0-2.49,0c-0.52,0-1.03-0.1-1.54-0.21c-2.52-0.55-4.68-1.75-6.46-3.61c-1.74-1.81-2.85-3.96-3.33-6.43
		c-0.22-1.15-0.28-2.32-0.17-3.49c0.3-3.12,1.56-5.79,3.8-7.99c1.52-1.49,3.32-2.52,5.37-3.11c0.95-0.27,1.92-0.43,2.9-0.47
		c0.05,0,0.1-0.01,0.16-0.02C151.15,34.79,151.44,34.79,151.74,34.79z M160.92,48c-0.18,4.5-3.78,8.68-8.85,9.1
		c-5.06,0.42-9.5-3.17-10.3-7.98c-0.4-2.42,0.01-4.71,1.36-6.77c2.03-3.1,4.97-4.55,8.66-4.5c0-0.32,0-0.65,0-0.97
		c-3-0.22-7.34,1.13-9.76,5.36c-2.38,4.16-1.69,9.31,1.66,12.74c3.27,3.34,8.47,4.14,12.59,1.92c4.33-2.33,5.82-6.62,5.64-9.87
		c-2.53,0-5.06,0-7.59,0c0,0.33,0,0.65,0,0.98C156.54,48,158.72,48,160.92,48z M151.8,52.07c0-0.07,0-0.12,0-0.17
		c0-2.11,0-4.21,0-6.32c0-1.17,0-2.34,0-3.52c0-0.15,0-0.15-0.14-0.15c-0.25,0-0.51,0-0.76,0c-0.04,0-0.08,0-0.12,0.01
		c0,3.72,0,7.43,0,11.14c1.18,0,2.36,0,3.54,0c0-0.33,0-0.66,0-1C153.48,52.07,152.65,52.07,151.8,52.07z M148.75,43.45
		c0-0.84-0.68-1.53-1.51-1.54c-0.85,0-1.54,0.68-1.54,1.53c0,0.84,0.69,1.53,1.53,1.53C148.06,44.97,148.75,44.29,148.75,43.45z"/>
	<path class="st0" d="M196.5,54.27c-1.04,0.68-2.2,1.04-3.4,1.28c-0.79,0.16-1.58,0.25-2.38,0.28c-1.31,0.05-2.6-0.04-3.87-0.42
		c-1.2-0.36-2.24-0.97-3.06-1.93c-0.69-0.8-1.12-1.73-1.4-2.74c-0.18-0.64-0.28-1.28-0.34-1.94c-0.07-0.67-0.08-1.34-0.06-2.01
		c0.04-1.25,0.23-2.48,0.7-3.65c0.82-2.02,2.3-3.3,4.38-3.91c0.63-0.18,1.27-0.29,1.92-0.34c0.7-0.06,1.39-0.07,2.09-0.02
		c1.17,0.09,2.3,0.33,3.35,0.88c0.79,0.41,1.46,0.96,1.99,1.69c0.01,0.02,0.03,0.04,0.04,0.06c0.01,0.01,0.01,0.02,0.02,0.04
		c-0.78,0.72-1.56,1.43-2.35,2.16c-0.1-0.11-0.19-0.22-0.29-0.33c-0.66-0.73-1.48-1.16-2.45-1.32c-0.69-0.11-1.39-0.12-2.08-0.04
		c-0.63,0.07-1.23,0.24-1.78,0.58c-0.71,0.44-1.16,1.07-1.44,1.84c-0.2,0.56-0.31,1.14-0.36,1.73c-0.06,0.64-0.07,1.27-0.04,1.91
		c0.04,0.75,0.14,1.5,0.4,2.21c0.45,1.22,1.32,1.93,2.57,2.22c0.64,0.15,1.29,0.18,1.94,0.16c0.78-0.03,1.54-0.15,2.29-0.38
		c0.11-0.04,0.16-0.08,0.16-0.21c-0.01-0.86,0-1.73,0-2.59c0-0.17,0-0.17-0.18-0.17c-0.92,0-1.85,0-2.77,0c-0.2,0-0.17,0-0.17-0.17
		c0-0.91,0-1.82,0-2.73c0-0.15,0-0.15,0.15-0.15c2.09,0,4.17,0,6.26,0c0.06,0,0.11,0,0.17,0C196.5,48.91,196.5,51.59,196.5,54.27z"
		/>
	<path class="st0" d="M173.57,52.4c0.07,0,0.12,0,0.17,0c2.53,0,5.07,0,7.6,0c0.15,0,0.15,0,0.15,0.15c0,0.97,0,1.94,0,2.91
		c0,0.04,0,0.08,0,0.14c-0.05,0-0.09,0.01-0.12,0.01c-3.82,0-7.64,0-11.46,0c-0.13,0-0.13,0-0.13-0.17c0-4.17,0-8.34,0-12.51
		c0-1.23,0-2.46,0-3.69c0-0.16,0-0.16,0.16-0.16c1.16,0,2.32,0,3.48,0c0.15,0,0.15,0,0.15,0.15c0,4.33,0,8.66,0,12.99
		C173.57,52.27,173.57,52.33,173.57,52.4z"/>
</g>
</svg>
