<?xml version="1.0" standalone="no"?>
<!DOCTYPE svg PUBLIC "-//W3C//DTD SVG 20010904//EN"
 "http://www.w3.org/TR/2001/REC-SVG-20010904/DTD/svg10.dtd">
<svg version="1.0" xmlns="http://www.w3.org/2000/svg"
 width="512.000000pt" height="512.000000pt" viewBox="0 0 512.000000 512.000000"
 preserveAspectRatio="xMidYMid meet">

<g transform="translate(0.000000,512.000000) scale(0.100000,-0.100000)"
fill="#000000" stroke="none">
<path d="M1170 4894 c-30 -8 -73 -26 -95 -39 -59 -35 -799 -781 -823 -830 -43
-87 -43 -83 -40 -1845 3 -1562 4 -1688 20 -1728 40 -100 121 -181 218 -219 42
-17 135 -18 1575 -21 1600 -3 1605 -3 1689 40 61 31 133 105 163 167 25 51 27
69 31 198 4 141 4 142 -21 167 -32 31 -56 33 -91 5 -25 -20 -26 -23 -26 -132
0 -62 -5 -129 -11 -150 -13 -47 -60 -102 -110 -128 -38 -19 -69 -19 -1598 -17
l-1559 3 -43 30 c-23 17 -53 50 -66 74 l-23 44 0 1698 0 1698 288 3 287 3 60
28 c78 36 146 104 182 181 l28 61 3 288 3 287 1200 0 c1168 0 1201 -1 1238
-19 50 -26 97 -81 110 -128 7 -24 11 -226 11 -559 0 -492 1 -523 18 -545 26
-31 78 -31 104 1 18 22 19 48 16 579 -3 550 -3 556 -25 604 -29 62 -106 143
-163 172 -25 12 -69 28 -98 34 -38 8 -393 11 -1225 10 -999 0 -1180 -2 -1227
-15z m-110 -673 c-10 -43 -22 -64 -59 -101 -63 -63 -96 -70 -343 -70 l-203 0
305 305 305 305 3 -192 c2 -122 -1 -213 -8 -247z"/>
<path d="M3173 4534 c-54 -20 -128 -85 -155 -138 -29 -57 -35 -159 -14 -223
37 -111 146 -188 266 -188 255 2 377 299 197 483 -73 74 -193 101 -294 66z
m150 -138 c54 -23 80 -59 84 -118 7 -89 -51 -151 -139 -150 -146 2 -189 199
-58 264 42 22 70 22 113 4z"/>
<path d="M1441 3954 c-27 -35 -26 -59 4 -89 l24 -25 594 0 594 0 21 23 c27 29
28 71 2 97 -20 20 -33 20 -619 20 l-600 0 -20 -26z"/>
<path d="M1300 3390 c-27 -27 -25 -66 5 -95 l24 -25 841 0 841 0 24 25 c30 30
31 54 4 89 l-20 26 -850 0 c-836 0 -849 0 -869 -20z"/>
<path d="M3772 3390 c-41 -25 -72 -76 -72 -117 0 -41 -10 -42 -38 -3 -56 75
-134 78 -250 10 -40 -24 -83 -56 -96 -71 -33 -39 -41 -97 -22 -144 9 -21 15
-39 13 -41 -1 -2 -22 4 -46 12 -87 30 -143 -1 -213 -119 -38 -64 -42 -79 -43
-135 0 -62 1 -64 43 -103 23 -22 42 -42 42 -44 0 -3 -14 -5 -30 -5 -38 0 -77
-20 -110 -55 -23 -25 -25 -35 -28 -145 -3 -94 0 -124 13 -149 19 -38 64 -67
118 -77 l40 -6 -32 -25 c-42 -33 -61 -72 -61 -125 0 -60 89 -212 140 -239 42
-23 95 -24 134 -4 40 21 47 19 30 -12 -25 -50 -27 -88 -6 -136 18 -39 32 -52
101 -93 l81 -47 0 -362 c0 -238 4 -373 11 -394 12 -33 35 -51 68 -51 11 0 93
58 183 130 90 71 166 130 169 130 4 0 80 -59 169 -130 108 -86 171 -130 187
-130 13 0 35 11 48 25 l25 24 0 378 0 378 79 47 c43 26 86 60 96 74 25 38 30
93 12 136 -19 45 -13 52 26 31 38 -19 105 -13 144 15 32 23 111 155 123 205
10 48 -12 106 -55 144 l-36 31 39 7 c60 10 101 40 124 92 28 65 23 211 -10
265 -24 39 -74 68 -116 68 -34 0 -33 6 9 47 64 62 65 124 1 234 -72 123 -129
156 -213 124 -24 -10 -47 -15 -49 -12 -3 3 2 19 10 36 30 56 16 121 -36 167
-12 11 -52 38 -87 59 -105 63 -189 58 -242 -15 -26 -34 -39 -31 -39 12 0 42
-33 93 -74 112 -53 25 -230 22 -274 -4z m208 -142 c0 -42 39 -104 79 -126 69
-39 142 -25 195 38 l26 31 60 -36 60 -36 -15 -29 c-58 -113 59 -247 179 -205
22 8 44 15 48 15 3 0 21 -25 38 -56 l32 -55 -35 -33 c-46 -42 -65 -101 -49
-155 19 -63 78 -111 138 -111 23 0 24 -3 24 -69 l0 -69 -42 -7 c-30 -5 -54
-19 -79 -44 -65 -65 -62 -160 7 -220 19 -17 34 -33 34 -36 0 -3 -42 -76 -65
-113 -1 -1 -16 5 -34 14 -42 21 -109 14 -149 -14 -56 -41 -79 -131 -48 -191
15 -27 15 -28 -41 -59 -30 -18 -58 -32 -62 -32 -4 0 -17 13 -29 29 -11 16 -41
37 -65 46 -85 32 -178 -18 -201 -108 -7 -27 -15 -48 -19 -47 -4 0 -33 0 -66 0
l-58 0 -7 40 c-4 23 -19 54 -37 75 -61 69 -161 68 -225 -2 l-33 -36 -53 31
c-44 24 -52 34 -50 53 15 106 13 124 -10 158 -43 64 -126 88 -188 56 -29 -15
-30 -15 -53 22 -51 82 -51 81 -17 109 17 15 37 39 45 55 44 84 -17 197 -115
214 l-40 7 0 69 c0 69 0 69 28 69 68 0 141 76 142 148 0 47 -23 95 -60 124
l-31 25 31 54 c18 30 33 55 35 57 2 2 22 -3 45 -11 77 -26 160 11 190 84 12
27 10 92 -4 134 -5 16 4 26 51 53 l57 33 24 -31 c84 -107 251 -63 269 70 l6
40 68 0 c64 0 69 -2 69 -22z m-277 -1698 c7 -57 31 -89 84 -112 38 -17 62 -20
142 -16 81 3 102 7 129 27 39 27 62 69 62 111 0 39 13 38 50 -2 l29 -33 1
-292 c0 -167 -4 -293 -9 -293 -5 0 -44 28 -88 63 -135 110 -174 137 -193 137
-11 0 -76 -45 -145 -100 -68 -55 -127 -100 -130 -100 -3 0 -5 132 -5 294 l0
294 27 31 c15 17 30 31 34 31 3 0 9 -18 12 -40z"/>
<path d="M3803 3050 c-228 -41 -417 -205 -497 -430 -28 -77 -30 -96 -30 -205
0 -98 5 -132 23 -185 71 -204 215 -350 418 -421 83 -29 246 -36 338 -15 236
56 427 251 481 492 55 250 -54 518 -271 663 -129 86 -316 127 -462 101z m258
-161 c261 -75 410 -370 319 -633 -82 -239 -344 -383 -583 -321 -147 38 -266
134 -330 265 -98 201 -57 423 106 577 137 129 300 167 488 112z"/>
<path d="M894 2978 c-59 -28 -50 -110 15 -128 24 -8 324 -10 927 -8 861 3 893
4 913 22 31 28 28 79 -5 105 -27 21 -31 21 -928 20 -599 0 -908 -4 -922 -11z"/>
<path d="M882 2543 c-32 -27 -37 -64 -12 -96 l21 -27 850 0 c836 0 849 0 869
20 27 27 26 71 -3 98 l-23 22 -841 0 c-786 0 -842 -1 -861 -17z"/>
<path d="M870 2103 c-25 -32 -20 -69 12 -95 19 -17 54 -18 435 -18 l414 0 24
25 c30 30 31 54 4 89 l-20 26 -424 0 -424 0 -21 -27z"/>
<path d="M824 1404 c-58 -21 -120 -77 -152 -138 l-27 -51 -3 -262 -3 -263 25
-25 c31 -31 66 -32 94 -2 20 21 21 34 24 273 l3 251 27 35 c62 81 188 72 236
-16 12 -24 17 -70 22 -201 5 -162 6 -172 32 -217 95 -161 299 -196 436 -73 79
72 95 119 99 305 4 178 13 205 75 240 65 36 144 16 185 -47 14 -21 19 -57 24
-167 5 -126 9 -147 33 -198 35 -73 100 -139 174 -174 51 -25 71 -28 184 -32
125 -4 127 -4 152 21 31 31 33 56 6 90 -19 24 -26 25 -137 29 -127 4 -155 13
-207 64 -52 53 -60 79 -66 229 -6 163 -22 209 -96 274 -146 129 -372 75 -451
-106 -12 -28 -18 -81 -22 -203 -5 -135 -9 -171 -24 -193 -54 -83 -171 -85
-231 -4 -19 25 -22 47 -27 200 -6 187 -13 216 -78 289 -66 75 -208 109 -307
72z"/>
</g>
</svg>
