<?xml version="1.0" encoding="utf-8"?>
<!-- Generator: Adobe Illustrator 24.1.0, SVG Export Plug-In . SVG Version: 6.00 Build 0)  -->
<svg width="335" height="94" version="1.1" id="Layer_1" xmlns="http://www.w3.org/2000/svg" xmlns:xlink="http://www.w3.org/1999/xlink" x="0px" y="0px"
	 viewBox="0 0 335 95" style="enable-background:new 0 0 335 95;" xml:space="preserve">
<style type="text/css">
	.st0{fill:#756C66;}
	.st1{fill:none;stroke:#606060;stroke-miterlimit:10;}
</style>
<g>
	<path class="st0" d="M157.1,54.77c-0.05,0-0.09,0-0.13,0c-1.55,0-3.1,0-4.64,0c-1.15,0-2.11-0.44-2.88-1.29
		c-2.66-2.95-5.31-5.9-7.96-8.84c-0.03-0.03-0.06-0.06-0.11-0.11c0,3.43,0,6.83,0,10.24c-0.93,0-1.83,0-2.75,0
		c0-4.81,0-9.62,0-14.44c0.05,0,0.1,0,0.15,0c1.4,0,2.8,0.01,4.2-0.01c0.64-0.01,1.21,0.16,1.75,0.47c0.75,0.43,1.37,1.01,1.95,1.65
		c2.52,2.8,5.05,5.6,7.57,8.39c0.02,0.02,0.03,0.04,0.07,0.05c0-3.52,0-7.03,0-10.56c0.93,0,1.85,0,2.77,0
		C157.1,45.14,157.1,49.95,157.1,54.77z"/>
	<path class="st0" d="M159.58,40.33c5.7,0,11.38,0,17.07,0c0,0.68,0,1.35,0,2.04c-3.68,0-7.36,0-11.04,0c0,1.24,0,2.46,0,3.69
		c3.35,0,6.7,0,10.05,0c0,0.67,0,1.33,0,2c-3.35,0-6.7,0-10.05,0c0,0.04-0.01,0.07-0.01,0.1c0.02,0.86,0.03,1.73,0.06,2.59
		c0.01,0.22,0.06,0.45,0.12,0.67c0.19,0.61,0.65,0.91,1.23,1.06c0.38,0.1,0.77,0.15,1.16,0.15c2.84,0,5.68,0,8.51,0
		c0.05,0,0.1,0,0.16,0c0,0.72,0,1.43,0,2.15c-0.09,0.01-0.18,0.01-0.28,0.02c-0.7,0.02-1.39,0.06-2.09,0.07
		c-1.89,0.03-3.77,0.07-5.66,0.07c-1.41,0-2.82-0.04-4.23-0.07c-0.69-0.02-1.38-0.05-2.06-0.2c-0.66-0.15-1.29-0.38-1.81-0.82
		c-0.59-0.5-0.92-1.15-1.04-1.9c-0.06-0.36-0.09-0.72-0.1-1.08c-0.01-3.45,0-6.9,0-10.35C159.58,40.45,159.58,40.4,159.58,40.33z"/>
	<path class="st0" d="M196.31,42.26c-0.32-0.05-0.63-0.12-0.94-0.16c-0.77-0.1-1.54-0.21-2.32-0.26c-0.75-0.05-1.5-0.06-2.25-0.05
		c-1.21,0.03-2.39,0.19-3.54,0.61c-0.62,0.23-1.2,0.53-1.67,1.01c-0.59,0.6-0.97,1.33-1.2,2.14c-0.17,0.61-0.22,1.24-0.22,1.88
		c0.01,0.87,0.14,1.72,0.48,2.53c0.53,1.26,1.47,2.1,2.75,2.57c0.6,0.22,1.23,0.34,1.87,0.41c1.06,0.12,2.12,0.16,3.18,0.08
		c0.8-0.05,1.59-0.14,2.39-0.24c0.53-0.06,1.05-0.17,1.58-0.25c0.02,0,0.05,0,0.08,0c0,0.78,0,1.55,0,2.33
		c-0.16,0.02-0.31,0.05-0.47,0.06c-2.16,0.27-4.34,0.37-6.52,0.31c-0.95-0.02-1.9-0.09-2.85-0.15c-1.28-0.09-2.54-0.29-3.78-0.66
		c-0.83-0.25-1.63-0.56-2.37-1c-0.91-0.54-1.54-1.32-1.97-2.28c-0.37-0.82-0.56-1.68-0.64-2.58c-0.08-0.86-0.06-1.71,0.07-2.56
		c0.18-1.2,0.57-2.32,1.35-3.28c0.53-0.65,1.2-1.12,1.95-1.48c0.8-0.38,1.65-0.61,2.51-0.77c0.64-0.12,1.29-0.24,1.94-0.32
		c0.65-0.09,1.3-0.15,1.96-0.2c1.2-0.1,2.39-0.12,3.59-0.09c0.88,0.02,1.75,0.07,2.62,0.13c0.78,0.05,1.55,0.14,2.32,0.21
		c0.07,0.01,0.1,0.02,0.1,0.1c0,0.63,0,1.27,0,1.9C196.32,42.21,196.31,42.23,196.31,42.26z"/>
</g>
</svg>
