<?xml version="1.0" encoding="utf-8"?>
<!-- Generator: Adobe Illustrator 24.1.0, SVG Export Plug-In . SVG Version: 6.00 Build 0)  -->
<svg width="335" height="94" version="1.1" id="Layer_1" xmlns="http://www.w3.org/2000/svg" xmlns:xlink="http://www.w3.org/1999/xlink" x="0px" y="0px"
	 viewBox="0 0 335 95" style="enable-background:new 0 0 335 95;" xml:space="preserve">
<style type="text/css">
	.st0{fill:#756C66;}
	.st1{fill:none;stroke:#606060;stroke-miterlimit:10;}
</style>
<g>
	<path class="st0" d="M127.65,44.04c0,3.46,0,6.92,0,10.41c-1.41,0-2.76,0-4.15,0c0-4.6,0-9.19,0-13.85c0.19,0,0.37,0,0.56,0
		c2.09,0,4.18,0.01,6.27-0.01c0.35,0,0.56,0.13,0.77,0.39c2.62,3.26,5.25,6.51,7.88,9.76c0.05,0.06,0.08,0.12,0.12,0.19
		c0.04-0.02,0.08-0.03,0.11-0.05c0-3.41,0-6.82,0-10.25c1.42,0,2.78,0,4.17,0c0,4.61,0,9.2,0,13.83c-0.16,0.01-0.31,0.02-0.45,0.02
		c-2.08,0-4.15-0.01-6.23,0.01c-0.33,0-0.54-0.11-0.74-0.36c-2.63-3.27-5.27-6.52-7.91-9.78c-0.09-0.11-0.19-0.22-0.29-0.33
		C127.72,44.02,127.69,44.03,127.65,44.04z"/>
	<path class="st0" d="M154.47,54.64c-1.56,0-3.11,0.03-4.67-0.01c-0.69-0.02-1.39-0.1-2.06-0.27c-1.4-0.36-2.37-1.28-2.43-2.72
		c-0.12-2.66-0.12-5.33-0.04-8c0.06-1.86,1.37-2.84,3.05-3.11c0.7-0.11,1.42-0.16,2.12-0.17c2.71-0.02,5.43-0.04,8.14,0.01
		c0.91,0.01,1.84,0.12,2.72,0.34c1.43,0.37,2.31,1.45,2.35,2.94c0.07,2.44,0.06,4.89,0.04,7.34c-0.03,2.21-1.36,3.37-3.4,3.54
		c-1.64,0.13-3.29,0.1-4.93,0.13c-0.3,0.01-0.59,0-0.89,0C154.47,54.65,154.47,54.64,154.47,54.64z M154.48,43.86
		C154.48,43.86,154.48,43.86,154.48,43.86c-1.35-0.01-2.7-0.02-4.05,0c-1.01,0.01-1.27,0.27-1.28,1.27
		c-0.02,1.48-0.01,2.97-0.01,4.45c0,1.37,0.22,1.59,1.61,1.6c2.48,0.01,4.95,0,7.43,0c0.19,0,0.39-0.01,0.58-0.04
		c0.76-0.1,1.01-0.35,1.02-1.13c0.02-1.66,0.02-3.32,0-4.98c-0.01-0.86-0.3-1.15-1.16-1.17C157.23,43.85,155.86,43.86,154.48,43.86z
		"/>
	<path class="st0" d="M190.42,54.47c0.69-1.23,1.33-2.38,1.97-3.52c1.85-3.29,3.72-6.58,5.56-9.88c0.2-0.36,0.41-0.5,0.82-0.49
		c1.54,0.03,3.08,0,4.63,0.03c0.16,0,0.4,0.13,0.48,0.27c2.51,4.42,5,8.85,7.49,13.28c0.04,0.07,0.08,0.15,0.14,0.28
		c-0.16,0.02-0.29,0.04-0.41,0.04c-1.41,0-2.82-0.01-4.23,0.01c-0.28,0-0.46-0.07-0.59-0.34c-0.3-0.6-0.64-1.17-0.94-1.76
		c-0.11-0.22-0.24-0.33-0.51-0.33c-2.65,0.01-5.31,0-7.96,0.02c-0.15,0-0.35,0.13-0.43,0.27c-0.36,0.61-0.68,1.25-1.04,1.86
		c-0.07,0.12-0.23,0.26-0.34,0.26C193.53,54.47,192.02,54.47,190.42,54.47z M200.85,43.95c-0.95,1.75-1.85,3.4-2.77,5.09
		c1.89,0,3.67,0,5.54,0C202.7,47.35,201.8,45.7,200.85,43.95z"/>
	<path class="st0" d="M183.19,40.59c-2.67,2.2-5.23,4.33-7.86,6.49c2.94,2.45,5.85,4.87,8.82,7.35c-0.18,0.02-0.29,0.04-0.4,0.04
		c-1.77,0-3.53,0.01-5.29-0.01c-0.26,0-0.58-0.12-0.78-0.3c-2.46-2.19-4.9-4.39-7.35-6.59c-0.11-0.1-0.22-0.18-0.41-0.33
		c0,2.45,0,4.81,0,7.2c-1.48,0-2.91,0-4.38,0c0-4.6,0-9.2,0-13.83c1.44,0,2.86,0,4.34,0c0,2.18,0,4.35,0,6.64
		c0.21-0.16,0.34-0.25,0.45-0.35c2.21-1.97,4.43-3.94,6.63-5.93c0.32-0.29,0.64-0.41,1.07-0.4
		C179.71,40.6,181.39,40.59,183.19,40.59z"/>
	<path class="st0" d="M189.47,54.46c-1.45,0-2.85,0-4.3,0c0-4.61,0-9.21,0-13.84c1.43,0,2.84,0,4.3,0
		C189.47,45.22,189.47,49.81,189.47,54.46z"/>
</g>
</svg>
