<?xml version="1.0" encoding="utf-8"?>
<!-- Generator: Adobe Illustrator 24.1.0, SVG Export Plug-In . SVG Version: 6.00 Build 0)  -->
<svg width="335" height="94" version="1.1" id="Layer_1" xmlns="http://www.w3.org/2000/svg" xmlns:xlink="http://www.w3.org/1999/xlink" x="0px" y="0px"
	 viewBox="0 0 335 95" style="enable-background:new 0 0 335 95;" xml:space="preserve">
<style type="text/css">
	.st0{fill:#756C66;}
	.st1{fill:none;stroke:#606060;stroke-miterlimit:10;}
</style>
<g>
	<path class="st0" d="M142.94,41.8c-0.28,0.69,0.19,1.14,0.75,1.67c2.33,2.2,2.11,6.03-0.43,8c-0.3,0.23-0.39,0.44-0.36,0.82
		c0.25,2.97-1.42,5.31-4.23,5.9c-0.6,0.12-1.24,0.03-1.86,0.08c-0.21,0.02-0.48,0.11-0.61,0.27c-2.34,2.86-6.28,2.87-8.57-0.03
		c-0.27-0.35-0.57-0.25-0.88-0.23c-2.12,0.16-3.8-0.62-5-2.38c-0.78-1.14-1-2.41-0.83-3.77c0.02-0.16-0.09-0.41-0.22-0.52
		c-2.95-2.37-2.94-6.26,0.01-8.67c0.13-0.11,0.22-0.36,0.2-0.53c-0.52-3.6,2.47-6.6,6.1-6.12c0.18,0.02,0.46-0.09,0.57-0.23
		c2.4-2.92,6.3-2.92,8.65,0c0.11,0.14,0.39,0.25,0.57,0.23C140.15,35.86,142.97,38.31,142.94,41.8z M123.51,43.79
		c1.92,2.35,1.91,4.64,0,6.97c2.99,0.29,4.63,1.89,4.91,4.91c2.35-1.94,4.66-1.91,6.98-0.01c0.3-3.03,1.93-4.61,4.9-4.9
		c-1.91-2.33-1.92-4.62,0.01-6.97c-3.03-0.27-4.63-1.92-4.93-4.9c-2.34,1.92-4.64,1.9-6.97,0.01
		C128.12,41.9,126.51,43.51,123.51,43.79z M121.7,44.57c-2.06,1.51-1.52,4.54,0.02,5.4C123.57,48,123.57,46.63,121.7,44.57z
		 M122.74,52.56c-0.12,1.24,0.28,2.25,1.19,3.05c0.76,0.66,1.65,0.95,2.66,0.82C126.6,53.71,125.44,52.63,122.74,52.56z
		 M141.03,41.99c0.46-2.07-1.8-4.34-3.79-3.83C137.22,40.44,138.04,41.94,141.03,41.99z M122.79,41.96
		c0.04,0.01,0.09,0.03,0.14,0.03c0.18-0.01,0.36-0.01,0.54-0.03c1.12-0.13,2.18-0.44,2.67-1.56c0.27-0.62,0.34-1.33,0.46-2
		c0.01-0.08-0.21-0.31-0.3-0.29c-0.5,0.06-1.02,0.11-1.48,0.3C123.38,38.98,122.46,40.63,122.79,41.96z M134.63,57.5
		c-1.94-1.89-3.65-1.88-5.42-0.01C130.37,59.26,133.27,59.27,134.63,57.5z M134.64,37.08c-1.45-1.95-4.39-1.64-5.42,0.02
		C131.2,38.95,132.53,38.95,134.64,37.08z M142.13,44.58c-1.86,1.92-1.86,3.56,0,5.38C143.89,48.93,143.91,45.78,142.13,44.58z
		 M137.2,56.45c1.2,0.09,2.2-0.27,2.99-1.14c0.71-0.78,1.02-1.69,0.86-2.75C138.02,52.67,137.3,53.99,137.2,56.45z"/>
	<path class="st0" d="M165.55,37.54c0.6,0,1.16,0,1.8,0c0,0.51,0,1.02,0,1.52c0,0.59,0.02,1.19-0.01,1.78
		c-0.02,0.4,0.13,0.56,0.54,0.55c1.1-0.02,2.21-0.01,3.32-0.01c3.49,0.03,6.04,2.65,5.97,6.12c-0.06,3.25-3.18,5.95-6.4,5.55
		c-3.18-0.4-5.26-2.73-5.31-5.97c-0.01-0.34,0-0.69,0.04-1.03c0.13-1.01,0.71-1.56,1.82-1.68c0.01,0.21,0.02,0.41,0.03,0.61
		c0.04,1.08-0.05,2.19,0.15,3.24c0.35,1.86,2.19,3.17,4.1,2.99c2.17-0.21,3.7-1.87,3.73-3.91c0.03-1.98-1.43-3.77-3.41-3.97
		c-1.37-0.14-2.77-0.08-4.15-0.08c-0.64,0-1.2-0.17-1.66-0.63c-0.4-0.39-0.61-0.87-0.62-1.41c-0.02-1.12-0.02-2.24-0.01-3.36
		C165.48,37.77,165.52,37.67,165.55,37.54z"/>
	<path class="st0" d="M180.68,44.37c0,0.92-0.01,1.81,0,2.7c0.02,2.01,1.21,3.58,3.06,4.05c2.17,0.55,4.44-0.89,4.86-3.08
		c0.43-2.26-1.08-4.47-3.33-4.71c-1.29-0.14-2.6-0.12-3.9-0.07c-1.69,0.07-2.63-1.06-2.55-2.55c0.05-0.87,0.01-1.75,0.01-2.62
		c0-0.18,0.02-0.35,0.02-0.54c0.61,0,1.18,0,1.82,0c0,0.96,0.01,1.89,0,2.83c-0.01,1.19,0.07,0.99,0.98,1.01
		c1.29,0.02,2.58-0.03,3.85,0.1c2.84,0.29,5.05,2.88,5.04,5.8c-0.02,2.9-2.24,5.42-5.06,5.74c-3.68,0.42-6.66-2.22-6.66-5.91
		c0-0.26,0-0.53,0-0.79C178.85,45.22,179.48,44.52,180.68,44.37z"/>
	<path class="st0" d="M192.24,47.11c0.01-3.35,2.63-5.95,5.97-5.93c3.23,0.02,5.82,2.69,5.81,6c-0.01,3.32-2.67,5.94-6,5.92
		C194.83,53.07,192.23,50.38,192.24,47.11z M194.11,47.09c-0.01,2.28,1.78,4.14,4.01,4.15c2.17,0.01,4.03-1.84,4.05-4.03
		c0.01-2.32-1.78-4.19-4.02-4.19C195.92,43.02,194.12,44.84,194.11,47.09z"/>
	<path class="st0" d="M216.47,52.81c-0.6,0-1.17,0-1.82,0c0-0.17,0-0.35,0-0.52c0-1.9,0-3.79,0-5.69c0-1.96-1.51-3.53-3.42-3.58
		c-1.97-0.05-3.59,1.41-3.65,3.39c-0.06,1.93-0.02,3.86-0.02,5.78c0,0.19,0,0.39,0,0.61c-0.63,0-1.2,0-1.82,0
		c-0.01-0.2-0.03-0.37-0.03-0.55c0-1.9-0.01-3.79,0-5.69c0.01-2.83,2.15-5.19,4.89-5.39c2.94-0.21,5.41,1.71,5.86,4.58
		c0.03,0.19,0.03,0.39,0.03,0.59c0,1.98,0,3.96,0,5.93C216.5,52.46,216.48,52.62,216.47,52.81z"/>
	<path class="st0" d="M152.22,52.82c-0.01-0.2-0.02-0.38-0.03-0.55c0-1.81,0-3.62,0-5.43c0.01-3.13,2.29-5.42,5.42-5.44
		c0.62,0,1.25,0,1.92,0c0,0.61,0,1.19,0,1.87c-0.62,0-1.26-0.05-1.89,0.01c-0.56,0.05-1.16,0.13-1.66,0.37
		c-1.23,0.58-1.89,1.61-1.89,2.99c-0.01,1.86,0,3.72,0,5.58c0,0.19,0,0.39,0,0.61C153.44,52.82,152.85,52.82,152.22,52.82z"/>
	<path class="st0" d="M163.3,52.82c-0.62,0-1.2,0-1.8,0c0-3.81,0-7.59,0-11.4c0.6,0,1.18,0,1.8,0
		C163.3,45.21,163.3,48.99,163.3,52.82z"/>
	<path class="st0" d="M162.4,38.9c-0.62,0-1.11-0.46-1.12-1.07c-0.02-0.63,0.48-1.14,1.11-1.15c0.62-0.01,1.14,0.52,1.13,1.14
		C163.51,38.41,163.02,38.89,162.4,38.9z"/>
</g>
</svg>
