<svg width="335" height="94" viewBox="0 0 335 94" fill="none" xmlns="http://www.w3.org/2000/svg">
<path d="M150 27.3265V23H184.619V49.3865H180.263V27.3265H150Z" fill="#756C66"/>
<path d="M179.772 49.3865H175.419V32.138H150V27.811H179.772V49.3865Z" fill="#756C66"/>
<path d="M170.576 49.3865H174.931V32.6235H150V36.95H170.576V49.3865Z" fill="#756C66"/>
<path d="M170.087 49.3865H165.732V41.763H150V37.4365H170.087V49.3865Z" fill="#756C66"/>
<path d="M150 42.247H165.244V49.3865H150V42.247Z" fill="#756C66"/>
<path d="M165.243 65.508H150V71.627H165.243V65.508Z" fill="#756C66"/>
<path d="M165.732 65.508H170.087V71.627H165.732V65.508Z" fill="#756C66"/>
<path d="M174.931 65.508H170.576V71.627H174.931V65.508Z" fill="#756C66"/>
<path d="M175.419 65.508H179.775V71.627H175.419V65.508Z" fill="#756C66"/>
<path d="M184.619 65.508H180.263V71.627H184.619V65.508Z" fill="#756C66"/>
<path fill-rule="evenodd" clip-rule="evenodd" d="M158.337 52.617C158.095 52.3337 157.789 52.1113 157.445 51.9676C157.1 51.8239 156.727 51.7629 156.355 51.7895H152.914L151.946 55.3775H150V57.225H151.45L150.536 60.614H152.642L153.549 57.2555H154.399L155.183 60.614H157.497L156.563 56.944C157.067 56.7558 157.517 56.4497 157.877 56.0514C158.238 55.6532 158.497 55.1743 158.634 54.655C158.748 54.3158 158.78 53.9548 158.729 53.6009C158.678 53.247 158.544 52.91 158.339 52.617H158.337ZM156.584 54.4465C156.509 54.7244 156.34 54.9678 156.106 55.1363C155.872 55.3048 155.588 55.3882 155.3 55.3725H154.055L154.498 53.7295H155.972C156.076 53.7183 156.181 53.7294 156.281 53.7622C156.38 53.795 156.471 53.8486 156.547 53.9195C156.59 54.0001 156.615 54.0886 156.621 54.1794C156.627 54.2703 156.615 54.3614 156.583 54.447L156.584 54.4465Z" fill="#756C66"/>
<path d="M158.082 60.6135H160.188L162.569 51.789H160.462L158.082 60.6135Z" fill="#756C66"/>
<path d="M183.245 51.789L181.387 58.6735H184.619V60.6135H178.758L181.138 51.789H183.245Z" fill="#756C66"/>
<path fill-rule="evenodd" clip-rule="evenodd" d="M177.644 51.789H176.038L170.399 60.6135H172.72L173.704 59.0135H176.23L176.351 60.6135H178.52L177.644 51.789ZM174.748 57.1535L176.064 54.984L176.169 57.1535H174.748Z" fill="#756C66"/>
<path d="M163.302 51.789H168.229L167.707 53.726H166.441L164.584 60.611H162.476L164.33 53.7285H162.78L163.302 51.789Z" fill="#756C66"/>
<path d="M168.703 51.789L168.18 53.7285H169.602L167.745 60.6135H169.852L171.71 53.7285H173.088L173.612 51.789H168.703Z" fill="#756C66"/>
<path d="M184.618 62.0895H150V63.465H184.618V62.0895Z" fill="#756C66"/>
</svg>
