<svg width="335" height="94" viewBox="0 0 335 94" fill="none" xmlns="http://www.w3.org/2000/svg">
<path d="M155.338 50.248C156.012 50.504 156.796 50.6496 157.632 50.6496C158.446 50.6496 159.21 50.508 159.882 50.268L157.65 43.084H157.606L155.338 50.248Z" fill="#756C66"/>
<path d="M173.029 46.5336H174.608C176.712 46.5336 178.391 45.8336 178.393 43.6096C178.393 41.4608 176.713 40.76 174.609 40.76H173.029V46.5336Z" fill="#756C66"/>
<path fill-rule="evenodd" clip-rule="evenodd" d="M167.779 65H131V29H203.773L167.779 65ZM167 36.2H174.187C181.032 36.2 184.248 38.516 184.25 43.8352C184.25 48.6112 180.942 51.4592 175.346 51.4592H173.03L173.004 57.8096L162.124 57.7992L161.366 55.0472C160.243 55.4152 158.978 55.62 157.632 55.62C156.251 55.62 154.95 55.404 153.806 55.0136L152.718 57.7992L146.654 57.8184L146.926 56.4168C146.911 56.4304 146.896 56.444 146.88 56.4575C146.81 56.5197 146.74 56.5813 146.664 56.6424C145.043 57.9464 143.003 58.5488 140.49 58.5944L139.84 58.5992C136.952 58.5992 134.41 57.916 132.016 56.5544L134.23 52.1624C136.626 53.5792 138.13 53.8984 140.16 53.8552C141.212 53.8344 141.972 53.6424 142.468 53.1304C142.767 52.8168 142.924 52.428 142.94 52.012C142.96 50.8712 141.336 50.3352 139.348 49.7192C137.736 49.22 135.906 48.54 134.476 47.492C132.783 46.2464 131.978 44.688 132.018 42.4896C132.042 40.892 132.634 39.4472 133.731 38.3112C135.306 36.6832 137.846 35.6952 140.896 35.6952H140.912C143.528 35.6976 146.718 36.4392 149.026 37.6136L146.538 41.9496C144.007 40.7272 142.735 40.6112 141.295 40.5336C139.149 40.4192 138.069 41.1864 138.053 42.0136C138.032 43.0216 140.081 43.9336 142.011 44.5536C144.934 45.4824 148.65 46.7224 149.218 50.316L154.56 36.1936H160.766L167.024 53.104L167 36.2Z" fill="#756C66"/>
</svg>
