<svg width="335" height="94" viewBox="0 0 335 94" fill="none" xmlns="http://www.w3.org/2000/svg">
<path d="M119.904 34.1685C121.371 34.1685 122.849 34.5949 125.325 35.6949V32.364C123.175 31.439 121.445 31.0371 119.527 31.0371C115.553 31.0371 113.001 32.9917 113.001 35.9448C113.001 39.598 116.105 40.7068 118.61 41.6015C120.304 42.2065 121.723 42.7135 121.723 43.843C121.723 44.8437 120.838 45.418 119.197 45.418C117.305 45.418 115.804 44.8437 113.351 43.2183V46.8966L113.396 46.9201C115.078 47.7887 116.554 48.5509 119.527 48.5509C123.35 48.5509 126.101 46.6456 126.101 43.3666C126.101 39.7783 122.926 38.6184 120.408 37.6982C118.751 37.0932 117.379 36.5918 117.379 35.5718C117.379 34.7195 118.365 34.1685 119.904 34.1685Z" fill="#756C66"/>
<path d="M133.628 48.5483C134.854 48.5483 136.084 48.2966 137.537 47.769V45.1544C135.933 45.7547 135.154 45.9568 134.277 45.9568C132.199 45.9568 130.82 44.6068 130.82 42.5554C130.82 40.5344 132.223 39.2238 134.403 39.2238C135.306 39.2238 136.409 39.5011 137.361 40.0072V37.3022C136.158 36.8543 134.654 36.5525 133.477 36.5525C129.667 36.5525 126.939 39.0492 126.939 42.5825C126.939 46.1822 129.565 48.5483 133.628 48.5483Z" fill="#756C66"/>
<path fill-rule="evenodd" clip-rule="evenodd" d="M171.467 36.5558C167.902 36.5558 165.365 39.074 165.365 42.6162C165.365 46.1847 168.004 48.5483 172.07 48.5483C172.971 48.5483 175.15 48.5483 177.226 47.0115V44.7536C175.525 45.9641 174.401 46.3816 172.949 46.3816C170.658 46.3816 169.257 45.1956 169.131 43.1731H177.43C177.602 38.949 174.829 36.5558 171.467 36.5558ZM169.208 41.257C169.357 39.6513 170.289 38.7229 171.717 38.7229C173.122 38.7229 174.073 39.6776 174.223 41.257H169.208Z" fill="#756C66"/>
<path d="M182.463 48.3377H178.834V36.7694H182.463V48.3377Z" fill="#756C66"/>
<path fill-rule="evenodd" clip-rule="evenodd" d="M192.562 31.25V37.2774C191.581 36.8024 190.605 36.5533 189.547 36.5533C186.238 36.5533 183.948 38.9988 183.948 42.5395C183.948 46.0031 186.238 48.5513 189.343 48.5513C190.574 48.5513 191.527 48.228 192.562 47.4023V48.3341H196.19V31.25H192.562ZM192.562 45.1756C191.806 45.8555 191.178 46.1284 190.402 46.1284C188.694 46.1284 187.613 44.7229 187.613 42.6151C187.613 40.3053 188.694 38.9743 190.523 38.9743C191.178 38.9743 192.033 39.2754 192.562 39.6532V45.1756Z" fill="#756C66"/>
<path fill-rule="evenodd" clip-rule="evenodd" d="M197.721 42.6162C197.721 39.074 200.254 36.5558 203.818 36.5558C207.179 36.5558 209.954 38.949 209.782 43.1731H201.486C201.612 45.1956 203.019 46.3816 205.298 46.3816C206.756 46.3816 207.883 45.9641 209.585 44.7536V47.0115C207.504 48.5483 205.322 48.5483 204.422 48.5483C200.36 48.5483 197.721 46.1847 197.721 42.6162ZM204.066 38.7229C202.639 38.7229 201.712 39.6513 201.561 41.257H206.583C206.432 39.6776 205.472 38.7229 204.066 38.7229Z" fill="#756C66"/>
<path d="M215.214 40.0817H215.268C216.345 37.674 217.55 36.5455 218.95 36.5455C219.675 36.5455 220.301 36.8217 221.353 37.601L220.355 40.8077C219.401 40.2067 218.776 39.9557 218.2 39.9557C216.869 39.9557 216.017 41.2103 215.214 43.3314V48.3222H211.58V36.7579H215.214V40.0817Z" fill="#756C66"/>
<path d="M181.267 34.7002C182.361 34.0555 182.974 32.8023 182.633 31.9036C182.289 31.003 181.129 30.7969 180.034 31.445C178.938 32.0864 178.328 33.341 178.671 34.2416C179.01 35.1407 180.17 35.345 181.267 34.7002Z" fill="#756C66"/>
<path d="M150.608 40.9749C150.608 37.8405 148.478 36.5559 146.375 36.5559C144.945 36.5559 143.77 37.1598 142.719 38.4909H142.669V31.2496H139.037V48.304H142.669V40.9749C143.518 39.7455 144.245 39.2198 145.096 39.2198C146.225 39.2198 146.976 40.0228 146.976 41.7509V45.8148C148.194 45.1889 149.433 44.8045 150.608 44.6617V40.9749Z" fill="#756C66"/>
<path d="M155.954 38.4245C157.11 37.1023 158.24 36.5529 159.719 36.5529C161.524 36.5529 163.931 37.5773 163.931 40.9842V48.3073H160.299V41.2837C160.299 39.6531 159.518 38.9739 158.489 38.9739C157.586 38.9739 156.909 39.4514 155.954 40.884V46.286C155.186 45.3328 153.581 44.7562 152.323 44.6305V36.7694H155.954V38.4245Z" fill="#756C66"/>
<path d="M165.937 51.6293H161.717V54.6276H165.788V55.9145H161.717V59.0074H166.063V60.2924H160.302V50.3457H165.937V51.6293Z" fill="#756C66"/>
<path d="M170.676 60.2979H169.383V50.342H170.676V60.2979Z" fill="#756C66"/>
<path fill-rule="evenodd" clip-rule="evenodd" d="M175.286 57.208H179.892C179.892 54.7811 178.783 53.6098 177.046 53.6098C175.244 53.6098 173.993 54.942 173.993 56.9281C173.993 58.7441 175.123 60.4214 177.158 60.4214C178.267 60.4214 178.985 60.1744 179.778 59.6472V58.3889C179.011 58.8916 178.267 59.1812 177.484 59.1812C176.232 59.1812 175.488 58.5094 175.286 57.208ZM177.075 54.7221C177.992 54.7221 178.56 55.3535 178.602 56.3453H175.31C175.488 55.3094 176.085 54.7221 177.075 54.7221Z" fill="#756C66"/>
<path d="M186.526 54.7985C187.093 54.7985 187.589 54.9475 188.332 55.4569V54.061C187.707 53.7863 187.196 53.6098 186.438 53.6098C184.451 53.6098 183.21 54.9805 183.21 57.1506C183.21 59.0748 184.57 60.4206 186.526 60.4206C187.211 60.4206 188.041 60.2501 188.477 60.0439V58.7697C187.825 59.0614 187.296 59.2049 186.743 59.2049C185.396 59.2049 184.524 58.3889 184.524 57.0356C184.524 55.7061 185.343 54.7985 186.526 54.7985Z" fill="#756C66"/>
<path d="M194.221 53.7348H196.296V54.8993H194.221V58.2662C194.221 59.037 194.779 59.2594 195.156 59.2594C195.624 59.2594 196.106 59.0952 196.63 58.7722V59.985C196.176 60.2345 195.479 60.4206 195.052 60.4206C193.645 60.4206 192.934 59.5471 192.934 58.3637V54.8993H191.793V54.7551L194.221 52.3789V53.7348Z" fill="#756C66"/>
<path d="M201.239 55.2527V53.7348H199.948V60.2987H201.239V56.8759C201.239 55.7547 201.938 54.8501 202.827 54.8501C203.134 54.8501 203.644 55.1192 204.037 55.5078L204.722 54.3688C204.181 53.8561 203.687 53.6091 203.162 53.6091C202.551 53.6091 201.925 54.0907 201.265 55.2527H201.239Z" fill="#756C66"/>
<path d="M217.967 55.4569C217.22 54.9475 216.725 54.7985 216.154 54.7985C214.974 54.7985 214.162 55.7061 214.162 57.0356C214.162 58.3889 215.035 59.2049 216.374 59.2049C216.929 59.2049 217.453 59.0614 218.114 58.7697V60.0439C217.669 60.2501 216.838 60.4206 216.154 60.4206C214.201 60.4206 212.836 59.0748 212.836 57.1506C212.836 54.9805 214.083 53.6098 216.069 53.6098C216.83 53.6098 217.334 53.7863 217.967 54.061V55.4569Z" fill="#756C66"/>
<path d="M209.44 60.298H208.147V53.7345H209.44V60.298Z" fill="#756C66"/>
<path d="M209.484 51.3768C209.611 51.6942 209.39 52.1409 209.002 52.3701C208.61 52.5988 208.196 52.525 208.077 52.2077C207.96 51.8877 208.173 51.4432 208.566 51.2144C208.954 50.9831 209.366 51.0568 209.484 51.3768Z" fill="#756C66"/>
<path fill-rule="evenodd" clip-rule="evenodd" d="M152.813 53.1642L152.421 54.586H155.949C155.78 55.0387 155.561 55.4859 155.325 55.9386H152.096L151.675 57.3608H154.437C153.922 58.0889 153.352 58.7978 152.661 59.4548C148.715 63.2306 143.433 64.11 140.93 61.6093C139.644 60.3198 139.317 58.2884 139.829 56.1117H142.822L143.309 54.6861H140.263C140.44 54.2335 140.671 53.7882 140.916 53.3388H143.483L143.983 51.9133H141.833C142.308 51.2652 142.829 50.6312 143.445 50.045C147.393 46.2681 152.692 45.4076 155.225 47.9395C156.477 49.1912 156.824 51.102 156.383 53.1642H152.813ZM151.211 52.0486C151.305 51.9444 151.401 51.9073 151.629 51.9073H153.751L154.201 49.83H150.687C148.219 49.83 146.59 51.5336 146.32 53.0763L145.404 56.917C145.395 57.0197 145.324 57.1198 145.27 57.1836C145.123 57.3478 144.948 57.4305 144.722 57.4305H142.517L141.922 59.6899H145.354C147.822 59.6899 149.716 58.1498 149.988 56.6089L151.147 52.2125C151.16 52.1305 151.175 52.0897 151.211 52.0486Z" fill="#756C66"/>
</svg>
