<?xml version="1.0" standalone="no"?>
<!DOCTYPE svg PUBLIC "-//W3C//DTD SVG 20010904//EN"
 "http://www.w3.org/TR/2001/REC-SVG-20010904/DTD/svg10.dtd">
<svg version="1.0" xmlns="http://www.w3.org/2000/svg"
 width="512.000000pt" height="512.000000pt" viewBox="0 0 512.000000 512.000000"
 preserveAspectRatio="xMidYMid meet">

<g transform="translate(0.000000,512.000000) scale(0.100000,-0.100000)"
fill="#000000" stroke="none">
<path d="M2365 5105 c-69 -37 -81 -58 -125 -217 l-32 -116 -60 -36 c-34 -20
-66 -36 -72 -36 -6 0 -70 14 -143 32 -197 48 -216 39 -334 -166 -120 -207
-119 -226 29 -380 l97 -101 0 -78 -1 -78 -92 -92 c-50 -51 -98 -109 -107 -129
l-15 -37 -477 -3 -478 -3 -47 -28 c-31 -18 -57 -44 -75 -75 -26 -44 -28 -56
-32 -186 -4 -165 7 -227 51 -280 47 -57 96 -76 201 -76 l87 0 0 -254 c0 -159
4 -265 11 -285 19 -54 79 -69 117 -28 21 22 22 32 24 292 l3 270 686 3 686 2
24 -37 c50 -76 58 -78 269 -78 211 0 219 2 269 78 l24 37 686 -2 686 -3 0
-1275 0 -1275 -455 0 -455 0 -3 646 -2 647 43 10 c58 15 105 48 141 100 26 37
31 55 34 117 4 65 1 79 -24 124 -32 60 -78 98 -142 117 -67 20 -1537 20 -1604
0 -64 -19 -110 -57 -142 -117 -25 -45 -28 -59 -24 -124 3 -62 8 -80 34 -117
36 -52 83 -85 141 -100 l43 -10 -2 -647 -3 -646 -455 0 -455 0 -3 887 -2 887
-26 20 c-46 36 -93 22 -114 -33 -7 -18 -10 -319 -10 -897 l0 -869 -131 0 -131
0 -33 -33 c-41 -41 -49 -84 -43 -234 4 -119 17 -152 69 -179 41 -21 4122 -21
4172 0 57 23 71 57 75 179 6 150 -2 193 -43 234 l-33 33 -131 0 -131 0 0 1280
0 1280 88 0 c104 0 153 19 200 76 44 53 55 115 51 280 -4 130 -6 142 -32 186
-18 31 -44 57 -75 75 l-47 28 -236 3 -236 3 -28 -24 c-36 -31 -39 -82 -6 -109
21 -16 44 -18 243 -18 l219 0 24 -25 c24 -23 25 -30 25 -152 0 -100 -3 -133
-16 -151 l-15 -22 -826 0 c-751 0 -825 1 -819 16 3 9 9 27 12 40 4 16 27 35
72 60 l67 37 130 -33 c198 -51 229 -39 324 124 l62 106 139 0 c127 0 142 2
160 20 30 30 27 83 -6 109 -23 18 -41 21 -135 21 l-109 0 -15 38 c-9 20 -57
78 -107 129 l-92 92 -1 78 0 78 97 101 c148 154 149 173 29 380 -80 138 -107
169 -162 186 -37 10 -55 8 -172 -20 -73 -18 -137 -32 -143 -32 -6 0 -38 16
-72 36 l-60 36 -33 120 c-34 126 -55 167 -102 202 -26 19 -44 21 -205 24 -147
2 -182 0 -207 -13z m376 -275 c20 -74 40 -143 44 -153 4 -10 35 -32 69 -49 33
-17 80 -44 103 -59 23 -16 52 -29 65 -29 13 0 83 16 157 35 73 19 137 33 141
30 4 -3 38 -57 75 -120 l67 -116 -110 -113 -110 -112 2 -137 1 -137 109 -109
108 -109 -57 -102 c-32 -55 -65 -110 -74 -122 l-17 -20 -136 36 c-74 20 -144
36 -155 36 -10 0 -46 -18 -79 -39 -33 -22 -81 -49 -106 -61 -26 -12 -49 -29
-53 -38 -4 -9 -24 -78 -44 -152 l-37 -135 -144 0 -144 0 -37 135 c-20 74 -40
143 -44 152 -4 10 -30 29 -58 42 -29 14 -77 41 -107 60 -30 20 -62 36 -72 36
-10 0 -79 -16 -154 -36 -114 -30 -139 -33 -149 -22 -8 7 -41 62 -75 122 l-63
108 109 109 109 109 1 137 2 137 -110 112 -110 113 67 116 c37 63 71 117 75
120 5 3 69 -10 142 -30 73 -19 143 -35 156 -35 13 0 42 13 65 29 23 15 69 42
103 59 70 35 69 33 114 202 17 63 33 121 35 128 4 10 38 12 147 10 l142 -3 37
-135z m-1121 -1415 c95 -163 130 -176 328 -125 l128 33 66 -37 c45 -25 68 -44
72 -60 3 -13 9 -31 12 -40 6 -15 -68 -16 -819 -16 l-826 0 -15 22 c-13 18 -16
51 -16 151 0 122 1 129 25 152 l24 25 480 0 480 0 61 -105z m1734 -1354 c49
-46 28 -130 -36 -146 -13 -3 -364 -4 -781 -3 l-759 3 -19 24 c-27 33 -25 92 4
118 12 11 29 23 37 26 8 3 356 5 772 4 l756 -2 26 -24z m-874 -951 l0 -650
-260 0 -260 0 0 650 0 650 260 0 260 0 0 -650z m680 0 l0 -650 -260 0 -260 0
0 650 0 650 260 0 260 0 0 -650z m1410 -880 l0 -80 -2010 0 -2010 0 0 80 0 80
2010 0 2010 0 0 -80z"/>
<path d="M2455 4386 c-115 -36 -198 -108 -248 -214 -29 -61 -32 -75 -32 -167
0 -91 3 -106 31 -165 43 -92 84 -134 170 -177 258 -127 554 39 572 322 9 135
-54 277 -151 342 -96 65 -244 90 -342 59z m233 -170 c48 -24 57 -34 84 -92 27
-58 30 -73 25 -130 -3 -48 -12 -77 -34 -112 -101 -164 -367 -143 -427 34 -37
109 -9 214 76 283 72 58 181 65 276 17z"/>
<path d="M1043 1680 c-17 -10 -37 -28 -42 -39 -7 -13 -11 -133 -11 -340 l0
-319 26 -31 c14 -17 42 -35 62 -41 53 -14 488 -12 532 3 19 7 44 27 57 46 23
34 23 38 23 345 0 291 -1 313 -19 340 -36 54 -44 55 -331 56 -245 0 -267 -2
-297 -20z m497 -380 l0 -250 -200 0 -200 0 0 250 0 250 200 0 200 0 0 -250z"/>
<path d="M3489 1683 c-58 -36 -59 -43 -59 -381 0 -425 -21 -401 345 -401 128
-1 246 4 267 9 20 6 48 24 62 41 l26 31 0 322 c0 352 0 350 -60 381 -45 23
-544 21 -581 -2z m491 -383 l0 -250 -200 0 -200 0 0 250 0 250 200 0 200 0 0
-250z"/>
</g>
</svg>
