<?xml version="1.0" encoding="utf-8"?>
<!-- Generator: Adobe Illustrator 24.1.0, SVG Export Plug-In . SVG Version: 6.00 Build 0)  -->
<svg width="335" height="94" version="1.1" id="Layer_1" xmlns="http://www.w3.org/2000/svg" xmlns:xlink="http://www.w3.org/1999/xlink" x="0px" y="0px"
	 viewBox="0 0 335 95" style="enable-background:new 0 0 335 95;" xml:space="preserve">
<style type="text/css">
	.st0{fill:#756C66;}
	.st1{fill:none;stroke:#606060;stroke-miterlimit:10;}
</style>
<g>
	<path class="st0" d="M184.25,43.99c1.91,0,3.81-0.01,5.72,0c1.27,0.01,2.33,0.78,2.73,1.99c0.08,0.25,0.12,0.5,0.12,0.76
		c0.02,2.44,0.04,4.88,0.07,7.32c0,0.3-0.08,0.4-0.38,0.39c-0.74-0.02-1.48-0.02-2.22,0c-0.28,0.01-0.37-0.06-0.37-0.36
		c0.01-2.14,0-4.27,0-6.41c0-0.32,0-0.65-0.11-0.96c-0.22-0.6-0.75-0.98-1.38-0.98c-0.8,0-1.6,0.01-2.41,0
		c-0.23,0-0.28,0.08-0.27,0.29c0.01,1.08,0.02,2.17,0,3.25c-0.04,1.53-0.03,3.06-0.03,4.59c0,0.58,0,0.58-0.58,0.58
		c-0.68,0-1.36-0.01-2.03,0.01c-0.28,0.01-0.35-0.07-0.35-0.35c0.01-2.66,0-5.32,0.01-7.98c0-0.29-0.06-0.4-0.37-0.39
		c-0.72,0.02-1.44,0-2.16,0.01c-1.04,0-1.65,0.61-1.65,1.65c-0.01,2.17,0,4.34-0.01,6.51c0,0.61,0.08,0.53-0.52,0.54
		c-0.7,0-1.4-0.01-2.09,0.01c-0.27,0.01-0.35-0.06-0.35-0.34c0.03-2.5,0.05-5,0.07-7.5c0-0.17,0.03-0.33,0.07-0.49
		c0.31-1.22,1.43-2.11,2.7-2.12C180.37,43.98,182.31,43.99,184.25,43.99z"/>
	<path class="st0" d="M113.08,54.49c-1.73,0-3.46-0.01-5.19,0.01c-0.26,0-0.35-0.06-0.33-0.33c0.02-0.39,0.02-0.79,0-1.19
		c-0.01-0.26,0.08-0.31,0.32-0.31c3.11,0.01,6.21-0.01,9.32,0.01c0.92,0.01,1.61-0.61,1.63-1.62c0.01-0.39,0-0.77,0-1.16
		c0-0.89-0.64-1.53-1.54-1.53c-2.31,0-4.63-0.03-6.94,0c-1.42,0.02-2.51-0.97-2.71-2.34c-0.18-1.19-0.21-2.39,0.1-3.56
		c0.22-0.86,0.86-1.39,1.67-1.68c0.61-0.22,1.24-0.31,1.89-0.31c3.33,0,6.67,0,10-0.01c0.28,0,0.39,0.05,0.37,0.35
		c-0.03,0.39-0.02,0.79,0,1.19c0.01,0.22-0.06,0.28-0.28,0.28c-1.44-0.01-2.88,0-4.31,0c-1.66,0-3.31,0.03-4.97-0.01
		c-0.92-0.02-1.62,0.63-1.63,1.62c0,0.38,0,0.75,0,1.13c0,0.94,0.62,1.57,1.56,1.57c2.22,0,4.44,0.05,6.66-0.01
		c1.68-0.04,2.84,0.99,3,2.54c0.11,1.09,0.15,2.21-0.18,3.29c-0.33,1.06-1.29,1.83-2.4,1.96c-1.73,0.21-3.47,0.05-5.21,0.1
		C113.62,54.5,113.35,54.49,113.08,54.49z"/>
	<path class="st0" d="M153.22,54.45c-1.77,0-3.54,0.01-5.32,0c-0.47,0-0.93-0.07-1.37-0.24c-1.11-0.45-1.63-1.36-1.67-2.49
		c-0.06-1.67-0.07-3.34,0-5c0.07-1.57,1.04-2.7,2.78-2.72c2.77-0.02,5.54-0.01,8.32-0.01c1.7,0.01,3.04,1.41,3.11,3.12
		c0.06,1.4-1.1,2.83-2.38,3.11c-0.24,0.05-0.49,0.09-0.74,0.09c-2.19,0.01-4.38,0-6.57,0.01c-0.28,0-0.39-0.07-0.37-0.37
		c0.02-0.37,0.02-0.75,0-1.13c-0.01-0.26,0.06-0.33,0.32-0.33c1.81,0.01,3.63,0.01,5.44,0c0.81,0,1.5-0.69,1.44-1.44
		c-0.05-0.69-0.68-1.3-1.41-1.3c-1.87-0.01-3.73-0.01-5.6,0c-0.82,0.01-1.42,0.65-1.43,1.47c0,1.25,0.04,2.5-0.01,3.75
		c-0.05,1.18,0.82,1.7,1.73,1.7c2.73-0.01,5.46,0,8.19,0c0.35,0,0.71,0.01,1.06-0.01c0.16-0.01,0.17,0.05,0.17,0.17
		c0,0.44-0.02,0.88,0,1.31c0.01,0.25-0.08,0.31-0.32,0.31C156.82,54.45,155.02,54.45,153.22,54.45z"/>
	<path class="st0" d="M199.79,43.99c1.86,0,3.71-0.03,5.57,0.01c1.1,0.02,1.92,0.56,2.38,1.58c0.18,0.41,0.28,0.85,0.28,1.3
		c0,1.53,0.02,3.07-0.01,4.6c-0.02,0.96-0.32,1.82-1.14,2.42c-0.54,0.39-1.18,0.54-1.82,0.54c-2.68,0.02-5.36,0.04-8.04,0
		c-1.67-0.03-2.93-1.1-3.23-2.85c-0.26-1.53,1.21-3.52,3.05-3.48c2.22,0.04,4.44,0.01,6.66,0.01c0.25,0,0.35,0.05,0.33,0.32
		c-0.03,0.37-0.02,0.75,0,1.13c0.02,0.26-0.06,0.33-0.32,0.33c-1.79-0.01-3.59-0.01-5.38,0c-0.59,0-1.08,0.26-1.36,0.79
		c-0.45,0.87,0.19,1.93,1.18,1.95c0.76,0.01,1.52,0.03,2.29,0.02c1.05-0.02,2.11,0.02,3.16,0.03c0.33,0,0.64-0.07,0.93-0.23
		c0.48-0.28,0.72-0.71,0.73-1.26c0-1.32,0.01-2.65,0-3.97c0-0.84-0.67-1.45-1.55-1.45c-2.93,0-5.86,0-8.79,0
		c-0.19,0-0.38-0.01-0.56,0c-0.21,0.02-0.3-0.05-0.29-0.28c0.02-0.41,0.02-0.81,0-1.22c-0.01-0.23,0.08-0.27,0.29-0.27
		C196.04,43.99,197.91,43.99,199.79,43.99C199.79,43.99,199.79,43.99,199.79,43.99z"/>
	<path class="st0" d="M166.65,43.99c1.77,0,3.54,0,5.31,0c0.9,0,1.68,0.28,2.25,1.01c0.4,0.52,0.6,1.12,0.6,1.77
		c0.02,1.62,0.04,3.23-0.01,4.85c-0.04,1.44-0.86,2.6-2.49,2.78c-0.31,0.04-0.62,0.05-0.93,0.05c-2.5,0-5,0.01-7.5,0
		c-0.93-0.01-1.76-0.31-2.4-1c-0.82-0.88-1.11-1.94-0.75-3.09c0.38-1.21,1.23-1.98,2.5-2.22c0.12-0.02,0.25-0.01,0.37-0.01
		c2.24,0,4.48,0,6.72-0.01c0.29,0,0.34,0.09,0.32,0.36c-0.03,0.36-0.04,0.73,0.01,1.09c0.04,0.27-0.04,0.32-0.28,0.32
		c-1.45-0.01-2.9,0-4.35,0c-0.39,0-0.77,0-1.16,0c-0.6,0.01-1.19,0.44-1.36,0.98c-0.25,0.78,0.27,1.58,1.13,1.77
		c0.29,0.06,0.58,0,0.87,0c1.49,0.01,2.98,0.03,4.47,0.04c0.3,0,0.6-0.02,0.89-0.11c0.63-0.2,1-0.69,1-1.35c0.01-1.31,0-2.63,0-3.94
		c0-0.9-0.62-1.53-1.53-1.53c-2.9,0-5.79,0-8.69,0c-0.24,0-0.48-0.01-0.72,0c-0.15,0.01-0.2-0.05-0.2-0.2
		c0.01-0.46,0.01-0.92,0-1.38c-0.01-0.25,0.17-0.19,0.3-0.19C162.89,43.99,164.77,43.99,166.65,43.99
		C166.65,43.99,166.65,43.99,166.65,43.99z"/>
	<path class="st0" d="M133.98,43.99c-0.36,0.55-0.68,1.06-0.94,1.61c-0.08,0.18-0.22,0.16-0.36,0.16c-1.76,0-3.52,0-5.28,0
		c-0.42,0-0.42,0-0.42,0.43c0,1.62,0,3.23,0,4.85c0,1.04,0.61,1.64,1.65,1.64c0.76,0,1.52,0.01,2.28,0c0.22,0,0.3,0.04,0.23,0.27
		c-0.13,0.43-0.24,0.86-0.34,1.3c-0.04,0.16-0.11,0.22-0.27,0.22c-1.01-0.01-2.02,0.04-3.03-0.02c-1.29-0.07-2.39-0.54-3.03-1.77
		c-0.33-0.63-0.43-1.3-0.44-1.99c-0.01-1.51,0-3.02,0-4.54c0-0.39,0-0.39-0.41-0.4c-0.28,0-0.56-0.01-0.84,0
		c-0.15,0-0.23-0.03-0.23-0.2c0.01-0.46,0.01-0.92,0-1.37c0-0.16,0.07-0.19,0.21-0.19c0.33,0.01,0.67-0.01,1,0.01
		c0.22,0.01,0.28-0.06,0.28-0.28c-0.01-0.95,0-1.9-0.01-2.85c0-0.25,0.04-0.35,0.32-0.34c0.78,0.02,1.56,0.02,2.34,0
		c0.23,0,0.3,0.06,0.3,0.3c-0.01,0.96,0,1.92-0.01,2.88c0,0.24,0.07,0.29,0.3,0.29c2.17-0.01,4.34-0.01,6.5-0.01
		C133.83,43.99,133.88,43.99,133.98,43.99z"/>
	<path class="st1" d="M208.99,43.99c0.78,0,1.56,0,2.33,0c0.49,0,0.98,0.03,1.47-0.01c0.4-0.03,0.71,0.11,1.02,0.34
		c1.82,1.34,3.64,2.68,5.46,4.02c0.3,0.22,0.6,0.45,0.9,0.66c0.17,0.12,0.26,0.2,0.02,0.38c-1.45,1.04-2.88,2.1-4.32,3.15
		c-0.82,0.6-1.63,1.21-2.45,1.81c-0.09,0.06-0.17,0.11-0.28,0.11c-1.38,0-2.77,0-4.21,0c0.18-0.26,0.42-0.38,0.63-0.53
		c2-1.48,4.01-2.96,6.01-4.43c0.39-0.29,0.39-0.29-0.02-0.59c-1.95-1.44-3.91-2.88-5.86-4.32c-0.24-0.18-0.48-0.35-0.73-0.53
		C208.98,44.03,208.99,44.01,208.99,43.99z"/>
	<path class="st0" d="M144.41,43.99c-0.15,0.53-0.3,1.02-0.41,1.51c-0.05,0.21-0.14,0.26-0.34,0.26c-1.23-0.01-2.46,0-3.69,0
		c-1.48,0-2.54,0.84-2.91,2.28c-0.41,1.59-0.83,3.17-1.25,4.76c-0.13,0.49-0.27,0.98-0.38,1.48c-0.04,0.16-0.1,0.19-0.25,0.19
		c-0.83-0.01-1.67-0.01-2.5,0c-0.23,0-0.25-0.08-0.2-0.27c0.53-2.07,1.07-4.14,1.57-6.22c0.18-0.73,0.37-1.45,0.82-2.07
		c0.88-1.22,2.08-1.88,3.58-1.9c1.9-0.03,3.79-0.01,5.69-0.01C144.21,43.99,144.29,43.99,144.41,43.99z"/>
	<path class="st0" d="M227.5,54.45c-1.45,0-2.82,0-4.18,0c-0.15,0-0.28-0.06-0.4-0.15c-1.34-0.99-2.68-1.97-4.01-2.96
		c-0.02-0.01-0.02-0.03-0.04-0.06c0.68-0.5,1.36-0.99,2.02-1.5c0.13-0.1,0.21-0.08,0.32,0.01c1.47,1.09,2.94,2.17,4.41,3.26
		c0.55,0.41,1.11,0.81,1.66,1.21C227.33,54.3,227.39,54.35,227.5,54.45z"/>
	<path class="st0" d="M218.84,47.1c1.18-0.87,2.36-1.68,3.48-2.58c0.55-0.44,1.11-0.56,1.77-0.54c1.1,0.03,2.21,0.01,3.4,0.01
		c-0.18,0.13-0.3,0.22-0.42,0.3c-1.93,1.42-3.87,2.85-5.8,4.28c-0.16,0.12-0.27,0.13-0.43,0C220.18,48.08,219.52,47.6,218.84,47.1z"
		/>
</g>
</svg>
