<?xml version="1.0" encoding="utf-8"?>
<!-- Generator: Adobe Illustrator 24.1.0, SVG Export Plug-In . SVG Version: 6.00 Build 0)  -->
<svg width="335" height="94" version="1.1" id="Layer_1" xmlns="http://www.w3.org/2000/svg" xmlns:xlink="http://www.w3.org/1999/xlink" x="0px" y="0px"
	 viewBox="0 0 335 95" style="enable-background:new 0 0 335 95;" xml:space="preserve">
<style type="text/css">
	.st0{fill:#756C66;}
	.st1{fill:none;stroke:#606060;stroke-miterlimit:10;}
</style>
<g>
	<path class="st0" d="M163.26,37.79c-0.01-2.81,2.31-5.15,5.12-5.14c2.81,0.01,5.02,2.27,5.1,4.98c0.09,3.01-2.35,5.34-5.13,5.33
		C165.55,42.95,163.24,40.62,163.26,37.79z M173,37.79c0.08-2.44-1.89-4.67-4.62-4.67c-2.77,0-4.64,2.29-4.64,4.67
		c0,2.51,1.97,4.72,4.65,4.71C171.04,42.5,173.05,40.36,173,37.79z"/>
	<path class="st0" d="M157.87,33.16c-0.22,0-0.36,0-0.49,0c-2.34,0-4.67,0-7.01,0c-0.1,0-0.21,0.02-0.3-0.01
		c-0.06-0.02-0.13-0.13-0.13-0.19c0-0.07,0.06-0.17,0.12-0.2c0.07-0.04,0.18-0.01,0.27-0.01c2.62,0,5.24,0,7.86,0
		c0.13,0,0.36,0.06,0.36,0.08c0,0.17,0,0.38-0.1,0.5c-0.5,0.61-1.04,1.19-1.56,1.78c-0.74,0.85-1.48,1.7-2.22,2.55
		c-0.55,0.63-1.11,1.25-1.66,1.88c-0.76,0.87-1.51,1.73-2.26,2.61c-0.08,0.09-0.1,0.22-0.18,0.39c0.32,0,0.54,0,0.76,0
		c2.27,0,4.54,0,6.81,0c0.1,0,0.21-0.02,0.3,0.01c0.06,0.02,0.14,0.12,0.14,0.18c0,0.08-0.06,0.2-0.12,0.23
		c-0.08,0.04-0.2,0.02-0.3,0.02c-2.62,0-5.24,0-7.86,0c-0.14,0-0.4-0.08-0.4-0.12c0-0.18,0.03-0.39,0.14-0.52
		c1.05-1.23,2.11-2.44,3.17-3.65c0.71-0.81,1.44-1.62,2.15-2.43c0.8-0.91,1.59-1.81,2.38-2.73
		C157.79,33.44,157.8,33.33,157.87,33.16z"/>
	<path class="st0" d="M144.68,36.19c0-1.04,0-2.09,0-3.13c0-0.21,0.03-0.34,0.29-0.34c0.25,0,0.27,0.13,0.27,0.32
		c0,1.94,0.03,3.88-0.01,5.81c-0.02,1.16-0.33,2.25-1.24,3.08c-0.54,0.49-1.18,0.78-1.88,0.94c-1.13,0.26-2.24,0.18-3.32-0.26
		c-1.05-0.43-1.75-1.19-2.05-2.28c-0.14-0.51-0.2-1.06-0.21-1.6c-0.02-1.89-0.01-3.78-0.01-5.68c0-0.21,0.02-0.35,0.29-0.33
		c0.26,0.02,0.2,0.2,0.2,0.35c0,1.96-0.02,3.92,0.02,5.88c0.01,0.54,0.13,1.1,0.33,1.61c0.4,1.04,1.21,1.62,2.29,1.83
		c1.18,0.24,2.33,0.22,3.42-0.36c0.9-0.48,1.45-1.26,1.54-2.26c0.11-1.19,0.09-2.39,0.12-3.59
		C144.71,36.19,144.7,36.19,144.68,36.19z"/>
	<path class="st0" d="M124.64,41.47c0.09-0.12,0.15-0.22,0.23-0.34c0.62,0.57,1.32,0.96,2.13,1.16c1.09,0.26,2.16,0.25,3.2-0.22
		c0.63-0.29,1.01-0.75,1.07-1.48c0.07-0.9-0.2-1.64-1.05-2.01c-0.83-0.37-1.71-0.63-2.57-0.93c-0.68-0.24-1.36-0.48-1.89-1.02
		c-0.96-0.98-0.84-2.67,0.46-3.42c1.18-0.68,2.44-0.77,3.73-0.38c0.49,0.15,0.96,0.36,1.47,0.55c-0.09,0.19-0.14,0.3-0.18,0.39
		c-0.53-0.17-1.03-0.39-1.56-0.49c-1.09-0.21-2.17-0.24-3.2,0.3c-0.88,0.47-1.11,1.88-0.43,2.62c0.4,0.43,0.87,0.71,1.42,0.89
		c0.83,0.28,1.68,0.52,2.5,0.84c0.83,0.32,1.51,0.85,1.76,1.75c0.32,1.13-0.2,2.25-1.3,2.79c-1.39,0.69-2.8,0.65-4.21,0.06
		C125.66,42.27,125.1,41.98,124.64,41.47z"/>
	<path class="st0" d="M116.31,34.39c-0.92,0-1.84,0.01-2.75,0c-0.71-0.01-1.12-0.72-0.77-1.32c0.17-0.29,0.44-0.42,0.77-0.43
		c1.84-0.01,3.67-0.01,5.51,0c0.53,0,0.94,0.42,0.93,0.89c-0.01,0.48-0.42,0.85-0.96,0.85C118.12,34.39,117.22,34.39,116.31,34.39z"
		/>
	<path class="st0" d="M116.31,40.11c-0.89,0-1.79,0-2.68,0c-0.59,0-0.95-0.33-0.96-0.86c0-0.52,0.38-0.87,0.96-0.87
		c1.8,0,3.6,0,5.4,0c0.53,0,0.95,0.38,0.96,0.85c0.01,0.49-0.4,0.88-0.96,0.88C118.12,40.11,117.22,40.11,116.31,40.11z"/>
	<path class="st0" d="M220.43,39c0.58,0,1.16,0.02,1.73,0c0.86-0.03,1.66-0.27,2.23-0.96c0.24-0.3,0.43-0.67,0.53-1.04
		c0.22-0.75,0.19-1.51-0.12-2.24c-0.41-0.98-1.22-1.44-2.2-1.51c-1.35-0.1-2.71-0.06-4.07-0.09c-0.11,0-0.3-0.06-0.32-0.14
		c-0.06-0.18-0.02-0.36,0.25-0.36c1.15,0.01,2.29-0.04,3.44,0.02c0.59,0.03,1.2,0.2,1.76,0.4c1.04,0.38,1.58,1.23,1.77,2.27
		c0.22,1.2-0.03,2.33-0.95,3.21c-0.66,0.63-1.5,0.88-2.38,0.91c-1.02,0.04-2.04,0.02-3.06,0c-0.29,0-0.36,0.09-0.36,0.37
		c0.01,0.93,0,1.86,0.01,2.79c0,0.18,0.02,0.34-0.25,0.34c-0.27,0-0.24-0.18-0.24-0.35c0-1.09,0.01-2.18,0-3.26
		c0-0.28,0.09-0.38,0.37-0.37C219.18,39.01,219.8,39,220.43,39C220.43,39,220.43,39,220.43,39z"/>
	<path class="st0" d="M208.57,39.03c0.76-0.03,1.52,0,2.27-0.12c1.81-0.29,2.52-1.73,2.28-3.39c-0.08-0.59-0.29-1.1-0.72-1.53
		c-0.47-0.47-1.06-0.73-1.69-0.76c-1.33-0.07-2.67-0.06-4-0.09c-0.12,0-0.3-0.06-0.33-0.13c-0.07-0.19-0.04-0.37,0.26-0.37
		c1.1,0.01,2.2-0.04,3.3,0.02c1.05,0.05,2.06,0.27,2.82,1.09c0.49,0.53,0.74,1.16,0.81,1.86c0.08,0.84-0.04,1.65-0.51,2.37
		c-0.54,0.84-1.35,1.33-2.33,1.4c-1.17,0.09-2.35,0.07-3.53,0.08c-0.33,0-0.45,0.07-0.44,0.43c0.03,0.92,0.01,1.84,0.01,2.75
		c0,0.15,0.02,0.31-0.2,0.31c-0.22,0-0.22-0.15-0.22-0.3c0-1.12,0.01-2.24,0-3.37c0-0.24,0.08-0.32,0.32-0.31
		c0.63,0.01,1.27,0,1.91,0C208.56,39.01,208.56,39.02,208.57,39.03z"/>
	<path class="st0" d="M201.65,42.93c-0.36,0.13-0.52-0.01-0.65-0.29c-0.65-1.43-1.31-2.85-1.96-4.27c-0.73-1.6-1.47-3.2-2.2-4.79
		c-0.03-0.07-0.06-0.15-0.11-0.21c-0.13-0.19-0.26-0.17-0.35,0.03c-0.7,1.55-1.39,3.1-2.1,4.65c-0.49,1.09-0.99,2.17-1.49,3.26
		c-0.21,0.46-0.43,0.92-0.62,1.39c-0.11,0.25-0.26,0.35-0.58,0.24c0.06-0.15,0.1-0.3,0.17-0.45c0.65-1.39,1.3-2.78,1.94-4.17
		c0.81-1.75,1.61-3.5,2.43-5.25c0.09-0.19,0.14-0.42,0.46-0.41c0.32,0,0.36,0.24,0.45,0.43c1.09,2.32,2.17,4.64,3.25,6.95
		c0.4,0.85,0.8,1.69,1.2,2.54C201.54,42.69,201.59,42.8,201.65,42.93z"/>
	<path class="st0" d="M112.59,42.99c-0.66,0-1.31,0.01-1.97,0c-0.58-0.01-0.92-0.32-0.92-0.85c0-0.52,0.37-0.9,0.93-0.9
		c1.33-0.01,2.65-0.01,3.98,0c0.56,0,0.98,0.4,0.98,0.88c-0.01,0.49-0.45,0.88-1.02,0.88C113.9,42.99,113.24,42.99,112.59,42.99z"/>
	<path class="st0" d="M114.11,37.25c-0.66,0-1.31,0-1.97,0c-0.56,0-0.96-0.38-0.96-0.88c0.01-0.49,0.41-0.86,0.95-0.86
		c1.31,0,2.63,0,3.94,0c0.59,0,0.96,0.34,0.96,0.86c0,0.53-0.36,0.87-0.95,0.87C115.42,37.25,114.76,37.25,114.11,37.25z"/>
	<path class="st0" d="M178.1,37.79c0-1.6,0-3.2,0.01-4.79c0-0.11,0.09-0.29,0.18-0.32c0.26-0.08,0.31,0.09,0.31,0.32
		c-0.01,1.37,0,2.74,0,4.11c0,0.45,0,0.45,0.44,0.45c1.98,0,3.97,0,5.95,0c0.18,0,0.37-0.03,0.36,0.26
		c-0.01,0.21-0.11,0.24-0.28,0.23c-0.53-0.01-1.07,0-1.6,0c-1.51,0-3.02,0.01-4.52-0.01c-0.27,0-0.35,0.08-0.35,0.35
		c0.01,1.41,0,2.81,0.01,4.22c0,0.18,0.03,0.37-0.26,0.36c-0.27-0.01-0.23-0.2-0.23-0.36C178.1,41.01,178.1,39.4,178.1,37.79z"/>
	<path class="st0" d="M186.9,37.84c0,1.6-0.01,3.19,0.01,4.79c0,0.27-0.08,0.4-0.34,0.34c-0.09-0.02-0.15-0.14-0.22-0.22
		c-0.01-0.01,0-0.04,0-0.07c0-3.23,0-6.46,0.01-9.69c0-0.11,0.1-0.29,0.19-0.31c0.22-0.07,0.37-0.01,0.37,0.3
		C186.89,34.6,186.9,36.22,186.9,37.84z"/>
	<path class="st0" d="M167.89,58.24c0.6-0.23,1.15-0.53,1.74-0.65c0.68-0.13,1.19,0.29,1.61,0.89c0.16-0.15,0.31-0.27,0.44-0.4
		c0.76-0.77,2.26-0.67,2.77,0.26c0.23,0.43,0.35,0.97,0.38,1.46c0.06,1.08,0.01,2.16,0.02,3.23c0,0.34-0.09,0.47-0.45,0.47
		c-1.27,0.02-1.26,0.03-1.28-1.23c-0.01-0.94-0.03-1.88-0.1-2.82c-0.04-0.52-0.35-0.69-0.92-0.63c-0.52,0.05-0.74,0.28-0.74,0.8
		c0,1.14-0.01,2.29,0,3.43c0,0.31-0.07,0.44-0.42,0.45c-1.31,0.03-1.31,0.04-1.31-1.25c0-0.85,0.01-1.69,0-2.54
		c-0.01-0.78-0.53-1.11-1.24-0.82c-0.29,0.12-0.44,0.3-0.44,0.64c0.02,1.16,0,2.32,0.01,3.48c0.01,0.37-0.11,0.49-0.49,0.49
		c-1.25,0-1.25,0.02-1.25-1.21c0-1.31,0-2.62,0-3.93c0-0.67,0-0.67,0.69-0.67c0.08,0,0.17,0.01,0.25,0
		C167.63,57.63,167.95,57.74,167.89,58.24z"/>
	<path class="st0" d="M177.83,62.99c0,0.81-0.02,1.52,0.01,2.23c0.01,0.43-0.14,0.58-0.58,0.57c-1.19-0.01-1.19,0-1.19-1.2
		c0.01-1.59,0.03-3.18,0.03-4.77c0-0.56-0.05-1.12-0.08-1.69c-0.02-0.31,0.11-0.47,0.44-0.45c0.23,0.02,0.46,0.01,0.7,0
		c0.35-0.02,0.66-0.01,0.58,0.55c0.19-0.1,0.31-0.14,0.41-0.21c1.15-0.83,2.5-0.47,3.04,0.86c0.45,1.12,0.47,2.25,0.02,3.39
		c-0.41,1.01-1.79,1.76-2.92,0.98C178.17,63.18,178.06,63.12,177.83,62.99z M177.83,60.58c0,0.28,0.02,0.56-0.01,0.84
		c-0.05,0.46,0.13,0.73,0.57,0.84c0.57,0.14,1.02-0.03,1.2-0.51c0.31-0.82,0.29-1.65-0.07-2.45c-0.18-0.4-0.61-0.57-1.04-0.45
		c-0.42,0.12-0.71,0.34-0.66,0.84C177.85,59.99,177.83,60.28,177.83,60.58z"/>
	<path class="st0" d="M158.64,60.79c0.03,2.25-1.9,2.99-3.47,2.77c-1.89-0.26-2.96-1.7-2.87-3.55c0.05-0.89-0.07-1.79,0.27-2.65
		c0.4-1.02,1.51-1.82,2.61-1.85c0.88-0.03,1.72,0.03,2.45,0.6c0.63,0.5,0.91,1.17,1.01,1.92c0.01,0.08-0.17,0.26-0.27,0.27
		c-0.35,0.03-0.7,0.04-1.04,0c-0.13-0.02-0.31-0.19-0.33-0.31c-0.17-1.1-1.03-1.48-1.98-1.13c-0.31,0.12-0.66,0.45-0.77,0.76
		c-0.4,1.13-0.34,2.33-0.11,3.48c0.2,1,1.03,1.42,2.02,1.16c0.51-0.13,0.75-0.55,0.8-1.04c0.03-0.35,0.18-0.45,0.51-0.43
		C157.86,60.8,158.25,60.79,158.64,60.79z"/>
	<path class="st0" d="M165.18,60.53c0.01,1.93-1.13,3.11-2.98,3.07c-1.36-0.03-2.43-1.03-2.64-2.37c-0.13-0.84-0.05-1.62,0.36-2.34
		c0.66-1.15,1.94-1.58,3.38-1.19c1.08,0.29,1.84,1.36,1.87,2.59C165.18,60.36,165.18,60.45,165.18,60.53z M163.5,60.59
		c-0.05-0.35-0.07-0.71-0.16-1.06c-0.12-0.47-0.44-0.71-0.94-0.72c-0.51-0.01-0.84,0.22-1.01,0.7c-0.23,0.66-0.21,1.33-0.04,2
		c0.14,0.55,0.45,0.77,1,0.77c0.59,0,0.85-0.17,1.01-0.74C163.44,61.24,163.46,60.92,163.5,60.59z"/>
	<path class="st0" d="M190.24,62.11c0.42,0.93,0.36,1.01-0.65,1.3c-0.81,0.23-1.59,0.27-2.38-0.02c-1.23-0.46-1.95-1.89-1.7-3.3
		c0.13-0.72,0.33-1.39,0.89-1.88c0.81-0.71,1.77-0.79,2.75-0.48c0.99,0.31,1.45,1.07,1.55,2.09c0.13,1.3,0.15,1.3-1.15,1.29
		c-0.59,0-1.19-0.04-1.78-0.06c-0.46-0.01-0.58,0.18-0.37,0.58c0.22,0.41,0.55,0.68,1.03,0.65
		C189.02,62.24,189.6,62.17,190.24,62.11z M188.14,60.09C188.14,60.08,188.14,60.08,188.14,60.09c0.22-0.01,0.44,0.01,0.64-0.02
		c0.1-0.02,0.23-0.13,0.26-0.22c0.1-0.33-0.18-0.88-0.51-0.98c-0.41-0.12-0.82-0.1-1.05,0.32c-0.12,0.22-0.17,0.5-0.15,0.75
		c0.01,0.07,0.39,0.11,0.6,0.15C188.01,60.1,188.08,60.09,188.14,60.09z"/>
	<path class="st0" d="M197.77,61.03c0.12,1.26,0.78,1.46,2.89,1c0.09,0.22,0.22,0.44,0.27,0.67c0.03,0.12-0.05,0.34-0.14,0.38
		c-1.87,0.96-4.31,0.62-4.79-1.81c-0.26-1.3,0.28-3.01,1.48-3.48c1.43-0.56,3.52-0.12,3.7,2.01c0.1,1.23,0.15,1.23-1.08,1.23
		C199.32,61.04,198.55,61.03,197.77,61.03z M198.64,60.09C198.64,60.08,198.64,60.08,198.64,60.09c0.2-0.01,0.4,0.02,0.59-0.02
		c0.11-0.03,0.27-0.17,0.27-0.27c0.02-0.4-0.09-0.78-0.51-0.93c-0.41-0.15-0.81-0.08-1.05,0.31c-0.13,0.21-0.18,0.5-0.15,0.74
		c0.01,0.08,0.38,0.12,0.59,0.16C198.47,60.1,198.55,60.09,198.64,60.09z"/>
	<path class="st0" d="M194.07,58.81c0,1.04-0.01,2,0,2.96c0,0.37,0.24,0.53,0.6,0.51c0.59-0.04,0.39,0.46,0.48,0.74
		c0.08,0.26-0.01,0.44-0.35,0.52c-1.1,0.24-2.52-0.15-2.46-1.81c0.03-0.8-0.01-1.59,0-2.39c0-0.36-0.08-0.59-0.5-0.52
		c-0.38,0.06-0.42-0.19-0.38-0.46c0.04-0.25-0.2-0.68,0.33-0.66c0.47,0.02,0.55-0.22,0.55-0.61c0.01-0.89,0.02-0.89,0.91-0.89
		c0.03,0,0.07,0,0.1,0c0.71,0,0.71,0,0.72,0.73c0,0.67,0,0.69,0.7,0.76c0.33,0.03,0.32,0.24,0.29,0.45
		c-0.03,0.24,0.18,0.61-0.28,0.67C194.57,58.83,194.35,58.81,194.07,58.81z"/>
	<path class="st0" d="M182.59,59.26c0-1.24,0.01-2.49-0.01-3.73c-0.01-0.38,0.1-0.53,0.5-0.52c1.22,0.01,1.22-0.01,1.22,1.2
		c0,2.25-0.01,4.51,0.01,6.76c0,0.4-0.1,0.55-0.52,0.54c-1.2-0.02-1.2,0-1.2-1.22C182.59,61.28,182.59,60.27,182.59,59.26z"/>
	<path class="st0" d="M133.78,59.5c0-1.21,0-2.42,0-3.63c0-0.22-0.03-0.46,0.3-0.46c1.19,0.02,2.39-0.04,3.57,0.09
		c1.22,0.14,1.84,0.99,1.83,2.21c-0.01,1.01-0.81,1.94-1.91,2.09c-0.78,0.11-1.58,0.1-2.37,0.12c-0.7,0.02-0.69,0.01-0.7,0.73
		c-0.01,0.88-0.02,1.75-0.05,2.63c-0.01,0.2-0.01,0.51-0.33,0.4c-0.15-0.05-0.3-0.31-0.31-0.49c-0.04-0.61-0.01-1.23-0.01-1.84
		C133.78,60.73,133.78,60.11,133.78,59.5z M134.52,59.44c1.07-0.06,2.11-0.04,3.13-0.18c0.78-0.11,1.16-0.77,1.15-1.67
		c-0.01-0.8-0.42-1.43-1.15-1.52c-1.02-0.13-2.06-0.13-3.13-0.18C134.52,57.1,134.52,58.22,134.52,59.44z"/>
	<path class="st0" d="M140.33,59.37c0.03-0.67,0.33-1.15,0.88-1.43c0.77-0.39,1.58-0.47,2.41-0.18c0.77,0.26,1.13,0.8,1.13,1.68
		c0.01,1.06,0,2.12,0,3.19c0,0.64,0.06,0.71,0.74,0.9c-0.15,0.09-0.3,0.24-0.45,0.26c-0.57,0.05-0.74-0.38-0.88-0.88
		c-0.22,0.15-0.42,0.27-0.6,0.4c-0.82,0.57-1.71,0.69-2.64,0.32c-0.62-0.25-0.92-0.78-0.95-1.4c-0.03-0.59,0.22-1.16,0.81-1.36
		c0.74-0.26,1.52-0.39,2.29-0.57c0.06-0.02,0.14,0,0.2-0.01c0.39-0.12,0.9-0.07,0.96-0.67c0.07-0.65-0.22-1.2-0.77-1.4
		c-0.72-0.26-1.44-0.22-2.08,0.2c-0.21,0.14-0.41,0.41-0.47,0.66C140.82,59.41,140.66,59.46,140.33,59.37z M144.21,60.58
		c-0.87,0.12-1.65,0.21-2.42,0.34c-0.24,0.04-0.47,0.15-0.68,0.27c-0.46,0.26-0.58,0.7-0.51,1.19c0.06,0.45,0.31,0.76,0.76,0.89
		c0.87,0.25,1.68,0.09,2.36-0.5C144.37,62.18,144.25,61.38,144.21,60.58z"/>
	<path class="st0" d="M146.13,57.88c0.42-0.19,0.55,0,0.66,0.31c0.48,1.34,0.97,2.67,1.47,4.01c0.08,0.23,0.2,0.45,0.35,0.79
		c0.14-0.26,0.24-0.41,0.3-0.58c0.53-1.41,1.06-2.82,1.58-4.23c0.12-0.32,0.28-0.48,0.67-0.32c-0.3,0.8-0.6,1.6-0.91,2.4
		c-0.6,1.58-1.19,3.16-1.82,4.72c-0.13,0.32-0.38,0.63-0.66,0.85c-0.21,0.16-0.54,0.21-0.82,0.23c-0.1,0.01-0.22-0.18-0.33-0.28
		c0.12-0.07,0.25-0.2,0.37-0.2c0.47,0.02,0.75-0.23,0.93-0.62c0.3-0.65,0.48-1.25,0.14-2.02c-0.7-1.57-1.24-3.2-1.85-4.81
		C146.18,58.06,146.16,57.98,146.13,57.88z"/>
</g>
</svg>
