<svg width="335" height="94" viewBox="0 0 335 94" fill="none" xmlns="http://www.w3.org/2000/svg">
<path d="M123.967 38.5264H116V34H136.496V38.5264H128.819V59.7104H123.967V38.5264Z" fill="#756C66"/>
<path d="M175.858 34H171.187V59.7104H175.858V34Z" fill="#756C66"/>
<path d="M179.32 34H183.991V59.7104H179.32V34Z" fill="#756C66"/>
<path d="M191.931 40.5181H187.259V59.7104H191.931V40.5181Z" fill="#756C66"/>
<path d="M204.537 46.6626L214.733 59.7061H209.316L204.523 53.5742L199.734 59.7061H194.318L201.814 50.1078L194.318 40.5181H199.734L204.499 46.6142L214.356 34H219.775L209.88 46.6626H204.537Z" fill="#756C66"/>
<path fill-rule="evenodd" clip-rule="evenodd" d="M159.137 60C157.326 60 155.66 59.5534 154.139 58.6602C152.648 57.7875 151.412 56.5391 150.555 55.0396C149.697 53.5401 149.247 51.8419 149.251 50.1144C149.251 48.3039 149.698 46.6382 150.591 45.1173C151.461 43.6194 152.709 42.3766 154.212 41.5139C155.705 40.6402 157.406 40.1838 159.136 40.1923C160.666 40.183 162.175 40.5433 163.536 41.2424C164.888 41.9332 166.065 42.9241 166.976 44.1393C167.893 45.3438 168.519 46.7443 168.805 48.2311C169.07 49.5111 169.082 50.7182 168.841 51.8523H153.922C154.091 52.6977 154.423 53.4219 154.918 54.025C155.409 54.6263 156.044 55.0935 156.765 55.383C157.518 55.6883 158.324 55.8421 159.137 55.8356C160.061 55.8343 160.977 55.6561 161.834 55.3107C162.674 54.9884 163.434 54.4881 164.061 53.8441L168.189 54.9668C167.417 56.4877 166.173 57.7069 164.46 58.6242C162.745 59.5417 160.971 60.0004 159.137 60ZM164.242 48.2674C164.067 47.5542 163.739 46.8873 163.283 46.3121C162.808 45.706 162.201 45.2166 161.508 44.8816C160.796 44.5322 159.993 44.3572 159.1 44.3567C158.207 44.3562 157.399 44.5311 156.674 44.8816C155.974 45.2129 155.36 45.7026 154.882 46.3121C154.425 46.8871 154.097 47.5541 153.922 48.2674H164.242Z" fill="#756C66"/>
<path d="M141.203 40.5181H136.496V59.7104H141.203V49.9331C141.203 48.7261 141.547 47.7062 142.235 46.8732C142.924 46.04 143.823 45.4968 144.933 45.2436C146.043 44.9905 147.19 45.069 148.373 45.4792V40.4456C146.611 40.18 145.127 40.3309 143.919 40.8983C142.712 41.4657 141.806 42.2925 141.203 43.3788V40.5181Z" fill="#756C66"/>
</svg>
