<svg width="335" height="94" viewBox="0 0 335 94" fill="none" xmlns="http://www.w3.org/2000/svg">
<path d="M150.864 43.9236L154.333 33.2397H159.253L153.317 48.7394H148.411L142.475 33.2397H147.396L150.864 43.9236Z" fill="#756C66"/>
<path d="M122.92 33.2397L126.389 43.9237L129.858 33.2397H134.778L128.842 48.7394H123.936L118 33.2397H122.92Z" fill="#756C66"/>
<path d="M141.103 48.7394H136.15V33.2397H141.103V48.7394Z" fill="#756C66"/>
<path d="M197.741 48.7394H186.949V45.224H197.741V48.7394Z" fill="#756C66"/>
<path d="M178.675 36.7551L175.548 36.7551V33.2397H197.758V36.7551H183.629V48.7394H178.675V36.7551Z" fill="#756C66"/>
<path d="M210.24 40.93L210.191 41.0018L216.112 48.7394H210.359L205.405 41.4805V48.7394H200.451V33.2397H205.405V40.4986L210.359 33.2397H215.489L210.24 40.93Z" fill="#756C66"/>
<path d="M197.741 42.7473H186.949V39.2318H197.741V42.7473Z" fill="#756C66"/>
<path fill-rule="evenodd" clip-rule="evenodd" d="M159.066 40.9896C159.066 36.577 162.643 33 167.056 33C171.468 33 175.045 36.577 175.045 40.9896C175.045 45.402 171.468 48.9791 167.056 48.9791C162.643 48.9791 159.066 45.402 159.066 40.9896ZM163.326 40.9896C163.326 43.0495 164.996 44.7194 167.056 44.7194C169.116 44.7194 170.786 43.0495 170.786 40.9896C170.786 38.9296 169.116 37.2597 167.056 37.2597C164.996 37.2597 163.326 38.9296 163.326 40.9896Z" fill="#756C66"/>
<path d="M145.272 58.7786C145.318 58.8117 145.374 58.8282 145.44 58.8282C145.532 58.8282 145.666 58.7963 145.841 58.7325L145.926 59.5049C145.694 59.6041 145.432 59.6537 145.139 59.6537C144.96 59.6537 144.798 59.623 144.654 59.5639C144.51 59.5025 144.404 59.4246 144.337 59.3301C144.269 59.2333 144.223 59.1046 144.197 58.9416C144.175 58.8259 144.165 58.592 144.165 58.2401V56.5997H143.708V55.8061H144.165V55.0585L145.164 54.4775V55.8061H145.844V56.5997H145.164V58.1161C145.164 58.4231 145.17 58.6027 145.183 58.6522C145.196 58.7042 145.226 58.7455 145.272 58.7786Z" fill="#756C66"/>
<path fill-rule="evenodd" clip-rule="evenodd" d="M149.589 57.1701L149.578 58.3322C149.578 58.6629 149.594 58.9073 149.626 59.0632C149.658 59.2215 149.718 59.3892 149.805 59.5687H148.82C148.794 59.5025 148.762 59.4045 148.725 59.2746C148.708 59.2156 148.696 59.1766 148.689 59.1577C148.519 59.323 148.337 59.4471 148.143 59.5297C147.95 59.6124 147.743 59.6537 147.523 59.6537C147.136 59.6537 146.831 59.5486 146.608 59.3384C146.384 59.1282 146.273 58.8625 146.273 58.5412C146.273 58.3287 146.324 58.1397 146.425 57.972C146.527 57.8067 146.669 57.6791 146.852 57.5894C147.035 57.502 147.299 57.424 147.644 57.3579C148.109 57.2705 148.432 57.189 148.611 57.1134V57.0142C148.611 56.8229 148.564 56.6871 148.469 56.6044C148.375 56.5241 148.197 56.4828 147.934 56.4828C147.757 56.4828 147.619 56.5182 147.52 56.5879C147.421 56.6576 147.34 56.7792 147.279 56.954L146.376 56.791C146.477 56.4273 146.652 56.158 146.9 55.9832C147.148 55.8084 147.516 55.7211 148.005 55.7211C148.449 55.7211 148.78 55.7742 148.997 55.8793C149.215 55.9844 149.368 56.1179 149.456 56.2785C149.545 56.4414 149.589 56.7379 149.589 57.1701ZM148.572 58.4456C148.598 58.3605 148.611 58.1987 148.611 57.9602V57.7618C148.484 57.8043 148.282 57.8551 148.005 57.9141C147.729 57.9732 147.548 58.0311 147.463 58.0877C147.333 58.1798 147.268 58.2968 147.268 58.4385C147.268 58.5778 147.32 58.6983 147.424 58.7999C147.528 58.9014 147.66 58.9522 147.821 58.9522C148.001 58.9522 148.172 58.8932 148.335 58.7751C148.455 58.6853 148.534 58.5755 148.572 58.4456Z" fill="#756C66"/>
<path fill-rule="evenodd" clip-rule="evenodd" d="M135.736 54.474C136.041 54.5637 136.302 54.7231 136.519 54.9522C136.736 55.1814 136.902 55.4624 137.015 55.7943C137.129 56.1261 137.185 56.5348 137.185 57.0213C137.185 57.4488 137.132 57.8173 137.026 58.1267C136.896 58.5046 136.71 58.8105 136.47 59.0443C136.288 59.2215 136.042 59.3596 135.733 59.4589C135.501 59.5321 135.192 59.5687 134.804 59.5687H132.831V54.3747H134.748C135.18 54.3747 135.509 54.4078 135.736 54.474ZM135.72 58.4278C135.832 58.3263 135.924 58.1598 135.995 57.9271C136.066 57.6945 136.101 57.3768 136.101 56.9753C136.101 56.5737 136.066 56.2655 135.995 56.0505C135.924 55.8356 135.825 55.6679 135.697 55.5475C135.57 55.427 135.408 55.3455 135.212 55.303C135.065 55.2699 134.778 55.2534 134.351 55.2534H133.88V58.6936H134.663C134.956 58.6936 135.167 58.677 135.297 58.644C135.467 58.6015 135.608 58.5294 135.72 58.4278Z" fill="#756C66"/>
<path d="M143.098 59.5687H142.103V54.3747H143.098V59.5687Z" fill="#756C66"/>
<path d="M156.211 57.659H155.01V56.7839H157.27V58.853C157.05 59.0656 156.732 59.2534 156.315 59.4151C155.898 59.5758 155.476 59.6573 155.049 59.6573C154.505 59.6573 154.032 59.5439 153.628 59.316C153.224 59.088 152.921 58.7621 152.717 58.3381C152.514 57.9141 152.413 57.4524 152.413 56.954C152.413 56.4131 152.526 55.9324 152.753 55.512C152.98 55.0916 153.311 54.7692 153.748 54.5448C154.081 54.3724 154.496 54.2862 154.992 54.2862C155.637 54.2862 156.14 54.422 156.503 54.6913C156.866 54.9629 157.099 55.3361 157.203 55.8132L156.161 56.008C156.088 55.7529 155.95 55.5522 155.748 55.4046C155.546 55.2569 155.294 55.1825 154.992 55.1825C154.534 55.1825 154.169 55.3278 153.899 55.6183C153.629 55.9088 153.493 56.3399 153.493 56.9115C153.493 57.5279 153.63 57.9909 153.904 58.298C154.178 58.6073 154.537 58.7609 154.981 58.7609C155.201 58.7609 155.421 58.7184 155.642 58.631C155.863 58.5459 156.053 58.4408 156.211 58.318V57.659Z" fill="#756C66"/>
<path fill-rule="evenodd" clip-rule="evenodd" d="M125.32 59.5687L127.343 54.3747H128.452L130.532 59.5687H129.391L128.937 58.3889H126.861L126.432 59.5687H125.32ZM127.885 55.5864L127.184 57.5138H128.601L127.885 55.5864Z" fill="#756C66"/>
<path fill-rule="evenodd" clip-rule="evenodd" d="M139.502 55.7211C140.062 55.7211 140.504 55.9065 140.827 56.2761C141.151 56.6458 141.306 57.2114 141.291 57.9744H138.797C138.804 58.2696 138.885 58.4999 139.038 58.6641C139.192 58.8282 139.383 58.9097 139.612 58.9097C139.768 58.9097 139.899 58.8672 140.005 58.7822C140.112 58.6971 140.192 58.5601 140.246 58.3712L141.238 58.5377C141.111 58.9014 140.909 59.179 140.634 59.3679C140.359 59.5592 140.015 59.6537 139.601 59.6537C138.947 59.6537 138.463 59.4399 138.149 59.0124C137.901 58.67 137.777 58.2377 137.777 57.7157C137.777 57.0922 137.94 56.6044 138.266 56.2501C138.592 55.8982 139.004 55.7211 139.502 55.7211ZM139.024 56.7202C138.882 56.8784 138.813 57.0933 138.815 57.365H140.303C140.296 57.0768 140.222 56.8583 140.08 56.7084C139.938 56.5584 139.766 56.4828 139.563 56.4828C139.345 56.4828 139.166 56.5619 139.024 56.7202Z" fill="#756C66"/>
<path fill-rule="evenodd" clip-rule="evenodd" d="M193.879 55.8982C194.084 55.7801 194.312 55.7211 194.562 55.7211C194.999 55.7211 195.37 55.8923 195.675 56.2348C195.98 56.5773 196.132 57.0544 196.132 57.6661C196.132 58.2944 195.978 58.7833 195.671 59.1317C195.364 59.4801 194.992 59.6537 194.555 59.6537C194.347 59.6537 194.158 59.6124 193.99 59.5297C193.821 59.4471 193.644 59.3053 193.457 59.1046V61H192.461V55.8061H193.39V56.3588C193.51 56.1698 193.673 56.0163 193.879 55.8982ZM194.311 58.8636C194.542 58.8636 194.735 58.7715 194.888 58.5861C195.042 58.4007 195.119 58.096 195.119 57.6732C195.119 57.2788 195.04 56.9859 194.881 56.7945C194.723 56.6032 194.527 56.5076 194.293 56.5076C194.05 56.5076 193.848 56.6021 193.687 56.7887C193.527 56.9776 193.446 57.2551 193.446 57.6236C193.446 58.0464 193.53 58.3594 193.698 58.5601C193.866 58.7632 194.07 58.8636 194.311 58.8636Z" fill="#756C66"/>
<path d="M190.265 55.7211C190.541 55.7211 190.775 55.7777 190.966 55.8888C191.158 56.0021 191.301 56.1663 191.395 56.3836C191.464 56.5442 191.498 56.804 191.498 57.163V59.5687H190.502V57.4181C190.502 57.0449 190.468 56.804 190.399 56.6954C190.307 56.5536 190.166 56.4828 189.974 56.4828C189.835 56.4828 189.704 56.5253 189.581 56.6103C189.458 56.6954 189.37 56.8206 189.315 56.9847C189.261 57.1489 189.234 57.4075 189.234 57.7618V59.5687H188.238V57.5067C188.238 57.1406 188.221 56.9044 188.185 56.7981C188.15 56.6918 188.094 56.6127 188.02 56.5607C187.945 56.5088 187.845 56.4828 187.717 56.4828C187.564 56.4828 187.426 56.5241 187.303 56.6068C187.18 56.6895 187.092 56.8087 187.038 56.9646C186.985 57.1205 186.959 57.3791 186.959 57.7405V59.5687H185.964V55.8061H186.881V56.3198C187.21 55.9206 187.601 55.7211 188.054 55.7211C188.295 55.7211 188.504 55.7707 188.681 55.8699C188.858 55.969 189.004 56.119 189.117 56.3198C189.282 56.119 189.461 55.969 189.652 55.8699C189.843 55.7707 190.048 55.7211 190.265 55.7211Z" fill="#756C66"/>
<path fill-rule="evenodd" clip-rule="evenodd" d="M199.976 57.1701L199.965 58.3322C199.965 58.6629 199.982 58.9073 200.013 59.0632C200.046 59.2215 200.105 59.3892 200.192 59.5687H199.207C199.181 59.5025 199.149 59.4045 199.112 59.2746C199.095 59.2156 199.083 59.1766 199.076 59.1577C198.906 59.323 198.724 59.4471 198.53 59.5297C198.337 59.6124 198.13 59.6537 197.91 59.6537C197.523 59.6537 197.218 59.5486 196.994 59.3384C196.772 59.1282 196.66 58.8625 196.66 58.5412C196.66 58.3287 196.711 58.1397 196.812 57.972C196.914 57.8067 197.055 57.6791 197.24 57.5894C197.422 57.502 197.686 57.424 198.031 57.3579C198.496 57.2705 198.819 57.189 198.998 57.1134V57.0142C198.998 56.8229 198.951 56.6871 198.856 56.6044C198.762 56.5241 198.584 56.4828 198.321 56.4828C198.144 56.4828 198.006 56.5182 197.907 56.5879C197.808 56.6576 197.727 56.7792 197.666 56.954L196.763 56.791C196.864 56.4273 197.039 56.158 197.287 55.9832C197.535 55.8084 197.903 55.7211 198.392 55.7211C198.836 55.7211 199.167 55.7742 199.384 55.8793C199.602 55.9844 199.755 56.1179 199.843 56.2785C199.932 56.4414 199.976 56.7379 199.976 57.1701ZM198.959 58.4456C198.985 58.3605 198.998 58.1987 198.998 57.9602V57.7618C198.871 57.8043 198.669 57.8551 198.392 57.9141C198.116 57.9732 197.935 58.0311 197.85 58.0877C197.72 58.1798 197.655 58.2968 197.655 58.4385C197.655 58.5778 197.707 58.6983 197.811 58.7999C197.915 58.9014 198.047 58.9522 198.208 58.9522C198.388 58.9522 198.559 58.8932 198.722 58.7751C198.842 58.6853 198.921 58.5755 198.959 58.4456Z" fill="#756C66"/>
<path d="M203.717 55.8392C203.899 55.9195 204.036 56.0198 204.131 56.1427C204.223 56.2655 204.288 56.4048 204.324 56.5607C204.361 56.7166 204.38 56.9398 204.38 57.2303V59.5687H203.384V57.6484C203.384 57.2421 203.363 56.98 203.321 56.8595C203.278 56.7414 203.209 56.6481 203.113 56.582C203.018 56.5159 202.902 56.4828 202.768 56.4828C202.595 56.4828 202.441 56.53 202.304 56.6245C202.167 56.719 202.072 56.8442 202.021 57.0001C201.971 57.156 201.946 57.4441 201.946 57.8645V59.5687H200.95V55.8061H201.875V56.3588C202.203 55.9336 202.617 55.7211 203.115 55.7211C203.335 55.7211 203.535 55.7612 203.717 55.8392Z" fill="#756C66"/>
<path fill-rule="evenodd" clip-rule="evenodd" d="M182.312 55.9655C182.611 55.8026 182.945 55.7211 183.314 55.7211C183.883 55.7211 184.349 55.9065 184.713 56.2761C185.077 56.6458 185.259 57.1122 185.259 57.6768C185.259 58.246 185.074 58.7184 184.707 59.0916C184.34 59.4671 183.878 59.6537 183.321 59.6537C182.976 59.6537 182.646 59.5758 182.333 59.4199C182.02 59.264 181.783 59.0349 181.62 58.7349C181.457 58.4326 181.376 58.0665 181.376 57.6343C181.376 57.3036 181.457 56.9835 181.62 56.6741C181.783 56.3647 182.013 56.1285 182.312 55.9655ZM183.317 58.8424C183.577 58.8424 183.794 58.7432 183.97 58.5448C184.146 58.3464 184.235 58.0582 184.235 57.6803C184.235 57.3118 184.146 57.0284 183.97 56.83C183.794 56.6316 183.577 56.5324 183.317 56.5324C183.057 56.5324 182.839 56.6316 182.662 56.83C182.485 57.0284 182.396 57.3142 182.396 57.6874C182.396 58.0606 182.485 58.3464 182.662 58.5448C182.839 58.7432 183.057 58.8424 183.317 58.8424Z" fill="#756C66"/>
<path d="M206.878 58.4775L207.756 55.8061H208.787L207.459 59.427L207.221 60.0824C207.134 60.3021 207.05 60.4698 206.971 60.5855C206.892 60.7012 206.801 60.7945 206.699 60.8677C206.595 60.9386 206.469 60.9953 206.319 61.0355C206.169 61.0756 206 61.0957 205.811 61.0957C205.62 61.0957 205.432 61.0756 205.248 61.0355L205.159 60.256C205.315 60.2867 205.456 60.3021 205.581 60.3021C205.812 60.3021 205.984 60.2336 206.095 60.0977C206.206 59.9619 206.291 59.7895 206.35 59.5793L204.918 55.8061H205.978L206.878 58.4775Z" fill="#756C66"/>
<path fill-rule="evenodd" clip-rule="evenodd" d="M171.307 55.8982C171.512 55.7801 171.74 55.7211 171.99 55.7211C172.427 55.7211 172.798 55.8923 173.103 56.2348C173.408 56.5773 173.56 57.0544 173.56 57.6661C173.56 58.2944 173.406 58.7833 173.099 59.1317C172.792 59.4801 172.42 59.6537 171.983 59.6537C171.775 59.6537 171.586 59.6124 171.418 59.5297C171.249 59.4471 171.072 59.3053 170.885 59.1046V61H169.889V55.8061H170.818V56.3588C170.938 56.1698 171.101 56.0163 171.307 55.8982ZM171.739 58.8636C171.97 58.8636 172.163 58.7715 172.316 58.5861C172.47 58.4007 172.547 58.096 172.547 57.6732C172.547 57.2788 172.468 56.9859 172.309 56.7945C172.151 56.6032 171.955 56.5076 171.721 56.5076C171.478 56.5076 171.276 56.6021 171.115 56.7887C170.955 56.9776 170.874 57.2551 170.874 57.6236C170.874 58.0464 170.958 58.3594 171.126 58.5601C171.294 58.7632 171.498 58.8636 171.739 58.8636Z" fill="#756C66"/>
<path fill-rule="evenodd" clip-rule="evenodd" d="M161.761 55.9655C162.06 55.8026 162.393 55.7211 162.762 55.7211C163.331 55.7211 163.797 55.9065 164.161 56.2761C164.525 56.6458 164.707 57.1122 164.707 57.6768C164.707 58.246 164.523 58.7184 164.156 59.0916C163.789 59.4671 163.326 59.6537 162.769 59.6537C162.424 59.6537 162.095 59.5758 161.782 59.4199C161.469 59.264 161.231 59.0349 161.068 58.7349C160.905 58.4326 160.824 58.0665 160.824 57.6343C160.824 57.3036 160.905 56.9835 161.068 56.6741C161.231 56.3647 161.462 56.1285 161.761 55.9655ZM162.765 58.8424C163.025 58.8424 163.243 58.7432 163.419 58.5448C163.595 58.3464 163.683 58.0582 163.683 57.6803C163.683 57.3118 163.595 57.0284 163.419 56.83C163.243 56.6316 163.025 56.5324 162.765 56.5324C162.505 56.5324 162.287 56.6316 162.11 56.83C161.933 57.0284 161.844 57.3142 161.844 57.6874C161.844 58.0606 161.933 58.3464 162.11 58.5448C162.287 58.7432 162.505 58.8424 162.765 58.8424Z" fill="#756C66"/>
<path d="M178.545 58.7609C178.824 58.7609 179.063 58.6723 179.264 58.4952C179.465 58.318 179.609 58.0393 179.696 57.659L180.713 57.9815C180.557 58.5483 180.297 58.9699 179.935 59.2451C179.572 59.5203 179.113 59.6573 178.555 59.6573C177.866 59.6573 177.299 59.4222 176.855 58.9499C176.411 58.4798 176.189 57.835 176.189 57.0178C176.189 56.1533 176.412 55.4825 176.858 55.003C177.305 54.5259 177.892 54.2862 178.619 54.2862C179.255 54.2862 179.771 54.474 180.167 54.8495C180.404 55.0715 180.581 55.3904 180.699 55.8061L179.661 56.0541C179.599 55.7848 179.471 55.5722 179.276 55.4164C179.081 55.2605 178.845 55.1825 178.566 55.1825C178.181 55.1825 177.868 55.3207 177.628 55.5971C177.389 55.8734 177.269 56.321 177.269 56.9398C177.269 57.5964 177.387 58.0641 177.624 58.3428C177.86 58.6215 178.167 58.7609 178.545 58.7609Z" fill="#756C66"/>
<path d="M167.817 58.409C167.866 58.2696 167.891 57.9318 167.891 57.3933V55.8061H168.887V59.5687H167.962V59.0054C167.825 59.2061 167.645 59.3644 167.422 59.4801C167.199 59.5959 166.964 59.6537 166.716 59.6537C166.463 59.6537 166.236 59.5982 166.035 59.4872C165.835 59.3762 165.689 59.2203 165.6 59.0195C165.51 58.8188 165.465 58.5412 165.465 58.1869V55.8061H166.46V57.535C166.46 58.0641 166.479 58.3889 166.515 58.5082C166.552 58.6274 166.619 58.7219 166.716 58.7916C166.812 58.8613 166.935 58.8955 167.084 58.8955C167.253 58.8955 167.406 58.8495 167.54 58.7562C167.675 58.6629 167.767 58.5459 167.817 58.409Z" fill="#756C66"/>
<path d="M159.112 56.3411C159.271 56.0883 159.413 55.9218 159.539 55.8415C159.666 55.7612 159.809 55.7211 159.97 55.7211C160.197 55.7211 160.415 55.7837 160.625 55.9088L160.317 56.7768C160.149 56.6682 159.993 56.6139 159.849 56.6139C159.71 56.6139 159.592 56.6529 159.495 56.7296C159.398 56.8064 159.322 56.9445 159.267 57.1453C159.211 57.3461 159.183 57.7665 159.183 58.4066V59.5687H158.188V55.8061H159.112V56.3411Z" fill="#756C66"/>
</svg>
