<svg width="335" height="94" viewBox="0 0 335 94" fill="none" xmlns="http://www.w3.org/2000/svg">
<path d="M105.505 37.209C106.869 36.6636 108.414 37.209 108.96 38.5727L113.414 49.7545L117.141 41.0272C118.414 38.209 120.505 37.0272 123.05 37.0272C124.596 37.0272 126.687 37.9363 127.869 39.4817C127.869 39.4817 130.505 37.0272 133.414 37.0272C136.232 37.0272 137.778 37.9363 139.05 39.4817C139.05 39.4817 141.232 37.0272 144.869 37.0272C148.505 37.0272 151.414 39.5727 151.414 43.2999V53.2999C151.414 55.0272 150.505 56.3908 148.687 56.3908C146.96 56.3908 146.05 54.9363 146.05 53.2999V44.4817C146.05 42.8454 144.96 41.6636 143.323 41.6636C141.778 41.6636 140.505 42.7545 140.505 44.4817V53.2999C140.505 55.0272 139.596 56.3908 137.778 56.3908C136.05 56.3908 135.141 54.9363 135.141 53.2999V44.4817C135.141 42.8454 134.05 41.6636 132.414 41.6636C130.869 41.6636 129.596 42.7545 129.596 44.4817V53.209C129.596 54.9363 128.687 56.2999 126.869 56.2999C125.141 56.2999 124.232 54.8454 124.232 53.209V42.4817C124.232 42.0272 123.96 41.6636 123.505 41.6636C123.069 41.6636 122.923 41.8963 122.836 42.0359C122.814 42.0708 122.796 42.0999 122.778 42.1181C122.687 42.209 117.596 53.2999 117.596 53.2999C116.596 55.209 115.778 56.3908 113.869 56.3908C112.05 56.3908 111.05 55.2999 110.141 53.2999L104.323 40.6636C103.596 39.3908 104.141 37.7545 105.505 37.209Z" fill="#756C66"/>
<path d="M158.596 55.0272L153.05 39.4817C152.96 39.2999 152.869 39.0272 152.869 38.7545C152.869 38.1181 153.414 37.3908 154.323 37.3908C154.96 37.3908 155.505 37.8454 155.778 38.5727L160.323 51.9363L164.96 38.4817C165.141 37.8454 165.596 37.2999 166.323 37.2999H166.505C167.232 37.2999 167.778 37.7545 167.96 38.4817L172.505 51.9363L177.141 38.4817C177.323 37.9363 177.687 37.3908 178.505 37.3908C179.323 37.3908 179.869 37.9363 179.869 38.6636C179.869 38.9363 179.778 39.209 179.687 39.3908L174.05 54.9363C173.778 55.7545 173.232 56.209 172.505 56.209H172.414C171.778 56.209 171.141 55.8454 170.869 54.9363L166.323 41.7545L161.778 54.9363C161.505 55.7545 161.05 56.209 160.232 56.209H160.141C159.414 56.2999 158.869 55.7545 158.596 55.0272Z" fill="#756C66"/>
<path d="M199.141 38.8454C199.141 38.1181 199.687 37.3908 200.505 37.3908C201.232 37.3908 201.96 37.9363 201.96 38.8454V42.0272C203.323 38.9363 206.323 37.5727 208.232 37.5727C209.05 37.5727 209.596 38.1181 209.596 39.0272C209.596 39.7545 209.141 40.2999 208.323 40.4817C204.778 40.8454 201.869 43.5727 201.869 48.8454V55.0272C201.869 55.7545 201.323 56.4817 200.505 56.4817C199.778 56.4817 199.05 55.9363 199.05 55.0272V38.8454H199.141Z" fill="#756C66"/>
<path fill-rule="evenodd" clip-rule="evenodd" d="M209.505 46.9363C209.505 52.5727 213.505 56.3908 218.414 56.3908C221.505 56.3908 223.505 55.2999 225.232 53.7545C225.505 53.5727 225.596 53.209 225.596 52.9363C225.596 52.2999 225.05 51.7545 224.414 51.7545C224.141 51.7545 223.869 51.8454 223.687 52.0272C222.414 53.2999 220.687 54.1181 218.505 54.1181C215.323 54.1181 212.505 51.8454 212.141 47.9363H225.232C225.96 47.9363 226.505 47.3908 226.505 46.6636C226.505 41.7545 223.505 37.3908 218.141 37.3908C213.141 37.3908 209.505 41.5727 209.505 46.8454V46.9363ZM218.05 39.6636C221.596 39.6636 223.505 42.4817 223.778 45.8454H212.232C212.505 42.2999 214.869 39.6636 218.05 39.6636Z" fill="#756C66"/>
<path fill-rule="evenodd" clip-rule="evenodd" d="M179.778 50.7545C179.778 46.8454 182.96 44.7545 187.596 44.7545C189.96 44.7545 191.596 45.0272 193.232 45.4817V44.8454C193.232 41.4817 191.232 39.9363 187.778 39.9363C185.96 39.9363 184.869 40.1181 183.505 40.7545C183.323 40.8454 183.141 40.8454 183.05 40.8454C182.414 40.8454 181.778 40.2999 181.778 39.6636C181.778 39.0272 182.05 38.7545 182.505 38.4817C184.323 37.7545 185.687 37.3908 188.05 37.3908C190.596 37.3908 192.596 38.0272 193.96 39.3908C195.232 40.6636 195.869 42.4817 195.869 44.7545V54.8454C195.869 55.5727 195.323 56.209 194.505 56.209C193.778 56.209 193.141 55.6636 193.141 54.9363V53.1181C191.869 54.8454 189.687 56.2999 186.505 56.2999C183.232 56.3908 179.778 54.4817 179.778 50.7545ZM193.232 49.2999V47.4817C191.869 47.1181 190.05 46.7545 187.778 46.7545C184.323 46.7545 182.414 48.2999 182.414 50.5727V50.6636C182.414 52.9363 184.505 54.2999 186.96 54.2999C190.505 54.2999 193.232 52.209 193.232 49.2999Z" fill="#756C66"/>
<path fill-rule="evenodd" clip-rule="evenodd" d="M229.323 40.0273C229.505 39.9364 229.687 39.8454 229.778 39.7545C229.869 39.6636 229.96 39.4818 229.869 39.2091C229.869 39.1182 229.869 38.9364 229.778 38.8454C229.778 38.7848 229.697 38.7242 229.616 38.6636C229.576 38.6333 229.535 38.603 229.505 38.5727C229.323 38.4818 229.232 38.4818 229.05 38.4818H228.05V40.8454H228.505V40.0273H228.869L229.414 40.8454H229.869L229.323 40.0273ZM229.05 39.6636H228.505V38.9364H229.05C229.232 38.9364 229.323 38.9364 229.414 39.0273C229.414 39.0727 229.437 39.1182 229.46 39.1636C229.482 39.2091 229.505 39.2545 229.505 39.3C229.505 39.3909 229.505 39.4818 229.414 39.5727C229.323 39.6636 229.232 39.6636 229.05 39.6636Z" fill="#756C66"/>
<path fill-rule="evenodd" clip-rule="evenodd" d="M226.596 39.6636C226.596 38.3908 227.687 37.3908 228.869 37.3908C230.141 37.3908 231.141 38.4817 231.141 39.6636C231.141 40.9363 230.05 41.9363 228.869 41.9363C227.596 41.9363 226.596 40.9363 226.596 39.6636ZM230.687 39.6636C230.687 38.5727 229.96 37.8454 228.869 37.8454C227.778 37.8454 227.05 38.6636 227.05 39.6636C227.05 40.7545 227.778 41.4817 228.869 41.4817C229.96 41.4817 230.687 40.6636 230.687 39.6636Z" fill="#756C66"/>
</svg>
