<?xml version="1.0" standalone="no"?>
<!DOCTYPE svg PUBLIC "-//W3C//DTD SVG 20010904//EN"
 "http://www.w3.org/TR/2001/REC-SVG-20010904/DTD/svg10.dtd">
<svg version="1.0" xmlns="http://www.w3.org/2000/svg"
 width="512.000000pt" height="512.000000pt" viewBox="0 0 512.000000 512.000000"
 preserveAspectRatio="xMidYMid meet">

<g transform="translate(0.000000,512.000000) scale(0.100000,-0.100000)"
fill="#000000" stroke="none">
<path d="M3196 4939 c-258 -325 -307 -750 -127 -1114 48 -97 123 -206 173
-252 l24 -23 54 55 54 54 -41 48 c-89 106 -151 227 -189 369 -27 100 -25 320
4 425 37 136 103 260 192 361 l39 45 -52 51 c-29 29 -57 52 -63 52 -6 0 -37
-32 -68 -71z"/>
<path d="M4672 4957 c-49 -49 -52 -55 -36 -68 72 -60 179 -250 215 -385 30
-108 32 -326 5 -428 -38 -142 -100 -263 -189 -369 l-41 -48 54 -54 54 -55 24
23 c50 46 125 155 173 252 180 364 131 790 -127 1114 -31 39 -62 71 -68 71 -7
0 -35 -24 -64 -53z"/>
<path d="M3447 4739 c-203 -232 -220 -607 -38 -865 75 -108 73 -107 138 -42
l56 56 -35 41 c-74 86 -128 233 -128 346 0 122 44 251 121 353 l41 54 -54 55
-55 55 -46 -53z"/>
<path d="M4451 4737 l-53 -55 41 -54 c77 -102 121 -231 121 -353 0 -113 -54
-260 -128 -346 l-35 -41 56 -56 c65 -65 62 -65 134 35 57 81 97 175 119 283
41 203 -22 443 -154 589 l-47 52 -54 -54z"/>
<path d="M3879 4661 c-280 -90 -370 -451 -163 -657 l44 -45 0 -979 0 -980
-159 0 -160 0 -3 408 -3 407 -32 67 c-44 93 -100 151 -191 196 l-76 37 -183 3
-182 4 -16 56 c-75 259 -283 506 -530 630 -350 175 -765 141 -1076 -89 -81
-60 -201 -184 -252 -262 -48 -72 -110 -204 -132 -279 l-16 -56 -182 -4 -183
-3 -76 -37 c-91 -45 -147 -103 -191 -196 l-32 -67 0 -896 0 -895 37 -76 c45
-91 103 -147 196 -191 l67 -32 328 -3 327 -3 0 -80 0 -79 -56 0 c-87 0 -133
-18 -189 -75 -66 -65 -75 -99 -75 -269 l0 -136 1040 0 1040 0 0 136 c0 163
-10 200 -67 264 -51 57 -108 80 -195 80 l-58 0 0 79 0 80 328 3 327 3 67 32
c93 44 151 100 196 191 l37 76 4 168 3 168 375 0 c266 0 388 4 417 12 55 16
138 99 154 154 15 53 16 255 0 306 -14 48 -76 121 -118 138 l-30 12 0 987 0
987 45 47 c245 256 63 680 -289 676 -34 0 -86 -8 -117 -18z m227 -164 c49 -26
103 -88 120 -140 37 -110 -10 -223 -118 -290 l-28 -17 0 -1025 0 -1025 -80 0
-80 0 0 1024 0 1023 -52 39 c-63 47 -108 125 -108 190 0 103 63 195 159 231
45 17 146 11 187 -10z m-2297 -751 c76 -40 159 -184 205 -354 l24 -91 -36 -8
c-20 -4 -129 -8 -242 -8 -113 0 -222 4 -242 8 l-36 8 24 91 c45 167 122 303
199 350 36 22 67 23 104 4z m-374 -89 c-28 -50 -105 -272 -105 -304 0 -13 -6
-23 -13 -23 -32 0 -221 63 -241 81 -13 12 45 79 125 145 65 53 219 143 246
144 7 0 2 -17 -12 -43z m724 3 c127 -63 312 -225 285 -249 -20 -18 -209 -81
-241 -81 -7 0 -13 8 -13 18 0 30 -67 232 -98 295 -16 31 -25 57 -20 57 5 0 44
-18 87 -40z m-1096 -420 c41 -16 111 -40 156 -52 l81 -21 -8 -41 c-9 -53 -9
-439 0 -492 l8 -41 -81 -21 c-45 -12 -115 -36 -156 -52 -41 -17 -78 -30 -82
-30 -12 0 -56 105 -77 185 -26 98 -26 312 0 410 21 80 65 185 77 185 4 0 41
-13 82 -30z m1497 3 c96 -208 104 -453 21 -673 -34 -89 -27 -86 -132 -47 -52
20 -125 43 -162 53 l-67 16 8 42 c9 53 9 439 0 492 l-8 41 83 22 c45 12 114
35 152 51 89 35 89 35 105 3z m-875 -119 c99 -3 212 -2 270 5 55 5 104 6 108
2 12 -12 20 -342 10 -431 l-8 -75 -30 2 c-185 11 -387 13 -470 4 -67 -7 -103
-7 -110 0 -12 12 -14 464 -2 493 5 14 14 17 35 12 15 -3 104 -9 197 -12z
m-965 -238 c0 -206 69 -429 183 -595 45 -65 171 -195 241 -248 122 -91 293
-162 451 -188 267 -44 547 22 770 180 68 48 205 187 251 255 114 165 184 392
184 593 l0 77 136 0 c78 0 154 -5 178 -12 55 -16 138 -99 154 -154 9 -31 12
-220 12 -738 l0 -696 -1520 0 -1520 0 0 696 c0 518 3 707 12 738 15 51 99 137
148 153 19 6 99 11 178 12 l142 1 0 -74z m1297 -422 l21 -6 -24 -91 c-35 -129
-102 -263 -158 -315 -74 -68 -118 -68 -192 0 -56 52 -123 186 -158 315 l-24
92 31 6 c18 3 50 7 72 9 56 6 405 -2 432 -10z m-687 -56 c0 -33 77 -255 105
-305 13 -24 19 -43 14 -43 -26 0 -176 86 -242 140 -83 67 -145 137 -131 149
20 18 200 79 237 80 11 1 17 -7 17 -21z m950 3 c74 -21 151 -50 164 -62 14
-12 -48 -82 -131 -149 -65 -53 -216 -140 -241 -140 -5 0 4 26 20 58 31 62 98
264 98 294 0 23 9 23 90 -1z m1935 -596 c24 -23 25 -31 25 -135 0 -104 -1
-112 -25 -135 l-24 -25 -376 0 -375 0 0 160 0 160 375 0 376 0 24 -25z m-935
-671 c0 -31 -5 -75 -12 -98 -16 -55 -99 -138 -154 -154 -60 -17 -2648 -17
-2708 0 -55 16 -138 99 -154 154 -7 23 -12 67 -12 98 l0 56 1520 0 1520 0 0
-56z m-960 -504 l0 -80 -560 0 -560 0 0 80 0 80 560 0 560 0 0 -80z m295 -265
c21 -20 25 -34 25 -80 l0 -55 -880 0 -880 0 0 55 c0 46 4 60 25 80 l24 25 831
0 831 0 24 -25z"/>
<path d="M1520 2880 l0 -80 80 0 80 0 0 80 0 80 -80 0 -80 0 0 -80z"/>
<path d="M1840 2880 l0 -80 80 0 80 0 0 80 0 80 -80 0 -80 0 0 -80z"/>
<path d="M400 1920 l0 -80 240 0 240 0 0 80 0 80 -240 0 -240 0 0 -80z"/>
<path d="M2640 1920 l0 -80 240 0 240 0 0 80 0 80 -240 0 -240 0 0 -80z"/>
<path d="M400 1600 l0 -80 80 0 80 0 0 80 0 80 -80 0 -80 0 0 -80z"/>
<path d="M720 1600 l0 -80 1200 0 1200 0 0 80 0 80 -1200 0 -1200 0 0 -80z"/>
</g>
</svg>
